<svg width="351" height="185" viewBox="0 0 351 185" fill="none" xmlns="http://www.w3.org/2000/svg">
<path d="M341.706 136.273L334.811 136.4L331.311 136.447C330.139 136.47 328.961 136.441 327.789 136.469L327.558 136.468L327.559 136.232L327.545 130.335L327.545 130.072L327.808 130.073L334.766 130.125C337.089 130.132 339.406 130.196 341.724 130.229L341.871 130.23L341.871 130.377C341.868 131.375 341.823 132.369 341.794 133.351L341.706 136.273ZM341.706 136.273L341.641 133.304C341.618 132.326 341.589 131.359 341.581 130.392L341.723 130.539C339.405 130.559 337.088 130.61 334.765 130.603L327.807 130.614L328.07 130.352L328.053 136.233L327.817 136.001C328.963 136.004 330.108 136.008 331.259 136.037L334.68 136.137L341.706 136.273Z" fill="#EBEBEB"/>
<path d="M333.923 143.665L327.027 143.792L323.522 143.84C322.355 143.836 321.178 143.833 320.006 143.861L319.775 143.86L319.775 143.624L319.793 137.743L319.793 137.48L320.056 137.481L327.014 137.538C329.332 137.545 331.654 137.61 333.972 137.643L334.119 137.643L334.119 137.785C334.116 138.784 334.071 139.777 334.042 140.759L333.923 143.665ZM333.923 143.665L333.858 140.696C333.834 139.718 333.806 138.751 333.798 137.784L333.939 137.932C331.622 137.951 329.299 138.002 326.981 137.995L320.023 138.007L320.287 137.745L320.269 143.625L320.034 143.393C321.179 143.397 322.325 143.4 323.476 143.43L326.928 143.503L333.923 143.665Z" fill="#EBEBEB"/>
<path d="M349.446 143.711L342.551 143.838L339.051 143.885C337.879 143.882 336.702 143.878 335.53 143.906L335.299 143.906L335.299 143.669L335.285 137.788L335.286 137.526L335.548 137.526L342.506 137.584C344.829 137.59 347.147 137.655 349.464 137.688L349.611 137.688L349.611 137.83C349.608 138.829 349.558 139.822 349.534 140.805L349.446 143.711ZM349.446 143.711L349.382 140.741C349.384 139.764 349.329 138.796 349.322 137.829L349.463 137.977C347.146 137.997 344.828 138.048 342.505 138.041L335.547 138.052L335.81 137.79L335.793 143.671L335.557 143.439C336.708 143.442 337.849 143.445 339 143.475L342.457 143.548L349.446 143.711Z" fill="#EBEBEB"/>
<path d="M143.486 65.7196L136.591 65.8466L133.091 65.8942C131.919 65.8907 130.742 65.8873 129.57 65.8839L129.339 65.8832L129.339 65.6467L129.325 59.7659L129.326 59.5032L129.588 59.5039L136.546 59.5558C138.869 59.5626 141.187 59.6272 143.504 59.6603L143.651 59.6607L143.651 59.8026C143.648 60.8011 143.598 61.789 143.569 62.7716L143.486 65.7196ZM143.486 65.7196L143.422 62.7449C143.424 61.7674 143.369 60.8003 143.362 59.8385L143.503 59.9808C141.186 59.9741 138.868 60.0514 136.545 60.0446L129.587 60.061L129.85 59.799L129.807 65.6796L129.571 65.4424C130.717 65.4458 131.862 65.4491 133.013 65.484L136.471 65.5519L143.486 65.7196Z" fill="#EBEBEB"/>
<path d="M135.692 73.1118L128.797 73.2388L125.291 73.2864C124.125 73.2829 122.948 73.2795 121.776 73.3023L121.544 73.3017L121.545 73.0652L121.52 67.1949L121.521 66.9321L121.784 66.9329L128.742 66.9848C131.059 66.9916 133.382 67.0562 135.699 67.0892L135.847 67.0897L135.846 67.2368C135.843 68.2353 135.798 69.2232 135.769 70.2059L135.692 73.1118ZM135.692 73.1118L135.627 70.1371C135.604 69.1596 135.575 68.1925 135.568 67.2307L135.709 67.373C133.391 67.3925 131.068 67.4436 128.751 67.4368L121.793 67.4532L122.056 67.1912L122.029 73.0718L121.793 72.8347C122.938 72.838 124.084 72.8414 125.235 72.8763L128.687 72.9442L135.692 73.1118Z" fill="#EBEBEB"/>
<path d="M151.226 73.1574L144.331 73.2844L140.831 73.332C139.659 73.3286 138.487 73.3251 137.31 73.348L137.078 73.3473L137.079 73.1108L137.065 67.2405L137.065 66.9778L137.328 66.9786L144.286 67.0304C146.609 67.0372 148.926 67.1018 151.244 67.1349L151.391 67.1353L151.391 67.2825C151.388 68.281 151.337 69.2688 151.314 70.2515L151.226 73.1574ZM151.226 73.1574L151.161 70.1827C151.164 69.2053 151.109 68.2381 151.102 67.2764L151.243 67.4187C148.925 67.4382 146.608 67.4892 144.285 67.4824L137.327 67.4988L137.59 67.2368L137.547 73.1174L137.311 72.8802C138.462 72.8836 139.602 72.8869 140.753 72.9218L144.211 72.9898L151.226 73.1574Z" fill="#EBEBEB"/>
<path d="M29.908 104.297L23.0127 104.424L19.5072 104.471C18.3405 104.468 17.1634 104.465 15.9913 104.487L15.7811 104.487L15.7818 104.25L15.799 98.3697L15.7998 98.1069L16.0626 98.1077L23.0205 98.1596C25.3381 98.1664 27.6607 98.231 29.9782 98.264L30.1254 98.2645L30.125 98.4064C30.1221 99.4049 30.0771 100.393 30.048 101.375L29.908 104.297ZM29.908 104.297L29.8432 101.322C29.846 100.345 29.791 99.3776 29.7833 98.4159L29.9248 98.5582C27.6072 98.5777 25.2842 98.6287 22.9666 98.6219L16.0085 98.6383L16.272 98.3763L16.2285 104.257L15.9927 104.02C17.1384 104.023 18.284 104.026 19.4348 104.061L22.8874 104.129L29.908 104.297Z" fill="#EBEBEB"/>
<path d="M260.714 66.0574L253.818 66.1843L250.318 66.2319C249.146 66.2548 247.969 66.225 246.797 66.2479L246.566 66.2472L246.566 66.0107L246.552 60.13L246.553 59.8672L246.815 59.868L253.773 59.9198C256.096 59.9266 258.414 59.9965 260.731 60.0295L260.878 60.03L260.878 60.1719C260.875 61.1704 260.83 62.1635 260.801 63.1409L260.714 66.0574ZM260.714 66.0574L260.649 63.0879C260.625 62.1051 260.597 61.138 260.589 60.1763L260.73 60.3186C258.413 60.3381 256.095 60.3891 253.772 60.3876L246.814 60.3987L247.077 60.1367L247.034 66.0173L246.798 65.7802C247.944 65.7835 249.089 65.7869 250.24 65.8218L253.698 65.8897L260.714 66.0574Z" fill="#EBEBEB"/>
<path d="M341.274 9.17946L334.379 9.30644L330.873 9.35398C329.707 9.35057 328.53 9.34713 327.358 9.37523L327.126 9.37455L327.127 9.13806L327.144 3.25739L327.145 2.99463L327.408 2.9954L334.366 3.04729C336.683 3.05407 339.006 3.12393 341.323 3.15699L341.471 3.15742L341.47 3.29931C341.467 4.29782 341.422 5.29095 341.393 6.26836L341.274 9.17946ZM341.274 9.17946L341.209 6.21001C341.186 5.22719 341.157 4.26013 341.15 3.29838L341.291 3.44069C338.974 3.4339 336.65 3.51119 334.333 3.50967L327.375 3.52083L327.638 3.25884L327.595 9.13943L327.359 8.90225C328.505 8.90561 329.65 8.90896 330.801 8.94386L334.254 9.01177L341.274 9.17946Z" fill="#EBEBEB"/>
<path d="M349.014 16.6172L342.119 16.7442L338.619 16.7917C337.447 16.8146 336.27 16.7848 335.098 16.8077L334.866 16.807L334.867 16.5705L334.853 10.6898L334.854 10.427L335.116 10.4278L342.074 10.4797C344.397 10.4865 346.714 10.5563 349.032 10.5894L349.179 10.5898L349.179 10.7317C349.176 11.7302 349.126 12.7233 349.096 13.7007L349.014 16.6172ZM349.014 16.6172L348.949 13.6477C348.952 12.665 348.897 11.6978 348.89 10.7361L349.031 10.8784C346.713 10.8979 344.396 10.9489 342.073 10.9474L335.115 10.9586L335.378 10.6966L335.361 16.5772L335.125 16.3401C336.271 16.3434 337.417 16.3468 338.567 16.3817L342.025 16.4496L349.014 16.6172Z" fill="#EBEBEB"/>
<path d="M14.6653 8.22904L7.76465 8.35599L4.26446 8.40356C3.09779 8.40015 1.9206 8.3967 0.748581 8.4248L0.512092 8.42411L0.512784 8.18762L0.529993 2.30695L0.530762 2.04419L0.798781 2.04497L7.75668 2.10212C10.0743 2.1089 12.3917 2.17349 14.7144 2.20657L14.8563 2.20698L14.8559 2.34888C14.853 3.34738 14.8028 4.34049 14.7789 5.32317L14.6653 8.22904ZM14.6653 8.22904L14.5951 5.25957C14.598 4.27683 14.543 3.30969 14.5353 2.34794L14.6821 2.49026C12.3591 2.515 10.0414 2.56077 7.72381 2.55924L0.765712 2.57041L1.02925 2.30841L0.980505 8.18899L0.749873 7.98336C1.89553 7.98671 3.03592 7.99005 4.18683 7.99342L7.64464 8.06134L14.6653 8.22904Z" fill="#EBEBEB"/>
<path d="M184.897 81.6697C184.25 82.2769 183.449 82.6945 182.581 82.8769C182.055 83.012 181.471 83.0891 180.914 83.1873L179.012 83.1818C178.229 83.0586 177.436 82.9617 176.674 82.807C173.828 82.1875 171.134 81.0077 168.749 79.3364C162.466 75.1568 157.179 69.6478 153.261 63.1992C151.947 61.0712 151.045 58.7154 150.601 56.2544C150.487 55.6076 150.4 54.9557 150.302 54.3038L150.308 52.4014C150.467 51.6713 150.596 50.9307 150.792 50.2113C150.986 49.5361 151.35 48.922 151.849 48.4276C151.943 48.5119 152.027 48.5805 152.111 48.6648C155.129 51.6972 158.149 54.7296 161.171 57.7621C161.268 57.844 161.338 57.9545 161.37 58.0781C161.401 58.2017 161.394 58.3321 161.347 58.451C161.115 59.1996 161.081 59.9959 161.251 60.7614C161.42 61.5268 161.786 62.2349 162.312 62.8158C164.888 65.7595 167.648 68.5374 170.575 71.1329C171.159 71.6658 171.871 72.037 172.642 72.2098C173.413 72.3826 174.216 72.3509 174.971 72.118C175.192 72.0608 175.35 72.0245 175.538 72.2142C178.623 75.3344 181.714 78.4476 184.813 81.5538C184.829 81.5696 184.85 81.617 184.897 81.6697Z" fill="#EBEBEB"/>
<path d="M190.865 74.8917L190.863 75.5223C190.588 75.9165 190.29 76.2946 189.972 76.6548C189.033 77.6243 188.064 78.5622 187.11 79.5106L186.815 79.7883L177.498 70.4223C178.726 69.2172 179.949 67.9857 181.214 66.786C181.351 66.6595 181.512 66.5618 181.687 66.4987C181.863 66.4356 182.049 66.4085 182.235 66.4188C182.422 66.4292 182.604 66.4768 182.771 66.559C182.939 66.6411 183.088 66.756 183.21 66.8969C183.913 67.5822 184.594 68.2831 185.306 68.9737C186.926 70.6076 188.555 72.231 190.159 73.8753C190.42 74.1951 190.657 74.5349 190.865 74.8917Z" fill="#EBEBEB"/>
<path d="M166.436 52.496C165.277 53.612 164.091 54.7016 162.942 55.7809L153.699 46.4886C153.905 46.3053 154.142 46.1116 154.358 45.902C155.212 45.0584 156.05 44.1937 156.919 43.3659C157.272 43.0579 157.644 42.7712 158.031 42.5073L158.667 42.5091C159.02 42.7278 159.357 42.973 159.674 43.2426C161.937 45.4985 164.192 47.7649 166.438 50.0417C167.287 50.8956 167.285 51.6629 166.436 52.496Z" fill="#EBEBEB"/>
<path d="M11.0639 57.1973L71.8824 57.3753L71.9953 18.7915L11.1768 18.6135L11.0639 57.1973Z" fill="#EBEBEB"/>
<path d="M83.2595 57.4086L71.8818 57.3753L71.9165 45.5247L83.2595 57.4086Z" fill="#EBEBEB"/>
<path d="M64.9334 25.4398L18.1938 25.303L18.1917 26.0387L64.9312 26.1755L64.9334 25.4398Z" fill="white"/>
<path d="M42.3407 29.3361L18.1821 29.2654L18.18 30.0011L42.3385 30.0718L42.3407 29.3361Z" fill="white"/>
<path d="M55.9547 37.2954L18.1587 37.1848L18.1565 37.9206L55.9526 38.0312L55.9547 37.2954Z" fill="white"/>
<path d="M64.887 41.2786L18.1475 41.1418L18.1453 41.8776L64.8848 42.0143L64.887 41.2786Z" fill="white"/>
<path d="M64.8753 45.2356L18.1357 45.0989L18.1336 45.8346L64.8731 45.9714L64.8753 45.2356Z" fill="white"/>
<path d="M34.7307 49.1101L18.124 49.0615L18.1219 49.7973L34.7286 49.8459L34.7307 49.1101Z" fill="white"/>
<path d="M339.194 73.5654L278.375 73.3875L278.276 107.415L339.094 107.593L339.194 73.5654Z" fill="#DBDBDB"/>
<path d="M266.898 107.387L278.276 107.42L278.311 95.5694L266.898 107.387Z" fill="#DBDBDB"/>
<path d="M326.193 91.2953L285.502 91.1763L285.5 91.912L326.191 92.0311L326.193 91.2953Z" fill="white"/>
<path d="M317.816 95.233L285.49 95.1384L285.488 95.8742L317.813 95.9688L317.816 95.233Z" fill="white"/>
<path d="M320.289 83.3583L285.525 83.2566L285.523 83.9923L320.287 84.0941L320.289 83.3583Z" fill="white"/>
<path d="M330.926 79.4321L285.537 79.2993L285.534 80.035L330.923 80.1679L330.926 79.4321Z" fill="white"/>
<path d="M321.157 99.2001L285.479 99.0957L285.477 99.8314L321.155 99.9359L321.157 99.2001Z" fill="white"/>
<path d="M308.573 37.3092L196.895 36.9824L196.88 41.8803L308.559 42.2071L308.573 37.3092Z" fill="#EBEBEB"/>
<path d="M208.037 41.9184L203.139 41.9041L203.092 58.1009L207.99 58.1152L208.037 41.9184Z" fill="#EBEBEB"/>
<path d="M208.037 41.9184L203.139 41.9041L203.125 46.9123L208.022 46.9267L208.037 41.9184Z" fill="#DBDBDB"/>
<path d="M302.299 42.1943L297.401 42.1799L297.354 58.3767L302.252 58.3911L302.299 42.1943Z" fill="#EBEBEB"/>
<path d="M302.299 42.1943L297.401 42.1799L297.387 47.1882L302.285 47.2026L302.299 42.1943Z" fill="#DBDBDB"/>
<path d="M225.604 37.0674L225.695 5.8562L217.833 5.8332L217.742 37.0444L225.604 37.0674Z" fill="#C7C7C7"/>
<path d="M225.69 7.61652L225.7 4.18481L217.838 4.16181L217.828 7.59351L225.69 7.61652Z" fill="#DBDBDB"/>
<path d="M225.668 13.2869L225.672 12.0151L217.81 11.9921L217.806 13.2639L225.668 13.2869Z" fill="#DBDBDB"/>
<path d="M226.593 32.981L226.603 29.5493L217.764 29.5234L217.754 32.9552L226.593 32.981Z" fill="#DBDBDB"/>
<path d="M231.096 37.0837L231.202 0.675049L225.71 0.658978L225.604 37.0676L231.096 37.0837Z" fill="#DBDBDB"/>
<path d="M230.032 18.0979L230.073 4.09253L226.778 4.08289L226.737 18.0883L230.032 18.0979Z" fill="#EBEBEB"/>
<path d="M270.169 33.3086L244.351 7.63672L240.479 11.531L266.297 37.2029L270.169 33.3086Z" fill="#C7C7C7"/>
<path d="M263.351 28.0542L253.42 18.179L251.097 20.5155L261.028 30.3908L263.351 28.0542Z" fill="#DBDBDB"/>
<path d="M240.418 37.121L240.499 9.4624L231.171 9.43511L231.09 37.0937L240.418 37.121Z" fill="#A6A6A6"/>
<path d="M240.427 34.183L240.434 31.6079L231.106 31.5806L231.098 34.1557L240.427 34.183Z" fill="#C7C7C7"/>
<path d="M240.439 29.9209L240.442 28.9224L231.114 28.8951L231.111 29.8936L240.439 29.9209Z" fill="#C7C7C7"/>
<path d="M217.742 37.0547L217.818 11.062L211.375 11.0432L211.299 37.0358L217.742 37.0547Z" fill="#A6A6A6"/>
<path d="M217.75 34.2953L217.757 31.8726L211.314 31.8537L211.307 34.2764L217.75 34.2953Z" fill="#C7C7C7"/>
<path d="M217.795 18.8397L217.802 16.417L211.359 16.3981L211.352 18.8208L217.795 18.8397Z" fill="#C7C7C7"/>
<path d="M217.788 21.4412L217.791 20.5005L211.348 20.4816L211.345 21.4223L217.788 21.4412Z" fill="#C7C7C7"/>
<path d="M296.868 25.1673L296.164 27.0204L295.73 28.149L295.02 30.0073L292.256 37.2674L277.42 37.224L274.687 29.9478L273.989 28.0854L273.566 26.9543L272.867 25.0971L278.367 17.1303L275.544 11.8615L294.285 11.9163L291.416 17.1685L296.868 25.1673Z" fill="#DBDBDB"/>
<path d="M296.868 25.1672L296.164 27.0202L273.566 26.9541L272.867 25.0969L296.868 25.1672Z" fill="#A6A6A6"/>
<path d="M295.73 28.1488L295.02 30.0071L274.688 29.9476L273.989 28.0852L295.73 28.1488Z" fill="#A6A6A6"/>
<path d="M7.06272 178.076L48.9994 178.073L90.9305 178.148L174.798 178.31L258.665 178.639L300.596 178.809L342.532 179.058L300.595 179.067L258.664 178.991L174.797 178.83L90.9295 178.5L48.9986 178.33L7.06272 178.076Z" fill="#263238"/>
<path d="M170.247 178.544L234.707 178.733L222.077 103.929L173.871 103.788L170.247 178.544Z" fill="#DBDBDB"/>
<path d="M170.247 178.544L175.901 178.561L179.289 103.804L173.871 103.788L170.247 178.544Z" fill="#A6A6A6"/>
<path d="M226.432 118.599C233.679 134.911 251.226 162 259.133 155.323C270.96 145.341 279.013 123.209 282.192 114.258C283.978 109.244 258.436 100.772 256.857 105.324C254.61 111.791 251.075 125.313 249.047 127.225C247.993 128.226 239.65 116.446 233.329 110.852C224.203 102.79 224.119 113.389 226.432 118.599Z" fill="#AD6359"/>
<path d="M288.6 106.736C286.309 111.848 277.523 120.478 274.608 121.746C271.693 123.015 256.357 109.08 256.687 105.812C257.017 102.544 266.243 85.4496 271.332 82.8368C276.422 80.224 290.975 101.435 288.6 106.736Z" fill="#AD6359"/>
<path d="M257.901 102.221C257.901 102.221 258.29 94.9387 256.469 88.7741C254.939 83.5932 252.086 76.0749 254.838 75.1475C260.498 73.2459 267.611 92.002 267.611 92.002C267.611 92.002 269.425 100.784 263.989 103.164C260.579 104.657 257.901 102.221 257.901 102.221Z" fill="#AD6359"/>
<path d="M264.316 88.4241C264.675 91.3734 267.945 89.2598 267.945 89.2598C267.945 89.2598 263.976 93.4524 265.523 96.3316C267.028 99.1161 270.883 96.4209 271.162 96.2325C270.951 96.4579 267.408 100.389 269.266 103.138C271.197 105.992 274.601 102.628 274.823 102.408C274.691 102.675 273.03 106.302 274.916 108.073C278.155 111.105 282.66 101.952 286.11 100.938C286.11 100.938 288.501 106.584 288.6 106.726C288.6 106.726 293.066 98.0992 291.44 93.5223C291.212 92.8537 290.763 92.2827 290.167 91.9036C289.571 91.5244 288.863 91.3598 288.161 91.4368C288.161 91.4368 289.909 88.8143 288.517 86.603C287.795 85.471 285.367 85.611 285.367 85.611C285.367 85.611 286.676 83.4549 285.316 81.5695C284.232 80.058 281.945 80.435 281.945 80.435C281.945 80.435 282.242 77.7767 280.637 76.5948C277.375 74.2098 263.541 82.1101 264.316 88.4241Z" fill="#AD6359"/>
<path d="M281.55 80.4492C281.598 80.4231 281.551 80.3546 281.524 80.3703C276.338 81.8581 271.1 85.0696 267.755 89.3534C267.645 89.495 267.823 89.732 267.975 89.6011C272.29 85.8561 276.372 82.8883 281.55 80.4492Z" fill="#263238"/>
<path d="M285.398 85.5423C285.456 85.5162 285.399 85.4214 285.351 85.4371C280.012 86.998 274.215 90.7965 270.936 96.1736C270.825 96.3572 270.908 96.636 271.056 96.4367C273.505 93.0384 280.725 87.7201 285.398 85.5423Z" fill="#263238"/>
<path d="M274.721 102.853C278.063 97.818 282.682 94.3578 287.94 91.488C288.003 91.4514 287.941 91.3619 287.883 91.3775C284.927 92.0783 281.768 94.2553 279.46 96.1614C277.277 97.8856 275.585 100.153 274.553 102.737C274.506 102.853 274.653 102.969 274.721 102.853Z" fill="#263238"/>
<path d="M267.84 89.2536C267.708 89.4214 268.102 89.4278 267.975 89.6009C267.448 90.3246 264.623 94.9673 265.906 96.4267C266.954 97.5912 269.21 97.0092 270 96.4387L271.975 95.0203L270.613 97.0606C270 97.9546 269.536 98.9417 269.238 99.9838C269.073 100.458 269.011 100.962 269.056 101.463C269.101 101.963 269.251 102.448 269.497 102.886C269.728 103.291 270.092 103.605 270.527 103.774C270.962 103.942 271.442 103.956 271.886 103.812C272.875 103.475 273.762 102.889 274.461 102.112L276.464 100.015L275.258 102.64C274.921 103.366 274.677 104.131 274.531 104.918C274.369 105.658 274.427 106.429 274.698 107.137C274.833 107.448 275.051 107.716 275.329 107.911C275.607 108.105 275.933 108.219 276.272 108.24C277.039 108.164 277.769 107.871 278.376 107.394C279.706 106.384 280.955 105.272 282.112 104.068C282.718 103.481 283.324 102.889 283.962 102.324C284.561 101.728 285.278 101.264 286.068 100.963C285.317 101.341 284.648 101.862 284.098 102.497C283.513 103.1 282.954 103.729 282.395 104.363C281.296 105.673 280.079 106.878 278.758 107.963C278.05 108.56 277.183 108.939 276.264 109.054C275.757 109.057 275.26 108.914 274.833 108.642C274.406 108.369 274.067 107.979 273.856 107.518C273.491 106.65 273.393 105.692 273.575 104.768C273.719 103.889 273.978 103.033 274.345 102.222L275.142 102.75C274.33 103.682 273.288 104.385 272.119 104.79C271.465 104.998 270.759 104.97 270.123 104.711C269.508 104.44 268.989 103.989 268.634 103.419C268.323 102.864 268.133 102.248 268.077 101.614C268.02 100.98 268.099 100.341 268.308 99.7394C268.647 98.5982 269.174 97.5215 269.868 96.5539L270.481 97.1548C269.428 97.835 266.987 98.7633 265.157 97.1655C263.136 94.6949 267.065 90.0502 267.84 89.2536Z" fill="#263238"/>
<path d="M267.945 89.2594C267.376 89.4844 266.777 89.6226 266.167 89.6694C265.922 89.694 265.675 89.6525 265.452 89.5492C265.229 89.446 265.037 89.2848 264.897 89.0824C264.651 88.5954 264.552 88.0472 264.613 87.5049C264.646 86.9059 264.711 86.2807 264.807 85.6346C264.406 86.1615 264.121 86.768 263.972 87.4137C263.87 87.7621 263.838 88.1272 263.877 88.4881C263.917 88.849 264.027 89.1985 264.202 89.5165C264.431 89.8471 264.755 90.1008 265.13 90.2445C265.492 90.3638 265.88 90.3795 266.25 90.2898C266.909 90.1335 267.502 89.7729 267.945 89.2594Z" fill="#263238"/>
<path d="M255.3 105.808L281.858 124.421C281.858 124.421 265.865 157.308 256.043 157.19C246.221 157.072 232.104 132.363 227.243 121.686C222.382 111.009 225.325 101.984 235.197 111.724C245.069 121.465 248.605 125.479 248.926 125.349C249.526 125.109 255.3 105.808 255.3 105.808Z" fill="#6DDAD3"/>
<path d="M281.858 124.421C281.858 124.421 270.755 147.227 261.384 154.788C259.503 156.307 257.698 157.211 256.043 157.185C246.221 157.072 232.104 132.358 227.217 121.686C224.193 115.076 224.185 109.101 226.953 107.822C228.663 107.033 231.419 108.019 235.176 111.74C245.132 121.549 248.579 125.49 248.905 125.359C249.526 125.109 255.305 105.813 255.305 105.813L281.858 124.421Z" fill="#6DDAD3"/>
<path d="M265.31 150.911C264.983 151.288 264.651 151.655 264.319 152.012C261.319 153.888 257.955 155.109 254.45 155.593C253.483 155.697 252.51 155.733 251.538 155.7L250.935 155.32C252.095 155.394 253.259 155.367 254.414 155.241C255.797 155.094 257.158 154.784 258.468 154.317L259.463 153.994L260.426 153.593C260.746 153.457 261.078 153.342 261.388 153.185L262.32 152.715C263.356 152.182 264.355 151.579 265.31 150.911ZM245.205 121.838C242.164 123.21 239.389 125.107 237.006 127.442C235.461 128.956 234.031 130.584 232.73 132.312C232.792 132.428 232.86 132.549 232.934 132.665C234.25 130.908 235.701 129.255 237.273 127.722C239.27 125.771 241.543 124.126 244.019 122.838L244.951 122.368C245.122 122.282 245.298 122.205 245.477 122.138L245.205 121.838ZM268.186 123.582C265.666 122.339 263.028 121.351 260.312 120.632C260.028 120.562 259.745 120.493 259.456 120.435C259.272 120.392 259.083 120.349 258.899 120.317C256.603 119.829 254.246 119.702 251.911 119.94C251.569 119.986 251.232 120.037 250.891 120.099C250.854 120.22 250.811 120.346 250.774 120.462C251.163 120.395 251.557 120.338 251.952 120.292C254.119 120.069 256.307 120.166 258.446 120.579L259.019 120.686C259.423 120.771 259.828 120.861 260.232 120.962C262.925 121.665 265.542 122.634 268.043 123.855C271.79 125.706 275.423 127.779 278.924 130.061C278.977 129.972 279.025 129.883 279.067 129.799C275.567 127.512 271.933 125.436 268.186 123.582ZM270.965 116.79C266.704 116.953 262.549 118.165 258.868 120.317L258.415 120.579C257.485 121.132 256.587 121.736 255.724 122.389C251.21 125.802 247.603 130.196 244.169 134.616C242.449 136.834 240.761 139.067 238.978 141.227C238.852 141.385 238.72 141.537 238.588 141.694L238.787 141.984C238.94 141.805 239.093 141.627 239.24 141.459C241.034 139.294 242.727 137.06 244.452 134.848C247.886 130.443 251.488 126.082 255.954 122.716C256.922 121.982 257.935 121.309 258.987 120.701C259.129 120.612 259.277 120.529 259.424 120.45C260.65 119.767 261.927 119.18 263.245 118.696L264.228 118.341C264.555 118.227 264.896 118.149 265.233 118.05L266.237 117.774L267.289 117.572C268.647 117.27 270.036 117.13 271.426 117.154L271.489 117.154L270.965 116.79ZM238.309 114.86C236.471 115.671 234.55 116.28 232.581 116.677L231.556 116.874C231.214 116.936 230.867 116.956 230.504 117.002L229.453 117.12L228.402 117.159C227.442 117.223 226.478 117.202 225.522 117.098L225.616 117.445C230.057 117.782 234.511 116.993 238.566 115.15C238.508 115.05 238.409 114.955 238.309 114.86ZM230.75 108.311C228.886 109.57 226.952 110.724 224.96 111.768C224.959 111.909 224.959 112.051 224.958 112.199C227.085 111.094 229.142 109.861 231.118 108.506C230.992 108.438 230.871 108.369 230.75 108.311Z" fill="white"/>
<path d="M275.559 127.492C274.856 126.907 274.148 126.337 273.435 125.768C271.988 124.618 270.541 123.473 269.094 122.334C266.21 120.071 263.263 117.886 260.295 115.739C258.611 114.515 256.955 113.228 255.218 112.082C255.21 112.076 255.201 112.071 255.191 112.069C255.181 112.066 255.17 112.065 255.16 112.067C255.15 112.068 255.14 112.072 255.131 112.077C255.122 112.082 255.114 112.089 255.108 112.098C255.102 112.106 255.097 112.115 255.095 112.125C255.092 112.135 255.091 112.146 255.093 112.156C255.094 112.166 255.098 112.176 255.103 112.185C255.108 112.194 255.115 112.202 255.123 112.208C256.502 113.431 257.981 114.55 259.412 115.715C260.843 116.881 262.264 118.052 263.716 119.191C266.604 121.449 269.526 123.663 272.484 125.833C273.307 126.445 274.12 127.089 274.975 127.664C275.41 127.96 275.824 128.287 276.265 128.572C276.706 128.857 277.178 129.1 277.608 129.422C277.618 129.428 277.629 129.429 277.64 129.427C277.652 129.425 277.662 129.419 277.669 129.41C277.676 129.401 277.679 129.39 277.679 129.379C277.678 129.368 277.674 129.357 277.666 129.348C276.948 128.742 276.277 128.083 275.559 127.492Z" fill="#263238"/>
<path d="M249.132 124.761C248.109 127.504 247.265 130.31 246.606 133.162C246.255 134.57 245.978 135.993 245.706 137.411C245.418 138.82 245.224 140.247 245.126 141.682C245.125 141.735 245.204 141.735 245.215 141.682C245.66 140.312 245.99 138.884 246.31 137.481C246.629 136.079 246.991 134.666 247.31 133.28C247.954 130.454 248.709 127.656 249.269 124.814C249.272 124.805 249.274 124.796 249.274 124.786C249.274 124.776 249.271 124.767 249.268 124.758C249.264 124.749 249.258 124.741 249.251 124.735C249.244 124.728 249.236 124.723 249.227 124.719C249.218 124.716 249.209 124.714 249.199 124.714C249.189 124.715 249.18 124.717 249.171 124.721C249.162 124.725 249.154 124.73 249.148 124.737C249.141 124.744 249.136 124.752 249.132 124.761Z" fill="#263238"/>
<path opacity="0.1" d="M261.384 154.788C259.503 156.307 257.698 157.211 256.043 157.185C246.221 157.072 232.104 132.358 227.217 121.686C224.193 115.076 224.184 109.101 226.952 107.822L261.384 154.788Z" fill="black"/>
<path d="M246.079 178.766L182.191 178.579C181.491 177.284 192.123 121.357 213.716 105.66C218.508 102.179 226.983 104.453 229.328 107.86C241.134 124.979 246.079 178.766 246.079 178.766Z" fill="#6DDAD3"/>
<path d="M242.831 153.915C241.237 153.345 239.676 152.69 238.154 151.951C236.018 150.92 233.956 149.779 231.905 148.575L231.606 148.395C229.507 147.144 227.409 145.818 225.353 144.483L225.059 144.293L223.664 143.385C218.943 140.339 214.296 137.204 209.253 134.761C206.76 133.505 204.112 132.586 201.378 132.026C200.006 131.777 198.609 131.695 197.217 131.783C196.87 131.782 196.528 131.854 196.165 131.9C195.929 131.947 195.692 131.978 195.45 132.025C195.487 131.941 195.519 131.862 195.561 131.778C195.751 131.742 195.945 131.711 196.134 131.669C196.481 131.628 196.834 131.577 197.186 131.551C198.591 131.461 200.003 131.541 201.389 131.79C204.153 132.345 206.829 133.266 209.348 134.53C214.418 136.973 219.096 140.108 223.807 143.144L225.191 144.036L225.49 144.226C227.588 145.583 229.687 146.929 231.864 148.202L232.163 148.381C234.156 149.548 236.187 150.658 238.276 151.657C239.735 152.361 241.229 152.988 242.753 153.536L242.831 153.915ZM237.223 127.217L237.007 127.422C232.943 131.356 229.902 136.161 227.034 140.967C226.429 141.992 225.82 143.015 225.207 144.036C225.16 144.125 225.112 144.209 225.059 144.293C224.283 145.594 223.501 146.89 222.688 148.164C221.976 149.287 221.231 150.393 220.44 151.463C220.366 151.563 220.297 151.663 220.224 151.757C219.423 152.832 218.56 153.86 217.64 154.834C216.68 155.846 215.621 156.759 214.478 157.558L214.052 157.856C213.91 157.955 213.752 158.034 213.604 158.123L212.704 158.646C212.084 158.956 211.444 159.226 210.789 159.455C208.135 160.327 205.359 160.768 202.566 160.76C199.783 160.741 197.01 160.417 194.297 159.795C191.671 159.23 189.124 158.477 186.557 157.723C186.556 157.807 186.514 157.891 186.488 157.97C189.05 158.729 191.623 159.493 194.238 160.063C196.983 160.698 199.79 161.03 202.607 161.054C205.432 161.064 208.24 160.622 210.925 159.744C211.595 159.516 212.249 159.242 212.882 158.925L213.803 158.402C213.959 158.319 214.11 158.229 214.256 158.13L214.693 157.826C215.853 157.019 216.928 156.096 217.902 155.071C218.883 154.027 219.802 152.926 220.654 151.774C220.734 151.674 220.802 151.58 220.871 151.48C221.62 150.463 222.327 149.419 222.982 148.36C223.8 147.085 224.566 145.789 225.358 144.493L225.511 144.236L227.344 141.162C230.217 136.362 233.258 131.599 237.279 127.711L237.347 127.649C237.301 127.496 237.259 127.354 237.223 127.217ZM240.218 139.707C239.812 140.232 239.401 140.724 238.984 141.228C237.238 143.41 235.287 145.421 233.159 147.233C232.738 147.563 232.317 147.893 231.88 148.202L231.606 148.395C230.996 148.823 230.358 149.207 229.695 149.546L229.237 149.792C229.084 149.875 228.916 149.933 228.758 150.006L227.8 150.413C227.148 150.646 226.48 150.836 225.802 150.98C224.172 151.324 222.51 151.495 220.844 151.491L220.44 151.49C219.452 151.487 218.464 151.405 217.482 151.297C214.709 150.94 211.985 150.278 209.358 149.323C206.733 148.407 204.145 147.28 201.573 146.148C199.014 144.981 196.384 143.974 193.699 143.134C192.906 142.906 192.124 142.704 191.284 142.554L191.204 142.78C192.023 142.935 192.837 143.132 193.63 143.365C196.299 144.208 198.913 145.216 201.457 146.384C204.029 147.5 206.601 148.632 209.252 149.56C211.902 150.522 214.649 151.192 217.444 151.56C218.369 151.667 219.293 151.738 220.218 151.757C220.355 151.757 220.486 151.758 220.623 151.758C222.387 151.792 224.15 151.631 225.88 151.279C226.571 151.129 227.253 150.936 227.92 150.702L228.899 150.285C229.062 150.211 229.225 150.154 229.383 150.071L229.852 149.82C230.57 149.456 231.26 149.038 231.915 148.57L232.189 148.376C232.589 148.088 232.984 147.785 233.374 147.476C235.524 145.656 237.493 143.634 239.257 141.439C239.608 141.009 239.96 140.574 240.312 140.133C240.281 139.997 240.249 139.849 240.218 139.707ZM233.686 116.434C233.318 116.522 232.95 116.605 232.581 116.677L231.556 116.874C231.214 116.936 230.867 116.956 230.505 117.002L229.453 117.12L228.402 117.159C227.014 117.245 225.621 117.167 224.251 116.926C222.102 116.549 220.022 115.853 218.077 114.864L217.552 114.605C217.185 114.415 216.823 114.214 216.466 114.008C214.065 112.588 211.812 110.93 209.743 109.059L209.512 109.289C211.6 111.181 213.871 112.86 216.292 114.302C216.544 114.45 216.817 114.592 217.058 114.73L217.583 114.994C219.657 116.09 221.888 116.861 224.198 117.278C227.399 117.737 230.659 117.568 233.795 116.781C233.774 116.665 233.728 116.549 233.686 116.434ZM229.966 108.829C227.17 110.693 224.187 112.26 221.066 113.506C219.934 113.944 218.777 114.31 217.6 114.605L217.105 114.73C215.738 115.043 214.35 115.255 212.952 115.364L211.9 115.429C211.554 115.455 211.207 115.427 210.849 115.426L209.798 115.423L208.748 115.336C207.482 115.259 206.228 115.046 205.008 114.7C204.934 114.799 204.86 114.899 204.791 115.004C208.985 116.07 213.38 116.067 217.572 114.994L218.098 114.864C219.147 114.59 220.18 114.256 221.191 113.864C224.328 112.61 227.327 111.033 230.139 109.161L229.966 108.829ZM245.496 173.267C244.971 173.266 244.403 173.311 243.856 173.325L243.814 173.325L243.494 173.351C240.8 173.625 238.18 174.396 235.767 175.624C234.041 176.52 232.391 177.555 230.834 178.721L231.165 178.722C232.65 177.629 234.221 176.657 235.861 175.814C238.295 174.58 240.939 173.816 243.656 173.561L243.85 173.562L243.977 173.562C244.502 173.564 244.996 173.507 245.501 173.514C245.512 173.42 245.507 173.346 245.496 173.267ZM245.762 175.685C245.193 174.958 244.605 174.244 243.998 173.541C243.94 173.467 243.877 173.399 243.814 173.33L243.6 173.078C241.77 170.932 239.664 169.039 237.336 167.447C236.155 166.671 234.882 166.044 233.547 165.58C233.216 165.469 232.87 165.374 232.534 165.278C232.198 165.182 231.846 165.108 231.483 165.059C230.79 164.926 230.081 164.913 229.382 164.843C226.557 164.732 223.737 165.171 221.08 166.138C218.448 167.13 215.932 168.409 213.58 169.952C209.368 172.646 205.528 175.82 201.426 178.635L201.599 178.636C205.68 175.868 209.499 172.752 213.669 170.115C216.013 168.583 218.519 167.316 221.143 166.338C223.773 165.383 226.564 164.951 229.36 165.064C230.049 165.139 230.753 165.152 231.435 165.285C231.782 165.334 232.113 165.434 232.454 165.504C232.796 165.573 233.127 165.69 233.452 165.801C234.768 166.261 236.021 166.882 237.183 167.651C239.49 169.233 241.576 171.116 243.384 173.25C243.415 173.287 243.447 173.319 243.473 173.356L243.656 173.561C244.389 174.42 245.107 175.294 245.798 176.195C245.803 176.027 245.783 175.864 245.752 175.685L245.762 175.685Z" fill="white"/>
<path d="M205.214 112.493C192.163 127.501 174.554 154.025 181.7 159.921C193.448 169.615 227.827 175.296 235.718 176.255C239.122 176.675 246.009 154.434 243.742 151.547C241.475 148.661 205.114 146.521 204.874 144.286C204.736 143.019 210.291 132.021 213.883 118.52C218.012 102.955 208.889 108.263 205.214 112.493Z" fill="#AD6359"/>
<path d="M237.787 149.695C237.787 149.695 248.224 149.647 255.05 149.935C258.859 150.093 265.363 150.953 268.107 152.354C272.211 154.442 288.038 165.813 285.367 169.71C282.945 173.234 270.586 161.742 270.586 161.742C270.586 161.742 284.083 172.239 280.388 175.959C276.693 179.68 264.455 164.835 264.455 164.835C264.455 164.835 278.086 175.911 273.668 179.156C270.329 181.59 258.489 168.774 258.489 168.774C258.489 168.774 270.133 178.389 266.809 181.043C263.122 183.976 251.462 172.832 251.462 172.832C241.882 178.154 235.159 176.768 230.434 175.214C229.326 174.817 237.787 149.695 237.787 149.695Z" fill="#AD6359"/>
<path d="M266.152 157.814C267.783 158.99 269.44 160.167 270.96 161.506C272.48 162.846 273.953 164.19 275.347 165.645C278.758 169.207 280.337 171.966 280.216 171.808C277.474 168.021 272.106 163.228 270.586 161.91C269.066 160.592 267.614 159.205 266.099 157.892C266.063 157.834 266.115 157.787 266.152 157.814Z" fill="#263238"/>
<path d="M261.301 163.217C263.315 164.8 265.376 166.309 267.32 167.991C269.265 169.673 271.896 172.098 273.715 173.901C273.851 174.038 273.713 174.3 273.567 174.169C271.68 172.439 268.875 170.077 266.967 168.368C265.059 166.66 263.22 164.884 261.259 163.254C261.228 163.249 261.27 163.191 261.301 163.217Z" fill="#263238"/>
<path d="M256.287 167.102C259.492 169.377 262.274 172.239 264.935 175.11C265.071 175.253 264.935 175.273 264.767 175.136C261.942 172.421 259.741 170.271 256.208 167.228C256.166 167.165 256.235 167.055 256.287 167.102Z" fill="#263238"/>
<path d="M236.322 149.36C241.083 149.342 255.067 149.346 259.817 149.728C264.02 150.061 267.481 150.975 271 153.319C278.553 158.344 283.412 164.233 284.626 165.971C285.359 167.024 286.421 168.725 285.445 169.899C284.248 171.325 279.864 169.914 275.247 165.712C275.079 165.559 275.184 165.465 275.357 165.608C281.843 170.882 284.43 170.29 285.11 169.394C285.554 168.812 285.115 167.817 284.739 167.028C284.109 165.91 283.339 164.878 282.446 163.957C279.469 160.754 276.175 157.862 272.613 155.326C268.797 152.46 264.246 150.735 259.489 150.353C254.624 149.939 241.16 150.026 236.3 149.544C236.2 149.512 236.217 149.365 236.322 149.36Z" fill="#263238"/>
<path d="M281.167 173.86C280.902 172.561 279.97 171.371 279.233 170.296C278.336 168.945 277.306 167.686 276.159 166.54C276.112 166.493 276.022 166.54 276.069 166.614C277.046 167.763 277.953 168.969 278.786 170.227C279.229 170.919 279.63 171.636 279.989 172.375C280.328 173.085 280.73 173.906 280.549 174.715C280.208 176.259 278.243 176.216 277.083 175.798C276.331 175.512 275.607 175.158 274.921 174.74C273.985 174.141 273.098 173.468 272.267 172.73C272.199 172.667 272.01 172.693 272.083 172.761C273.813 174.417 277.087 177.858 279.771 176.61C280.286 176.384 280.707 175.986 280.961 175.485C281.216 174.983 281.288 174.409 281.167 173.86Z" fill="#263238"/>
<path d="M237.949 148.346L225.364 176.687C225.364 176.687 181.701 166.695 179.192 158.395C176.683 150.095 190.438 127.948 202.834 114.131C215.023 100.556 216.794 109.794 213.741 120.312C210.689 130.829 205.697 142.949 206.247 143.86C206.796 144.77 237.949 148.346 237.949 148.346Z" fill="#6DDAD3"/>
<path d="M209.086 134.403C209.054 134.482 209.027 134.566 208.996 134.645C206.572 133.444 204.002 132.563 201.352 132.026C199.979 131.777 198.582 131.695 197.19 131.783C196.843 131.782 196.502 131.854 196.139 131.9C195.776 131.947 195.455 132.004 195.119 132.097C194.435 132.242 193.788 132.503 193.12 132.706C190.542 133.679 188.175 135.138 186.149 137.006L186.482 136.434C188.414 134.738 190.636 133.404 193.042 132.496C193.715 132.288 194.373 132.021 195.067 131.876C195.409 131.783 195.761 131.742 196.118 131.669C196.476 131.597 196.818 131.577 197.17 131.551C198.575 131.461 199.987 131.541 201.373 131.79C204.047 132.322 206.639 133.2 209.086 134.403ZM232.168 148.381L231.869 148.202L230.673 147.489L229.948 147.403C230.472 147.735 231.044 148.073 231.595 148.395L231.894 148.575C233.468 149.499 235.042 150.387 236.658 151.216L236.785 150.928C235.232 150.119 233.695 149.269 232.168 148.381ZM223.644 146.617C223.327 147.141 223.005 147.666 222.678 148.164C221.965 149.287 221.221 150.394 220.429 151.463C220.355 151.563 220.287 151.663 220.213 151.757C219.412 152.832 218.549 153.86 217.629 154.834C216.669 155.846 215.61 156.759 214.468 157.558L214.041 157.856C213.899 157.955 213.741 158.034 213.594 158.123L212.693 158.646C212.073 158.956 211.433 159.227 210.778 159.455C208.125 160.327 205.348 160.768 202.555 160.76C199.775 160.74 197.006 160.417 194.297 159.795C191.56 159.204 188.877 158.403 186.184 157.612C183.795 156.911 181.39 156.205 178.932 155.741C178.931 155.825 178.931 155.909 178.931 155.988C181.363 156.452 183.741 157.163 186.12 157.858C188.808 158.655 191.502 159.451 194.249 160.063C196.994 160.698 199.8 161.03 202.617 161.055C205.442 161.064 208.25 160.622 210.935 159.744C211.605 159.516 212.259 159.242 212.892 158.925L213.813 158.402C213.969 158.319 214.12 158.229 214.266 158.13L214.703 157.826C215.863 157.019 216.938 156.096 217.912 155.072C218.893 154.027 219.812 152.926 220.665 151.774C220.744 151.674 220.812 151.58 220.881 151.48C221.63 150.463 222.338 149.419 222.992 148.36C223.351 147.804 223.7 147.237 224.048 146.676L223.644 146.617ZM232.533 147.694C232.317 147.861 232.095 148.029 231.869 148.186L231.595 148.38C230.986 148.807 230.347 149.192 229.684 149.53L229.226 149.776C229.073 149.859 228.905 149.917 228.747 149.99L227.79 150.397C227.137 150.631 226.469 150.82 225.791 150.964C224.161 151.308 222.5 151.479 220.834 151.475L220.429 151.474C219.441 151.471 218.453 151.389 217.471 151.281C214.699 150.924 211.974 150.262 209.347 149.308C206.722 148.391 204.134 147.264 201.563 146.132C199.003 144.965 196.373 143.958 193.689 143.119C190.995 142.338 188.121 141.909 185.329 142.448C184.441 142.624 183.581 142.92 182.773 143.328C182.72 143.433 182.667 143.543 182.619 143.648C183.484 143.191 184.411 142.86 185.371 142.669C188.116 142.151 190.952 142.569 193.62 143.35C196.289 144.192 198.903 145.2 201.446 146.368C204.018 147.484 206.59 148.616 209.241 149.544C211.894 150.512 214.644 151.188 217.444 151.56C218.368 151.667 219.293 151.738 220.218 151.757C220.355 151.757 220.486 151.758 220.623 151.758C222.387 151.792 224.15 151.631 225.879 151.28C226.571 151.129 227.252 150.936 227.92 150.702L228.899 150.285C229.062 150.212 229.225 150.154 229.383 150.071L229.851 149.82C230.57 149.456 231.26 149.038 231.915 148.57L232.189 148.376C232.463 148.177 232.716 147.968 233.011 147.758L232.533 147.694ZM209.764 109.033C209.539 108.832 209.319 108.637 209.099 108.432L208.814 108.615L209.548 109.274C211.254 110.811 213.078 112.213 215.001 113.468C215.002 113.336 215.002 113.205 215.002 113.079C213.161 111.868 211.414 110.521 209.775 109.048L209.764 109.033ZM212.941 115.348L211.89 115.414C211.543 115.439 211.196 115.411 210.839 115.41L209.788 115.407L208.737 115.32C207.347 115.233 205.973 114.986 204.64 114.583C204.057 114.408 203.48 114.206 202.913 113.974L202.786 114.115L202.665 114.251C203.277 114.51 203.902 114.735 204.539 114.924C207.865 115.823 211.34 116.026 214.748 115.522C214.749 115.39 214.786 115.264 214.807 115.133C214.224 115.247 213.587 115.319 212.951 115.364L212.941 115.348ZM229.382 164.827C226.556 164.721 223.736 165.166 221.08 166.138C218.447 167.13 215.932 168.409 213.58 169.952C212.264 170.8 210.979 171.689 209.71 172.605L209.914 172.664C211.147 171.779 212.395 170.926 213.674 170.115C216.018 168.583 218.524 167.316 221.148 166.338C223.778 165.384 226.569 164.951 229.365 165.064C229.728 165.102 230.09 165.124 230.453 165.156L230.553 164.936C230.18 164.903 229.781 164.881 229.392 164.843L229.382 164.827Z" fill="white"/>
<path d="M220.364 171.98C220.792 171.172 221.204 170.363 221.617 169.55C222.445 167.902 223.269 166.251 224.091 164.596C225.719 161.311 227.263 157.984 228.75 154.625C229.601 152.725 230.526 150.846 231.294 148.909C231.303 148.89 231.304 148.867 231.297 148.847C231.29 148.827 231.275 148.81 231.255 148.801C231.236 148.792 231.213 148.791 231.193 148.798C231.173 148.806 231.156 148.821 231.147 148.84C230.233 150.441 229.44 152.115 228.595 153.757C227.749 155.4 226.887 157.026 226.073 158.685C224.452 161.97 222.88 165.281 221.356 168.619C220.928 169.553 220.463 170.477 220.076 171.432C219.875 171.92 219.643 172.393 219.447 172.886C219.251 173.379 219.102 173.884 218.917 174.372C218.914 174.377 218.913 174.383 218.913 174.388C218.913 174.394 218.913 174.4 218.915 174.405C218.917 174.41 218.92 174.415 218.924 174.42C218.928 174.424 218.933 174.427 218.938 174.43C218.943 174.432 218.949 174.433 218.954 174.434C218.96 174.434 218.966 174.433 218.971 174.431C218.976 174.429 218.981 174.426 218.986 174.422C218.99 174.419 218.993 174.414 218.996 174.409C219.424 173.595 219.925 172.809 220.364 171.98Z" fill="#263238"/>
<path d="M226.31 174.74L225.426 176.723L225.4 176.786L225.316 176.786C221.182 176.007 217.075 175.075 212.995 174.038C208.915 173.002 204.867 171.828 200.861 170.524C196.84 169.24 192.898 167.723 189.055 165.98C187.126 165.106 185.264 164.092 183.483 162.948C182.594 162.364 181.754 161.71 180.971 160.991C180.164 160.294 179.546 159.405 179.176 158.405C179.638 159.344 180.315 160.162 181.15 160.791C181.978 161.431 182.857 162.001 183.778 162.497C185.601 163.517 187.483 164.426 189.415 165.219C193.272 166.834 197.236 168.212 201.221 169.505C205.206 170.799 209.228 172.004 213.26 173.162C217.293 174.319 221.342 175.466 225.395 176.566L225.29 176.618L226.31 174.74Z" fill="#263238"/>
<path d="M237.447 149.448L237.886 148.319L237.934 148.398C233.551 148.097 229.175 147.732 224.799 147.262C220.422 146.792 216.072 146.28 211.723 145.615C210.635 145.444 209.548 145.262 208.461 145.049C207.936 144.937 207.374 144.83 206.812 144.671C206.67 144.628 206.534 144.586 206.381 144.527C206.294 144.499 206.21 144.461 206.129 144.416C206.068 144.383 206.01 144.344 205.956 144.3C205.9 144.253 205.852 144.196 205.815 144.132C205.794 144.091 205.774 144.048 205.757 144.005C205.754 143.984 205.754 143.963 205.758 143.942C205.737 143.742 205.748 143.54 205.791 143.343C205.818 143.201 205.844 143.049 205.882 142.918C206.445 140.739 207.155 138.681 207.876 136.617C209.318 132.465 210.885 128.365 212.537 124.291C211.258 128.492 209.948 132.692 208.642 136.893C208.016 138.993 207.327 141.093 206.842 143.194C206.811 143.325 206.794 143.446 206.768 143.572C206.741 143.698 206.767 143.845 206.741 143.793C206.715 143.74 206.741 143.793 206.741 143.793C206.735 143.765 206.724 143.738 206.71 143.714C206.71 143.661 206.615 143.608 206.636 143.619C206.61 143.619 206.657 143.63 206.636 143.619L206.767 143.672L207.114 143.783C207.639 143.922 208.164 144.023 208.69 144.13C209.74 144.327 210.838 144.498 211.915 144.665C214.079 144.997 216.247 145.31 218.418 145.603L224.937 146.5C229.282 147.091 233.626 147.724 237.97 148.372L238.049 148.372L238.017 148.441L237.447 149.448Z" fill="#263238"/>
<path d="M212.996 126.983C212.686 127.724 212.294 128.428 211.829 129.082C211.391 129.752 210.858 130.354 210.247 130.87C210.648 130.172 211.076 129.511 211.53 128.855C211.97 128.195 212.461 127.569 212.996 126.983Z" fill="#263238"/>
<path d="M225.758 117.315C222.045 118.355 215.376 112.907 212.646 108.374C212.458 108.063 213.241 95.2845 213.133 92.7354C213.135 92.2099 229.279 95.9358 229.279 95.9358C229.279 95.9358 227.933 101.345 228.152 105.786C228.166 106.165 229.34 116.306 225.758 117.315Z" fill="#AD6359"/>
<path d="M212.863 100.738C220.409 106.1 227.783 104.072 228.094 103.978C228.226 101.27 228.609 98.579 229.237 95.9409C229.237 95.9409 213.061 92.2148 213.086 92.7404C213.177 93.9337 213.035 97.3808 212.863 100.738Z" fill="#263238"/>
<path d="M229.23 85.4098C229.635 89.1843 232.648 91.9574 235.955 91.5992C239.262 91.241 241.621 87.9003 241.232 84.1311C240.844 80.3618 237.82 77.5834 234.508 77.9416C231.196 78.2998 228.826 81.6405 229.23 85.4098Z" fill="#455A64"/>
<path d="M227.316 85.8561C227.766 90.0617 231.116 93.1353 234.795 92.7415C238.475 92.3476 241.114 88.6293 240.648 84.4289C240.182 80.2285 236.854 77.1496 233.169 77.5435C229.484 77.9374 226.866 81.661 227.316 85.8561Z" fill="#C7C7C7"/>
<path d="M210.951 73.5266C209.169 79.1867 212.016 95.6022 216.015 99.2926C221.817 104.644 231.391 105.234 235.952 98.2473C240.376 91.4704 236.286 70.148 231.808 66.7873C225.217 61.828 213.582 65.1731 210.951 73.5266Z" fill="#AD6359"/>
<path d="M224.552 83.8665C224.553 83.8297 224.479 83.9346 224.489 83.982C224.728 85.0758 224.824 86.3741 223.897 86.9285C223.866 86.9284 223.897 87.002 223.897 86.9863C225.102 86.5851 224.959 84.8662 224.552 83.8665Z" fill="#263238"/>
<path d="M223.352 82.9013C221.554 83.101 222.085 86.6867 223.751 86.5024C225.418 86.3181 224.86 82.7376 223.352 82.9013Z" fill="#263238"/>
<path d="M230.935 83.0234C230.935 82.9814 231.029 83.0657 231.034 83.113C231.163 84.2275 231.501 85.4793 232.556 85.7031C232.588 85.7032 232.598 85.7663 232.556 85.7662C231.3 85.773 230.879 84.1006 230.935 83.0234Z" fill="#263238"/>
<path d="M231.753 81.7066C233.52 81.3071 234.188 84.8669 232.552 85.2405C230.917 85.6141 230.26 82.0543 231.753 81.7066Z" fill="#263238"/>
<path d="M221.695 81.4721C222.147 81.2655 222.586 81.0334 223.011 80.777C223.508 80.597 223.932 80.2585 224.217 79.8136C224.279 79.656 224.288 79.4823 224.241 79.3196C224.193 79.1569 224.094 79.0143 223.957 78.9141C223.659 78.7564 223.323 78.6814 222.986 78.6971C222.649 78.7127 222.322 78.8184 222.039 79.0031C221.405 79.2868 220.899 79.7969 220.621 80.4337C220.565 80.5823 220.554 80.744 220.589 80.8988C220.624 81.0536 220.704 81.1948 220.818 81.3051C220.932 81.4155 221.076 81.49 221.232 81.5197C221.388 81.5494 221.549 81.5328 221.695 81.4721Z" fill="#263238"/>
<path d="M232.894 79.7079C232.398 79.6819 231.903 79.6296 231.413 79.5511C230.885 79.5695 230.366 79.4127 229.937 79.1054C229.82 78.9823 229.746 78.8235 229.728 78.6541C229.711 78.4847 229.75 78.3143 229.84 78.1696C230.061 77.9133 230.346 77.72 230.665 77.6093C230.985 77.4986 231.328 77.4743 231.66 77.5391C232.354 77.5699 233.011 77.8586 233.503 78.3485C233.608 78.4657 233.677 78.6111 233.702 78.7668C233.726 78.9226 233.705 79.0821 233.641 79.226C233.576 79.37 233.471 79.4921 233.339 79.5776C233.206 79.6632 233.052 79.7084 232.894 79.7079Z" fill="#263238"/>
<path d="M225.131 94.2685C225.436 94.4901 225.755 94.7959 226.181 94.7971C226.593 94.7288 226.985 94.5741 227.333 94.3433C227.34 94.3356 227.349 94.3308 227.358 94.3298C227.368 94.3289 227.378 94.3319 227.386 94.3382C227.393 94.3444 227.398 94.3535 227.399 94.3634C227.4 94.3732 227.397 94.3831 227.391 94.3907C227.266 94.6335 227.076 94.8375 226.843 94.9804C226.61 95.1233 226.343 95.1997 226.069 95.2014C225.835 95.1769 225.613 95.0831 225.432 94.9319C225.25 94.7807 225.118 94.5789 225.052 94.3523C225.005 94.2997 225.084 94.2368 225.131 94.2685Z" fill="#263238"/>
<path d="M225.804 90.776C226.151 91.1728 226.576 91.4937 227.053 91.7185C227.53 91.9433 228.048 92.0671 228.575 92.0821C229.037 92.1017 229.499 92.0552 229.947 91.9443C230.034 91.9287 230.118 91.9043 230.2 91.8714C230.28 91.8512 230.359 91.8269 230.436 91.7985C230.494 91.7793 230.544 91.7417 230.578 91.6915C230.612 91.6413 230.629 91.5813 230.626 91.5206C230.623 91.4826 230.615 91.4454 230.6 91.4101L230.601 91.3155C230.493 90.4586 230.218 89.1702 230.218 89.1702C230.554 89.2816 232.255 89.7595 232.162 89.3178C231.395 85.6368 230.54 81.5772 229 78.0989C228.989 78.076 228.971 78.0576 228.948 78.047C228.925 78.0365 228.899 78.0345 228.875 78.0414C228.851 78.0484 228.83 78.0638 228.816 78.0848C228.802 78.1059 228.797 78.1312 228.8 78.1561C229.399 81.7053 230.619 85.1248 231.281 88.6741C230.676 88.4946 230.048 88.4025 229.416 88.4006C229.3 88.4528 229.992 90.8776 230.007 91.2665C230.01 91.2803 230.01 91.2947 230.007 91.3085C228.597 91.7038 227.452 91.4324 225.915 90.6764C225.799 90.6235 225.726 90.6969 225.804 90.776Z" fill="#263238"/>
<path d="M229.375 91.5849C229 92.2639 228.455 92.8344 227.794 93.2409C227.425 93.4496 227.001 93.5401 226.579 93.5002C225.66 93.3976 225.531 92.5879 225.575 91.8681C225.611 91.4854 225.691 91.1082 225.815 90.7441C226.882 91.3962 228.129 91.6907 229.375 91.5849Z" fill="#263238"/>
<path d="M227.789 93.2566C227.42 93.4653 226.996 93.5558 226.574 93.5158C225.655 93.4133 225.526 92.6036 225.57 91.8837C226.553 91.8235 227.571 92.331 227.789 93.2566Z" fill="#FF99BA"/>
<path opacity="0.2" d="M213.624 79.3625C212.973 80.9897 211.632 84.8117 210.875 85.0775C210.17 79.757 210.158 74.9326 211.486 71.9725C212.035 70.7499 212.804 69.6388 213.755 68.6945C213.862 70.1191 214.318 77.6618 213.624 79.3625Z" fill="#263238"/>
<path d="M227.862 71.7998C227.41 72.5783 226.765 73.2277 225.99 73.6856C225.214 74.1434 224.335 74.3944 223.434 74.4145C222.518 74.4357 221.612 74.2226 220.801 73.7954C219.99 73.3681 219.302 72.7408 218.801 71.9729C218.798 71.9681 218.795 71.9639 218.79 71.9604C218.786 71.957 218.781 71.9545 218.776 71.953C218.77 71.9515 218.765 71.9511 218.759 71.9518C218.754 71.9525 218.748 71.9543 218.743 71.957C218.739 71.9598 218.734 71.9634 218.731 71.9678C218.727 71.9722 218.725 71.9772 218.723 71.9826C218.722 71.988 218.722 71.9936 218.722 71.9991C218.723 72.0046 218.725 72.0099 218.727 72.0148C219.182 72.8715 219.862 73.5875 220.694 74.0855C221.527 74.5835 222.479 74.8445 223.449 74.8402C224.399 74.7894 225.319 74.4895 226.117 73.9707C226.914 73.4518 227.561 72.7322 227.993 71.8842C228.004 71.8668 228.008 71.8457 228.004 71.8255C227.999 71.8053 227.987 71.7876 227.97 71.7764C227.952 71.7652 227.931 71.7614 227.911 71.7658C227.891 71.7701 227.873 71.7824 227.862 71.7998Z" fill="#263238"/>
<path d="M238.849 63.3765C238.096 61.9778 236.872 60.8907 235.395 60.3078C233.348 59.4924 231.291 60.0277 229.256 60.6051C229.245 60.6051 229.234 60.6095 229.226 60.6173C229.218 60.6252 229.214 60.6359 229.214 60.647C229.214 60.6582 229.218 60.6689 229.226 60.6768C229.234 60.6847 229.244 60.6892 229.255 60.6892C230.986 60.2055 232.774 59.8166 234.538 60.3578C235.998 60.7993 237.262 61.7311 238.114 62.9959C238.946 64.3055 239.279 65.8707 239.051 67.4053C238.824 68.9399 238.052 70.3414 236.876 71.3536C236.183 71.9187 235.382 72.3362 234.522 72.5805C233.662 72.8247 232.761 72.8904 231.874 72.7736C231.806 72.7734 231.774 72.8679 231.847 72.8786C233.054 73.087 234.295 72.9548 235.43 72.4969C236.566 72.0389 237.552 71.2735 238.276 70.2864C239.001 69.2993 239.436 68.1298 239.532 66.9092C239.629 65.6885 239.383 64.4651 238.823 63.3764L238.849 63.3765Z" fill="#263238"/>
<path d="M210.463 76.7995C210.463 76.7995 206.678 71.9062 208.528 68.3853C209.584 66.3861 214.111 65.8475 214.111 65.8475C214.111 65.8475 215.169 63.533 218.752 62.0405C222.335 60.548 227.162 61.445 227.162 61.445C227.162 61.445 230.381 58.7847 234.056 60.1198C239.18 61.9847 239.81 69.1916 235.513 72.2796C232.49 74.4518 227.514 72.3035 227.514 72.3035C227.093 72.4337 223.142 75.8486 219.137 72.4892C219.137 72.4892 216.842 75.3624 214.118 74.0932C213.858 74.8634 213.368 75.5355 212.715 76.0192C212.062 76.503 211.276 76.7753 210.463 76.7995Z" fill="#263238"/>
<path d="M214.333 86.9112C214.333 86.9112 210.57 81.6448 208.18 82.999C205.79 84.3531 208.679 91.9976 211.493 92.9938C211.846 93.1504 212.227 93.2341 212.614 93.2398C213 93.2455 213.384 93.173 213.741 93.0269C214.099 92.8807 214.424 92.6637 214.695 92.3891C214.967 92.1144 215.181 91.7876 215.323 91.4284L214.333 86.9112Z" fill="#AD6359"/>
<path d="M209.057 85.1769C209.009 85.1767 209.004 85.2345 209.056 85.2504C211.046 86.0341 212.107 87.8555 212.858 89.7496C212.262 89.0226 211.459 88.6314 210.484 89.3433C210.432 89.3799 210.484 89.4589 210.537 89.4485C210.883 89.3392 211.255 89.3391 211.601 89.4482C211.948 89.5573 212.253 89.7704 212.474 90.0586C212.846 90.5488 213.164 91.0784 213.421 91.6379C213.515 91.8116 213.83 91.7127 213.763 91.5128L213.763 91.4655C213.77 88.9114 211.768 85.4003 209.057 85.1769Z" fill="#263238"/>
<path d="M211.196 83.2236C211.196 83.2236 209.175 75.0719 210.782 70.084C212.569 64.5396 219.265 59.1252 227.151 61.4554C227.151 61.4554 218.388 62.5596 214.109 69.8678C212.145 73.2254 213.992 82.9427 213.992 82.9427L211.196 83.2236Z" fill="#C7C7C7"/>
<path d="M219.67 85.9913C220.456 90.1979 218.117 94.1535 214.436 94.847C210.755 95.5404 207.127 92.7235 206.335 88.5169C205.543 84.3103 207.888 80.3546 211.569 79.6612C215.25 78.9677 218.878 81.7952 219.67 85.9913Z" fill="#C7C7C7"/>
<path d="M217.683 86.1221C218.392 89.8923 216.284 93.4755 212.977 94.0807C209.67 94.6859 206.408 92.1433 205.699 88.3784C204.99 84.6135 207.092 81.025 210.4 80.4198C213.707 79.8146 216.969 82.3467 217.683 86.1221Z" fill="#455A64"/>
<path d="M8.89157 178.072L73.352 178.26L60.7165 103.457L12.5157 103.316L8.89157 178.072Z" fill="#DBDBDB"/>
<path d="M8.89157 178.072L14.5409 178.088L17.9339 103.331L12.5157 103.316L8.89157 178.072Z" fill="#A6A6A6"/>
<path d="M47.4113 70.809C41.4082 76.7455 39.6611 86.5519 39.6611 86.5519C39.6611 86.5519 33.8935 96.4096 35.4806 101.78C35.9002 103.302 36.6827 104.7 37.7612 105.854C38.8398 107.008 40.182 107.883 41.6729 108.404L41.114 105.438C41.114 105.438 43.0263 109.254 49.4489 110.807C55.8715 112.36 64.3801 110.409 68.8115 108.184C71.438 106.878 73.6815 104.915 75.3236 102.485L73.6557 106.789C73.6557 106.789 79.8942 106.587 83.6185 99.9605C87.3428 93.3341 76.729 83.7648 75.8311 81.7074C74.9333 79.6499 73.8314 64.6746 58.0741 67.2088C58.0953 67.1721 51.5644 66.722 47.4113 70.809Z" fill="#263238"/>
<path d="M39.4196 107.972C37.7835 106.743 36.169 105.335 35.2701 103.598C34.2897 101.797 33.9458 99.7188 34.2941 97.6986C34.7374 95.2772 36.0207 93.142 37.2671 91.0593C38.5134 88.9766 40.0121 86.8631 41.264 84.6752C41.3327 84.5546 41.1491 84.4542 41.0647 84.5485C39.6605 86.1879 38.3501 87.9053 37.1397 89.6925C35.902 91.3264 34.8597 93.0995 34.0341 94.9756C33.2625 96.703 33.0051 98.6163 33.2927 100.486C33.5983 102.006 34.2686 103.43 35.2461 104.633C36.4033 106.082 37.8668 107.011 39.3351 108.103C39.419 108.172 39.5087 108.041 39.4196 107.972Z" fill="#263238"/>
<path d="M84.9894 93.1018C83.1136 87.5835 78.1839 84.069 75.1657 79.2515C73.5441 76.6454 72.286 73.7618 70.1695 71.4958C70.1119 71.4326 70.0065 71.5321 70.0589 71.5953C71.7977 73.6342 72.7995 76.0862 74.0539 78.439C75.3909 80.7546 76.9549 82.9315 78.7226 84.9377C81.8333 88.6886 85.5569 93.1298 84.8268 98.3672C84.4887 100.784 83.0514 103.46 80.5687 104.204C80.474 104.235 80.5314 104.393 80.6261 104.351C81.6055 103.961 82.4952 103.376 83.241 102.631C83.9868 101.886 84.573 100.997 84.9639 100.018C85.8063 97.791 85.8153 95.3347 84.9894 93.1018Z" fill="#263238"/>
<path d="M85.2109 94.5843C85.3877 92.4968 84.9127 90.4059 83.8515 88.5997C82.7689 86.8202 81.0647 85.5329 79.36 84.3823C77.3931 83.068 75.3209 81.8164 74.0763 79.7369C74.024 79.6474 73.8976 79.7364 73.9446 79.8258C75.9211 83.2581 79.7107 84.8668 82.2406 87.7594C85.1476 91.063 85.1389 95.8611 83.1203 99.6233C81.8377 101.916 80.0313 103.874 77.8483 105.336C77.8115 105.336 77.848 105.415 77.8901 105.389C81.6128 102.961 84.8978 99.2185 85.2109 94.5843Z" fill="#263238"/>
<path d="M61.3205 119.629C77.2445 128.431 96.3045 139.475 108.01 136.924C113.2 135.793 136.581 105.329 137.579 101.8C138.434 98.7704 117.381 86.5008 115.019 88.8851C111.035 92.8832 100.227 115.428 98.6493 115.802C97.0716 116.176 83.6893 113.42 69.7599 110.861C56.3556 108.415 50.2656 113.521 61.3205 119.629Z" fill="#EB9481"/>
<path d="M135.303 105.599C137.128 103.313 144.581 92.0991 145.953 88.5137C147.325 84.9283 150.54 74.3377 147.906 72.9952C145.272 71.6526 144.096 74.671 144.096 74.671C144.096 74.671 144.746 69.9799 141.969 68.8839C139.192 67.7879 137.497 72.5496 137.497 72.5496C137.497 72.5496 137.81 67.684 134.959 66.7613C132.108 65.8385 131.211 70.9546 131.211 70.9546C131.211 70.9546 131.707 66.5205 129.047 66.744C125.851 67.0447 125.869 75.3271 124.05 79.1687C123.637 80.0399 114.43 96.2624 114.43 96.2624L135.303 105.599Z" fill="#EB9481"/>
<path d="M131.275 70.5396C131.257 76.6305 130.198 79.2971 127.03 84.3645C126.967 84.4589 127.098 84.5749 127.177 84.4805C130.764 79.8032 132.571 76.6553 131.59 70.5247C131.523 70.225 131.276 70.2505 131.275 70.5396Z" fill="#263238"/>
<path d="M137.466 72.0711C136.922 78.3759 135.789 81.2945 132.825 86.8512C132.782 86.9299 132.914 87.0092 132.961 86.9305C136.324 81.727 138.057 78.5368 137.781 72.1508C137.798 71.8618 137.494 71.7821 137.466 72.0711Z" fill="#263238"/>
<path d="M143.916 74.9487C142.937 81.0315 141.845 84.2656 138.277 89.2898C138.268 89.3012 138.261 89.3143 138.257 89.3283C138.253 89.3424 138.251 89.3572 138.252 89.3718C138.254 89.3865 138.258 89.4007 138.265 89.4137C138.272 89.4267 138.281 89.4382 138.293 89.4475C138.304 89.4569 138.317 89.4639 138.331 89.4682C138.345 89.4725 138.36 89.4739 138.375 89.4725C138.389 89.4711 138.404 89.4668 138.417 89.4599C138.43 89.453 138.441 89.4436 138.45 89.4322C142.59 84.662 143.984 80.6405 144.1 74.9966C144.096 74.6182 143.981 74.5653 143.916 74.9487Z" fill="#263238"/>
<path d="M109.911 98.0882C109.911 98.0882 109.486 90.472 110.043 87.0839C110.599 83.6959 117.303 71.8279 119.927 73.1284C123.343 74.8149 120.819 82.4277 119.095 85.9963C119.095 85.9963 126.999 89.8768 126.372 95.7347C125.745 101.593 109.911 98.0882 109.911 98.0882Z" fill="#EB9481"/>
<path d="M120.734 73.8982C122.741 77.6826 120.184 82.221 118.765 85.8062C118.742 85.858 118.731 85.9147 118.735 85.9713C118.738 86.0279 118.755 86.0829 118.785 86.1315C118.814 86.1801 118.855 86.2209 118.903 86.2504C118.951 86.28 119.006 86.2973 119.063 86.3011C122.268 88.1499 126.252 91.6931 126.582 95.583C126.582 95.6067 126.592 95.6295 126.608 95.6463C126.625 95.6631 126.648 95.6726 126.671 95.6726C126.695 95.6727 126.718 95.6634 126.735 95.6466C126.751 95.6299 126.761 95.6072 126.761 95.5836C126.973 91.3799 123.342 87.5644 119.706 85.7617C121.209 82.0874 123.582 77.4433 120.791 73.8773C120.755 73.8614 120.723 73.8771 120.734 73.8982Z" fill="#263238"/>
<path d="M94.8585 114.545L75.6142 130.58C75.6142 130.58 63.913 124.45 55.2783 117.42C46.6435 110.389 56.2389 107.012 71.0932 109.552C85.9475 112.091 94.8585 114.545 94.8585 114.545Z" fill="#6DDAD3"/>
<path d="M72.1101 117.711C71.5684 116.967 70.9406 116.289 70.2399 115.692C71.0124 117.365 72.1311 118.855 73.5222 120.064C73.1479 119.226 72.6738 118.435 72.1101 117.711ZM55.2939 117.43L55.5246 117.61C55.6775 117.447 55.8304 117.274 55.9728 117.085C55.7308 117.195 55.5044 117.31 55.2833 117.451L55.2939 117.43ZM87.4297 117.629C86.5219 117.493 85.6015 117.462 84.6867 117.537C85.5436 117.863 86.4352 118.09 87.3439 118.212C88.2512 118.353 89.1719 118.385 90.0869 118.31C89.227 117.98 88.3317 117.752 87.4192 117.629L87.4297 117.629ZM81.0207 111.388C81.0078 111.739 81.019 112.09 81.0544 112.439C81.1835 112.124 81.2932 111.802 81.383 111.473L81.0207 111.388Z" fill="white"/>
<path d="M71.3254 127.131C75.2411 123.39 79.424 119.918 83.6644 116.536C84.8654 115.583 86.0874 114.651 87.3513 113.756C87.3882 113.73 87.4354 113.756 87.3985 113.803C85.4066 115.632 83.3362 117.376 81.2762 119.13C79.2162 120.885 77.13 122.639 75.0176 124.341C73.8218 125.304 72.6313 126.268 71.4198 127.205C71.3461 127.242 71.278 127.178 71.3254 127.131Z" fill="#263238"/>
<path d="M83.7908 123.768L75.6094 130.576C75.6094 130.576 63.9079 124.45 55.2729 117.42C52.2059 114.925 51.4393 112.894 52.3843 111.42L83.7908 123.768Z" fill="#263238"/>
<path d="M79.6794 178.216L18.5035 178.037C18.5035 178.037 31.9441 126.748 44.2889 112.332C44.5631 112.002 44.8478 111.687 45.1325 111.394C45.1905 111.326 45.2432 111.279 45.3012 111.221C46.2565 110.206 47.3678 109.351 48.5931 108.687C48.8089 108.572 49.0247 108.462 49.2509 108.368C53.987 106.201 58.9952 108.024 62.5965 111.124C63.7393 112.105 76.6597 129.033 77.7655 135.453C78.7421 141.137 74.888 147.227 74.888 147.227L79.6794 178.216Z" fill="#6DDAD3"/>
<path d="M65.7294 145.003C63.1238 145.25 60.5402 145.69 58.0002 146.321C56.7379 146.654 55.507 147.039 54.2708 147.45C53.6553 147.659 53.0399 147.846 52.4192 148.028C51.773 148.237 51.1037 148.365 50.4263 148.411C50.4138 148.411 50.4018 148.416 50.3929 148.425C50.384 148.434 50.379 148.446 50.3789 148.459C50.3789 148.471 50.3838 148.483 50.3927 148.492C50.4015 148.501 50.4135 148.506 50.4261 148.506C51.0676 148.535 51.7103 148.519 52.3497 148.459C52.9653 148.384 53.5749 148.266 54.1743 148.107C55.4576 147.78 56.72 147.4 57.998 147.067C60.5751 146.392 63.1469 145.716 65.7655 145.224C65.7948 145.219 65.821 145.203 65.8383 145.179C65.8556 145.155 65.8626 145.125 65.8578 145.096C65.853 145.067 65.8368 145.04 65.8127 145.023C65.7886 145.006 65.7586 144.999 65.7294 145.003Z" fill="#263238"/>
<path d="M72.1869 147.277C70.0376 147.064 67.878 146.972 65.7184 147C64.6672 147.024 63.5686 147.105 62.491 147.212C61.9653 147.268 61.4396 147.33 60.9559 147.396C60.4722 147.463 59.8411 147.619 59.2786 147.686C59.2208 147.686 59.2205 147.786 59.2783 147.78C59.804 147.735 60.3556 147.784 60.8918 147.759L62.5053 147.706C63.5564 147.677 64.6549 147.654 65.7324 147.61C67.8873 147.527 70.0369 147.465 72.1916 147.45C72.3072 147.456 72.2972 147.288 72.1869 147.277Z" fill="#263238"/>
<path d="M38.4412 124.381C38.1532 124.012 37.86 123.649 37.5404 123.327L37.313 123.799C37.5223 124.126 37.7473 124.447 37.9776 124.758C38.5199 125.497 39.1477 126.169 39.8479 126.76C39.4668 125.918 38.9951 125.12 38.4412 124.381ZM45.5804 110.938C45.4709 111.758 45.4509 112.588 45.5206 113.413C45.8496 112.552 46.0728 111.654 46.1853 110.74C46.1857 110.603 46.2229 110.461 46.2391 110.325C46.0178 110.519 45.7965 110.723 45.5804 110.938ZM64.097 128.092C63.7672 128.952 63.5388 129.847 63.4165 130.76C63.2814 131.67 63.2488 132.592 63.3191 133.508C63.6516 132.65 63.8767 131.754 63.9891 130.841C64.136 129.932 64.1722 129.01 64.097 128.092ZM52.3175 157.656C51.9912 158.512 51.7663 159.404 51.6476 160.313C51.5117 161.222 51.4808 162.144 51.5555 163.061C52.1851 161.332 52.4448 159.491 52.3175 157.656ZM32.5077 135.252C32.1843 136.115 31.9595 137.012 31.8377 137.925C31.7013 138.833 31.6704 139.753 31.7456 140.668C32.0698 139.808 32.2928 138.912 32.4103 138C32.5507 137.091 32.5834 136.169 32.5077 135.252ZM48.9675 131.548C48.0598 131.412 47.1394 131.381 46.2245 131.456C47.0814 131.782 47.973 132.009 48.8817 132.131C49.789 132.272 50.7097 132.304 51.6247 132.229C50.7707 131.893 49.8809 131.658 48.9728 131.527L48.9675 131.548ZM70.9025 156.838C69.993 156.702 69.0709 156.671 68.1543 156.745C69.8829 157.375 71.7244 157.635 73.5597 157.508C72.7046 157.18 71.8148 156.952 70.9078 156.827L70.9025 156.838ZM29.8244 154.295C28.9322 154.163 28.0283 154.128 27.1287 154.192L27.0762 154.192L27.1235 154.192C27.9715 154.508 28.8522 154.727 29.7492 154.846C30.6569 154.982 31.5773 155.013 32.4921 154.938C31.6308 154.621 30.7355 154.405 29.8244 154.295ZM52.8418 176.061C51.934 175.925 51.0136 175.894 50.0988 175.969C51.8289 176.6 53.6727 176.858 55.5095 176.726C54.6415 176.402 53.7394 176.179 52.8207 176.061L52.8418 176.061ZM28.0239 173.329C27.1144 173.193 26.1923 173.162 25.2757 173.237C26.1331 173.559 27.0247 173.782 27.9329 173.902C28.8417 174.046 29.7648 174.077 30.6811 173.994C29.8169 173.67 28.9182 173.447 28.0029 173.329L28.0239 173.329ZM53.6093 118.497C52.8674 119.046 52.1903 119.677 51.591 120.378C52.4307 119.999 53.2253 119.527 53.96 118.971C54.7005 118.425 55.3728 117.792 55.9625 117.085C55.1286 117.468 54.3394 117.941 53.6093 118.497ZM60.075 146.648C59.3348 147.188 58.6625 147.816 58.0725 148.518C58.9096 148.141 59.6995 147.667 60.4257 147.106C61.1671 146.566 61.8396 145.938 62.4282 145.235C61.5916 145.617 60.802 146.095 60.075 146.658L60.075 146.648ZM37.0646 163.775C36.3203 164.315 35.6459 164.945 35.0569 165.651C35.8909 165.268 36.6801 164.795 37.4101 164.239C38.1505 163.693 38.8274 163.065 39.4284 162.369C38.5836 162.739 37.7893 163.215 37.0646 163.786L37.0646 163.775ZM75.2688 139.151C74.7271 138.407 74.0993 137.729 73.3986 137.132C74.1711 138.805 75.2898 140.295 76.6809 141.504C76.3058 140.669 75.8317 139.883 75.2688 139.161L75.2688 139.151ZM67.3507 170.959C66.8046 170.218 66.1773 169.541 65.4805 168.94C65.8464 169.785 66.3192 170.58 66.8872 171.304C67.428 172.046 68.0559 172.72 68.7575 173.312C68.3766 172.478 67.9049 171.689 67.3507 170.959ZM44.3851 145.855C43.8418 145.113 43.2142 144.435 42.5149 143.837C42.885 144.681 43.3594 145.475 43.9269 146.201C44.4661 146.944 45.0942 147.618 45.7971 148.209C45.4169 147.373 44.9432 146.584 44.3851 145.855Z" fill="white"/>
<path d="M43.0373 112.728C31.2431 122.179 0.999737 159.681 7.76931 168.388C14.5389 177.095 59.7137 173.27 72.8375 169.198C76.7405 167.991 66.1763 143.213 61.965 142.06C58.4573 141.099 38.9752 146.796 38.6001 145.67C38.1781 144.397 43.4329 137.376 50.1306 122.15C57.8547 104.589 48.247 108.554 43.0373 112.728Z" fill="#EB9481"/>
<path d="M83.2279 140.057C92.2166 141.134 94.3613 142.775 102.427 139.645C107.72 137.595 111.302 140.091 107.421 144.542C101.093 151.823 89.1919 152.897 84.9638 152.065L83.2279 140.057Z" fill="#EB9481"/>
<path d="M58.0013 142.364C58.0013 142.364 69.1665 139.511 78.8565 139.697C85.5618 139.827 100.113 141.735 109.942 159.164C112.274 163.296 112.667 170.844 106.403 165.46C101.957 161.647 100.292 157.885 97.3015 156.137C97.3015 156.137 96.6584 165.789 92.4269 167.968C88.7258 169.868 84.8943 171.502 80.9614 172.858C80.5472 172.196 80.177 171.507 79.8534 170.795C79.8534 170.795 75.7074 172.454 69.3449 170.118L58.0013 142.364Z" fill="#EB9481"/>
<path d="M85.2385 140.846C87.8592 143.208 93.2678 148.3 96.2361 154.016C99.5599 160.364 104.251 173.484 99.5408 175.893C96.0881 177.659 93.853 172.802 93.853 172.802C93.853 172.802 94.6505 178.638 91.2056 179.548C88.05 180.379 86.5425 176.517 86.5425 176.517C86.5425 176.517 86.4163 180.138 83.2204 180.355C79.3728 180.606 80.2674 172.988 76.1459 169.871C75.2177 169.169 85.2385 140.846 85.2385 140.846Z" fill="#EB9481"/>
<path d="M88.9656 156.438C91.0601 159.072 94.2501 166.228 93.9579 172.707C93.9575 172.854 93.8364 172.928 93.8157 172.791C92.8464 167.177 91.1983 161.701 88.9077 156.485C88.9014 156.477 88.8985 156.468 88.8995 156.458C88.9005 156.448 88.9054 156.439 88.9131 156.433C88.9208 156.426 88.9306 156.423 88.9405 156.424C88.9503 156.425 88.9594 156.43 88.9656 156.438Z" fill="#263238"/>
<path d="M82.6543 159.951C84.2238 162.4 87.192 169.95 86.6683 176.491C86.6679 176.638 86.5363 176.701 86.521 176.564C85.843 170.904 84.5246 165.34 82.5912 159.978C82.5911 159.97 82.5932 159.963 82.5973 159.957C82.6013 159.951 82.6071 159.946 82.6139 159.943C82.6207 159.94 82.6282 159.94 82.6354 159.941C82.6426 159.943 82.6492 159.946 82.6543 159.951Z" fill="#263238"/>
<path d="M97.3174 156.095C99.9404 157.679 101.401 159.538 103.35 161.82C104.302 162.962 105.316 164.051 106.388 165.082C107.373 166.004 108.825 167.391 110.309 166.738C111.135 166.373 111.364 165.385 111.435 164.566C111.502 163.644 111.37 162.719 111.048 161.853C111.049 161.811 111.112 161.779 111.127 161.827C111.448 162.591 111.658 163.397 111.751 164.22C111.874 164.994 111.76 165.786 111.424 166.494C110.6 167.942 108.709 167.664 107.523 166.898C106.822 166.409 106.171 165.853 105.578 165.237C104.997 164.662 104.441 164.062 103.902 163.451C102.797 162.186 101.765 160.864 100.676 159.594C99.6081 158.383 98.4634 157.242 97.2488 156.179C97.2016 156.137 97.2649 156.063 97.3174 156.095Z" fill="#263238"/>
<path d="M100.626 167.592C100.321 165.789 98.1159 158.036 97.2385 156.147C97.233 156.137 97.2316 156.126 97.2345 156.115C97.2375 156.104 97.2447 156.095 97.2545 156.089C97.2643 156.084 97.2758 156.082 97.2867 156.085C97.2975 156.088 97.3067 156.095 97.3122 156.105C98.9704 158.774 101.054 165.25 101.416 167.243C101.778 169.235 102.123 171.701 101.607 173.66C100.831 176.611 98.7288 176.658 97.967 176.613C97.0669 176.545 96.2172 176.172 95.5579 175.555C94.8072 174.768 94.2235 173.836 93.8421 172.817C93.8423 172.77 93.8897 172.728 93.9158 172.776C94.6369 174.207 96.0354 175.804 97.6954 176.013C98.063 176.071 98.4385 176.055 98.7997 175.966C99.161 175.877 99.5008 175.717 99.7991 175.494C100.425 174.899 100.813 174.097 100.894 173.237C101.128 171.354 101.038 169.445 100.626 167.592Z" fill="#263238"/>
<path d="M86.6682 176.491C86.9875 176.949 87.514 178.396 88.7893 179.009C89.2326 179.263 89.7312 179.406 90.242 179.425C90.7528 179.444 91.2605 179.338 91.7214 179.117C92.6008 178.575 93.2347 177.712 93.489 176.71C93.7051 175.429 93.8231 174.132 93.842 172.833C93.8421 172.77 93.921 172.765 93.926 172.833C94.0856 174.243 94.0318 175.669 93.7665 177.063C93.6415 177.609 93.4085 178.125 93.0814 178.58C92.7543 179.035 92.3395 179.419 91.8616 179.712C91.3555 179.986 90.7833 180.115 90.2084 180.085C89.6334 180.054 89.0781 179.866 88.6038 179.539C88.1265 179.207 86.7435 177.705 86.5105 176.527C86.5158 176.49 86.6525 176.47 86.6682 176.491Z" fill="#263238"/>
<path d="M76.5518 169.409C76.9305 169.831 77.2589 170.296 77.5305 170.794C77.839 171.32 78.1318 171.82 78.4088 172.346C78.9593 173.41 79.3981 174.528 79.7181 175.682C80.0511 176.839 80.3102 178.101 81.1009 179.055C81.471 179.526 81.98 179.869 82.5559 180.035C83.1318 180.201 83.7452 180.181 84.3093 179.979C84.9064 179.743 85.4036 179.308 85.716 178.748C86.0781 178.143 86.3208 177.475 86.4313 176.779C86.4289 176.773 86.4281 176.766 86.429 176.759C86.4299 176.753 86.4324 176.746 86.4363 176.741C86.4402 176.735 86.4453 176.73 86.4513 176.727C86.4574 176.724 86.464 176.723 86.4708 176.723C86.4776 176.723 86.4843 176.724 86.4903 176.727C86.4963 176.731 86.5014 176.735 86.5053 176.741C86.5092 176.746 86.5116 176.753 86.5124 176.76C86.5133 176.766 86.5125 176.773 86.5101 176.779C86.4633 177.411 86.3523 178.035 86.1788 178.644C85.9785 179.191 85.6382 179.676 85.1919 180.05C84.7242 180.405 84.1676 180.624 83.5834 180.684C82.9991 180.743 82.4098 180.64 81.8801 180.387C80.7044 179.858 80.0457 178.668 79.6393 177.49C79.1859 176.18 78.885 174.828 78.3686 173.534C78.1025 172.85 77.847 172.166 77.5231 171.508C77.1992 170.85 76.7493 170.166 76.478 169.461C76.4466 169.419 76.5099 169.361 76.5518 169.409Z" fill="#263238"/>
<path d="M72.4429 171.026C74.1036 171.271 75.7838 171.359 77.461 171.288C77.5135 171.288 77.5446 171.44 77.492 171.451C76.6602 171.604 75.8143 171.667 74.9689 171.638C74.1119 171.599 73.2656 171.432 72.4583 171.142C72.3901 171.105 72.3904 171.015 72.4429 171.026Z" fill="#263238"/>
<path d="M20.8998 151.246C23.7131 149.899 26.6196 148.755 29.5969 147.824C32.543 146.913 35.5522 146.219 38.6001 145.749C40.3404 145.465 42.0858 145.265 43.8575 145.054C43.91 145.055 43.9203 145.128 43.8572 145.133C40.7947 145.62 37.7625 146.281 34.7755 147.114C31.8021 147.915 28.8461 148.77 25.9075 149.679C24.2453 150.2 22.6039 150.784 20.9573 151.352C20.8994 151.394 20.8471 151.283 20.8998 151.246Z" fill="#263238"/>
<path d="M18.3866 135.48L43.2835 138.259C43.2835 138.259 49.671 126.716 53.0077 116.073C56.3445 105.43 46.9525 107.473 35.9545 117.768C24.9565 128.063 18.3866 135.48 18.3866 135.48Z" fill="#6DDAD3"/>
<path d="M18.3866 135.48L43.2835 138.259C43.2835 138.259 49.671 126.716 53.0077 116.073C56.3445 105.43 46.9525 107.473 35.9545 117.768C24.9565 128.063 18.3866 135.48 18.3866 135.48Z" fill="#6DDAD3"/>
<path d="M45.6239 110.591C45.6264 110.617 45.6263 110.644 45.6236 110.67C45.4876 111.579 45.4567 112.501 45.5315 113.418C45.8605 112.557 46.0837 111.66 46.1962 110.745C46.1967 110.587 46.2392 110.435 46.2554 110.277L45.6239 110.591ZM32.5079 135.253C32.2782 135.825 32.1005 136.417 31.9772 137.022L32.5026 137.076C32.5621 136.47 32.5639 135.859 32.5079 135.253ZM23.8847 129.62L23.6422 129.871C23.9155 129.872 24.1677 129.873 24.4674 129.827C24.2679 129.747 24.0789 129.678 23.8847 129.62ZM46.2303 131.435C46.3773 131.494 46.5295 131.552 46.6818 131.6C46.7092 131.531 46.741 131.465 46.777 131.4C46.5983 131.405 46.4143 131.415 46.2303 131.435ZM38.4415 124.381C37.8954 123.64 37.2681 122.963 36.5713 122.363C36.9383 123.209 37.411 124.005 37.978 124.732C38.5203 125.471 39.1481 126.143 39.8483 126.734C39.4655 125.901 38.9938 125.112 38.4415 124.381Z" fill="white"/>
<path d="M42.2744 138.024C42.411 138.025 43.3255 138.027 43.3255 138.027C43.4368 137.707 45.5953 132.779 46.124 131.729C47.2129 129.572 48.4277 127.474 49.6111 125.37C49.6481 125.302 49.753 125.37 49.7161 125.418C48.8803 127.254 48.0761 129.091 47.2246 130.939C47.4356 130.692 47.6465 130.446 47.8522 130.194C48.2689 129.67 48.6488 129.146 49.0446 128.59C49.0815 128.543 49.155 128.59 49.1285 128.648C48.7502 129.407 48.2727 130.112 47.7087 130.746C47.4692 131.024 47.2103 131.285 46.9339 131.527C46.8651 131.679 46.7963 131.836 46.7223 131.983C46.1937 133.033 43.5874 138.322 43.4928 138.317L42.295 138.166C42.2056 138.187 42.2061 138.019 42.2744 138.024Z" fill="#263238"/>
<path d="M23.0915 131.262C28.4928 131.64 33.8773 132.397 39.23 133.254C40.7499 133.5 42.2591 133.779 43.7577 134.092C43.7997 134.092 43.7995 134.166 43.7575 134.16C41.0675 133.916 38.383 133.561 35.6985 133.222C33.014 132.883 30.3086 132.518 27.6244 132.085C26.1116 131.849 24.5935 131.613 23.086 131.351C23.0229 131.356 23.0232 131.257 23.0915 131.262Z" fill="#263238"/>
<path d="M51.7816 109.086C51.873 110.179 55.9184 117.79 60.7887 118.272C62.3648 118.424 63.604 109.803 63.604 109.803L63.8371 109.189L67.1364 100.57L57.6484 92.3172L56.2695 91.2095C56.2695 91.2095 55.5214 93.6248 54.6244 96.644C54.5819 96.7857 54.5342 96.9275 54.4917 97.0745C54.4493 97.2215 54.3857 97.4053 54.3379 97.5628C54.2 98.0144 54.0567 98.4712 53.9292 98.9333C53.8284 99.2851 53.7275 99.6264 53.6319 99.9835C53.5362 100.341 53.4405 100.719 53.3343 101.086C52.6353 103.714 52.1165 106.387 51.7816 109.086Z" fill="#EB9481"/>
<path d="M54.6242 96.6438C55.1582 99.2779 56.2587 101.764 57.8495 103.931C59.4404 106.097 61.4834 107.891 63.8369 109.189L67.1362 100.569L57.6482 92.317L56.2693 91.2094C56.2693 91.2094 55.5212 93.6246 54.6242 96.6438Z" fill="#263238"/>
<path d="M70.0547 87.3243C70.8796 91.0055 74.1833 93.4379 77.4332 92.7169C80.6831 91.9959 82.6434 88.4017 81.8186 84.6996C80.9938 80.9974 77.69 78.5808 74.4401 79.307C71.1902 80.0333 69.23 83.6169 70.0547 87.3243Z" fill="#455A64"/>
<path d="M68.1976 87.981C69.121 92.0987 72.7919 94.7844 76.4099 93.9804C80.0279 93.1764 82.2048 89.1834 81.2867 85.0606C80.3686 80.9377 76.6924 78.2572 73.0797 79.0612C69.4669 79.8652 67.2795 83.8529 68.1976 87.981Z" fill="#C7C7C7"/>
<path d="M78.8398 82.7466C83.2086 98.3415 74.3617 102.704 70.9954 103.661C67.9396 104.514 57.4321 107.027 51.4746 91.9632C45.5171 76.8998 51.3866 69.9379 58.2674 67.6194C65.1481 65.3009 74.471 67.1465 78.8398 82.7466Z" fill="#EB9481"/>
<path d="M73.4218 80.7705C73.0515 80.8061 72.6795 80.8208 72.3075 80.8145C71.9162 80.888 71.5116 80.8295 71.1571 80.6482C71.0563 80.5698 70.9842 80.4602 70.9522 80.3365C70.9203 80.2128 70.9302 80.082 70.9804 79.9645C71.1151 79.7484 71.3053 79.5723 71.5312 79.4546C71.7571 79.337 72.0104 79.2821 72.2647 79.2956C72.7826 79.2395 73.3028 79.3778 73.7245 79.6835C73.8155 79.7601 73.8826 79.8612 73.9177 79.9748C73.9528 80.0884 73.9545 80.2097 73.9226 80.3243C73.8907 80.4388 73.8265 80.5418 73.7377 80.6209C73.6489 80.7 73.5393 80.7519 73.4218 80.7705Z" fill="#263238"/>
<path d="M63.1372 84.3662C63.4947 84.2566 63.8459 84.1278 64.1894 83.9804C64.5788 83.8956 64.9299 83.6863 65.1897 83.3842C65.2514 83.2724 65.2748 83.1435 65.2561 83.0172C65.2375 82.8909 65.178 82.7741 65.0866 82.6849C64.8786 82.5376 64.6351 82.4484 64.3812 82.4264C64.1272 82.4044 63.872 82.4505 63.6418 82.5598C63.1429 82.7084 62.7169 83.0367 62.4461 83.4813C62.3905 83.5862 62.3664 83.7049 62.3768 83.8232C62.3872 83.9415 62.4316 84.0543 62.5047 84.1478C62.5778 84.2414 62.6764 84.3118 62.7887 84.3506C62.9009 84.3893 63.022 84.3948 63.1372 84.3662Z" fill="#263238"/>
<path d="M66.282 87.1239C66.2822 87.0819 66.2135 87.1973 66.2292 87.2394C66.5624 88.2914 66.7479 89.5533 65.9052 90.1762C65.879 90.1761 65.905 90.2445 65.9314 90.2341C67.0469 89.7381 66.7576 88.0555 66.282 87.1239Z" fill="#263238"/>
<path d="M65.0127 86.2793C63.2669 86.6315 64.0976 90.092 65.7172 89.7656C67.3368 89.4393 66.4745 85.984 65.0127 86.2793Z" fill="#263238"/>
<path d="M64.376 86.6243C64.123 86.8968 63.9063 87.3114 63.5538 87.4365C63.2013 87.5616 62.7344 87.2922 62.3779 87.0074C62.3412 86.981 62.3148 87.0072 62.3251 87.065C62.4756 87.7276 62.8942 88.349 63.6302 88.2776C64.3661 88.2061 64.6257 87.5132 64.6277 86.8037C64.6334 86.6724 64.4814 86.5195 64.376 86.6243Z" fill="#263238"/>
<path d="M72.4311 85.2447C72.4312 85.2027 72.5309 85.2766 72.536 85.3186C72.7536 86.4018 73.181 87.6066 74.2369 87.7358C74.2684 87.7359 74.2788 87.7937 74.2367 87.7989C73.0172 87.9056 72.4648 86.3012 72.4311 85.2447Z" fill="#263238"/>
<path d="M73.1235 83.9013C74.8172 83.3808 75.7427 86.7994 74.1646 87.2941C72.5866 87.7887 71.7085 84.3439 73.1235 83.9013Z" fill="#263238"/>
<path d="M73.9116 83.9299C74.2319 84.036 74.5885 84.2945 74.9198 84.2272C75.2511 84.1598 75.4784 83.7033 75.6215 83.278C75.6216 83.236 75.6741 83.2782 75.6846 83.2782C75.8824 83.9304 75.8539 84.6713 75.2539 84.9691C74.654 85.2669 74.1351 84.7924 73.8005 84.1818C73.7377 84.0976 73.7804 83.8717 73.9116 83.9299Z" fill="#263238"/>
<path d="M68.6846 95.7706C68.9888 95.9765 69.3137 96.298 69.7343 96.2309C70.1366 96.1449 70.5166 95.976 70.8499 95.7349C70.8562 95.7273 70.8653 95.7224 70.8751 95.7215C70.885 95.7205 70.8948 95.7235 70.9025 95.7298C70.9101 95.7361 70.915 95.7452 70.9159 95.7551C70.9169 95.7649 70.9139 95.7747 70.9076 95.7824C70.793 96.025 70.6152 96.2323 70.3928 96.3824C70.1704 96.5325 69.9117 96.6199 69.6438 96.6353C69.4093 96.6229 69.1839 96.5403 68.9969 96.3982C68.8099 96.2562 68.6699 96.0613 68.5951 95.8387C68.5584 95.7808 68.6374 95.7442 68.6846 95.7706Z" fill="#263238"/>
<path d="M72.2268 90.4417C72.2268 90.4417 72.8476 91.9834 73.0399 92.7354C73.0397 92.809 70.4504 94.0627 68.7837 92.5128C68.7663 92.5009 68.7544 92.4825 68.7505 92.4618C68.7466 92.4411 68.7511 92.4197 68.763 92.4023C68.7749 92.3849 68.7932 92.373 68.8139 92.3691C68.8346 92.3652 68.8561 92.3697 68.8734 92.3816C69.9993 92.7955 71.2288 92.8341 72.3784 92.4917C72.3791 92.271 71.2194 89.887 71.3351 89.861C71.9329 89.7645 72.541 89.7486 73.143 89.8138C71.9333 86.5677 70.2184 83.5408 69.0665 80.2844C69.0563 80.2603 69.0554 80.2333 69.0641 80.2086C69.0728 80.1839 69.0904 80.1633 69.1134 80.1509C69.1364 80.1385 69.1633 80.1351 69.1887 80.1414C69.2141 80.1478 69.2362 80.1633 69.2507 80.1851C71.2756 83.2339 72.7468 86.9432 74.0772 90.2632C74.2547 90.6684 72.5787 90.4953 72.2268 90.4417Z" fill="#263238"/>
<path d="M72.3719 92.854C72.0907 93.5507 71.6368 94.1643 71.0529 94.637C70.7251 94.8814 70.3304 95.0196 69.9218 95.0331C69.0232 95.0304 68.7888 94.2888 68.7594 93.5897C68.7478 93.2196 68.7788 92.8494 68.8519 92.4864C69.9557 92.9824 71.1895 93.1113 72.3719 92.854Z" fill="#263238"/>
<path d="M71.0532 94.6372C70.7254 94.8816 70.3307 95.0198 69.9221 95.0333C69.0235 95.0306 68.7891 94.2889 68.7597 93.5899C69.6798 93.4297 70.7298 93.7901 71.0532 94.6372Z" fill="#FF99BA"/>
<path d="M52.2276 91.4452C55.2435 91.6485 55.6106 84.7493 55.6106 84.7493C55.6106 84.7493 68.2319 81.8485 68.7144 71.4023C68.7144 71.4023 71.2863 77.8949 78.1474 80.5006C78.1474 80.5006 77.0402 69.1459 67.8903 67.4584C67.8903 67.4584 56.4542 64.03 50.6726 73.2835C44.8909 82.537 50.2047 91.3079 52.2276 91.4452Z" fill="#263238"/>
<path d="M68.7167 70.6295C68.9611 72.2242 68.8614 73.8528 68.4242 75.4058C68.0112 76.9841 67.273 78.4587 66.2568 79.7351C66.0076 80.056 65.7382 80.3606 65.4501 80.6471L65.0284 81.0926C64.8808 81.2288 64.7228 81.3545 64.5647 81.4854C64.2487 81.7367 63.9431 82.0091 63.6165 82.2446C63.29 82.4802 62.9321 82.6736 62.5636 82.8827C62.3899 82.9821 62.2214 83.0919 62.0372 83.186L61.5109 83.4367L60.4111 83.9327C59.6536 84.1933 58.8857 84.4118 58.123 84.6197C58.8336 84.2592 59.5701 83.9723 60.2702 83.6118L61.2966 83.0367L61.823 82.7492C61.9862 82.6445 62.139 82.5241 62.297 82.409C62.613 82.1786 62.929 81.9536 63.2502 81.7338C63.5714 81.514 63.8298 81.21 64.1195 80.9743L64.5568 80.592L64.947 80.1622C65.2151 79.8871 65.4669 79.5965 65.7011 79.292C66.6597 78.0763 67.4047 76.7066 67.9044 75.2413C68.16 74.5057 68.3556 73.7505 68.4891 72.9832C68.6311 72.2065 68.7072 71.4191 68.7167 70.6295Z" fill="#263238"/>
<path d="M54.4773 91.2884C54.4773 91.2884 50.0649 86.9714 48.0472 88.6419C46.0296 90.3125 49.9987 97.0194 52.83 97.5006C53.1886 97.588 53.5613 97.6019 53.9255 97.5415C54.2897 97.4812 54.638 97.3478 54.9493 97.1494C55.2606 96.951 55.5286 96.6917 55.7372 96.387C55.9457 96.0824 56.0905 95.7388 56.1628 95.3767L54.4773 91.2884Z" fill="#EB9481"/>
<path d="M49.2345 90.5321C49.2247 90.5321 49.2154 90.5359 49.2085 90.5428C49.2015 90.5497 49.1976 90.559 49.1976 90.5688C49.1976 90.5786 49.2014 90.5879 49.2083 90.5948C49.2152 90.6018 49.2245 90.6057 49.2343 90.6057C51.2354 91.0057 52.5342 92.5441 53.5594 94.1972C52.8779 93.6171 52.0535 93.3835 51.2576 94.1905C51.2154 94.2377 51.2573 94.3009 51.3257 94.28C51.6331 94.1156 51.9838 94.0501 52.3298 94.0925C52.6758 94.1349 53.0003 94.2831 53.2589 94.5169C53.6892 94.9095 54.0756 95.3476 54.4113 95.8236C54.5265 95.9764 54.8107 95.8248 54.7113 95.6511L54.6852 95.609C54.2821 93.2744 51.8156 90.2927 49.2345 90.5321Z" fill="#263238"/>
<path d="M51.4568 89.0886C51.4568 89.0886 48.6098 81.4337 49.6176 76.4441C50.7375 70.8872 57.6457 64.5643 65.5165 66.9627C65.5165 66.9627 56.1422 68.3384 52.8093 75.8596C51.2751 79.3236 54.1282 88.513 54.1282 88.513L51.4568 89.0886Z" fill="#C7C7C7"/>
<path d="M55.8501 99.9988C59.3311 98.9258 61.1611 94.8383 59.9376 90.8693C58.7141 86.9002 54.9004 84.5525 51.4195 85.6255C47.9385 86.6985 46.1085 90.7859 47.332 94.755C48.5555 98.7241 52.3692 101.072 55.8501 99.9988Z" fill="#C7C7C7"/>
<path d="M58.0406 91.1833C59.139 94.7496 57.4939 98.4235 54.3378 99.3865C51.1818 100.35 47.7825 98.2427 46.6788 94.6763C45.5752 91.11 47.2256 87.4361 50.3816 86.4678C53.5376 85.4996 56.9421 87.6379 58.0406 91.1833Z" fill="#455A64"/>
<path d="M63.8003 109.241L60.8885 116.527L51.8237 107.33L49.2662 110.286C49.2662 110.286 58.1575 124.912 58.191 124.25L61.1839 117.952L65.5226 122.311L65.1605 111.368L63.8003 109.241Z" fill="#EBEBEB"/>
<path d="M65.67 116.898C65.5439 115.095 65.4757 113.266 65.2708 111.468C65.2709 111.405 65.1606 111.379 65.1446 111.468C64.7874 113.212 65.2875 120.124 65.2826 121.779C65.1045 121.59 61.263 117.942 61.2261 117.999C60.5767 118.996 58.3824 123.572 58.234 123.987C56.8271 121.665 50.8733 112.509 49.2139 110.297C49.204 110.287 49.191 110.28 49.1769 110.278C49.1629 110.276 49.1487 110.279 49.1365 110.287C49.1244 110.294 49.115 110.305 49.11 110.318C49.1049 110.331 49.1044 110.346 49.1086 110.359C50.3469 112.812 58.0369 124.896 58.1474 124.864C59.3029 122.706 60.3478 120.49 61.2779 118.226C61.9273 119.021 65.8042 123.137 65.8155 122.869C65.8701 120.877 65.8215 118.885 65.67 116.898Z" fill="#263238"/>
<path d="M116.536 60.7958C116.212 63.8179 115.054 66.6905 113.193 69.093C111.331 71.4955 108.838 73.3333 105.992 74.4015C103.147 75.4697 100.06 75.7261 97.0774 75.1422C94.0945 74.5583 91.3325 73.1571 89.0997 71.0948L80.8874 72.2742L85.0178 65.1916C84.0944 62.8812 83.7088 60.391 83.8901 57.9096C84.0713 55.4281 84.8148 53.0204 86.0641 50.8687C87.3135 48.717 89.036 46.8778 91.1012 45.4902C93.1665 44.1026 95.5203 43.2031 97.9846 42.8597C100.449 42.5163 102.959 42.738 105.325 43.5081C107.691 44.2782 109.851 45.5765 111.64 47.3046C113.43 49.0328 114.804 51.1455 115.657 53.4829C116.509 55.8203 116.819 58.3211 116.563 60.7959L116.536 60.7958Z" fill="white"/>
<path d="M116.537 60.7959C116.21 63.8197 115.056 66.6949 113.201 69.1053C112.29 70.3094 111.203 71.3693 109.976 72.2491C108.764 73.1619 107.43 73.8993 106.012 74.4395C104.594 74.9897 103.105 75.3391 101.589 75.4776C100.833 75.5446 100.072 75.5564 99.3138 75.513C98.552 75.4927 97.7931 75.4114 97.0442 75.2699C94.0188 74.7162 91.2076 73.3303 88.9259 71.2678L89.1202 71.3262L80.9183 72.5635L80.3242 72.6511L80.6253 72.1264L84.7399 65.028L84.7391 65.3118C83.7834 62.9572 83.3817 60.4145 83.565 57.88C83.7483 55.3455 84.5116 52.8871 85.7962 50.6945C87.0787 48.5102 88.8397 46.6449 90.9466 45.2388C93.0517 43.8536 95.4432 42.9629 97.9416 42.6334C100.44 42.304 102.981 42.5444 105.373 43.3365C107.736 44.1517 109.887 45.4849 111.668 47.2387C113.451 48.9833 114.816 51.1097 115.66 53.458C116.503 55.8062 116.803 58.3151 116.537 60.7959ZM116.537 60.7959C116.806 58.3262 116.505 55.8275 115.656 53.4926C114.807 51.1576 113.434 49.0487 111.642 47.3283C109.849 45.6079 107.686 44.322 105.318 43.5697C102.95 42.8174 100.441 42.6188 97.9848 42.9891C95.551 43.3474 93.2312 44.2574 91.2029 45.6495C89.1941 47.0499 87.5139 48.8705 86.2788 50.985C85.0633 53.1072 84.3449 55.4774 84.1776 57.9174C84.0102 60.3573 84.3983 62.8034 85.3126 65.0717L85.37 65.219L85.2908 65.3502L81.1394 72.4222L80.8464 71.9852L89.0638 70.8583L89.1794 70.8586L89.258 70.9377C91.4531 72.9986 94.1785 74.4078 97.1291 75.0073C97.8615 75.1566 98.6045 75.2484 99.3513 75.2819C100.098 75.3366 100.848 75.3388 101.595 75.2884C103.094 75.1759 104.57 74.8566 105.981 74.3395C107.4 73.833 108.736 73.1178 109.945 72.2175C111.179 71.3435 112.271 70.2829 113.18 69.0737C115.041 66.6764 116.202 63.8117 116.537 60.7959Z" fill="#263238"/>
<path d="M107.379 61.5464C108.476 61.5496 109.368 60.6629 109.371 59.5658C109.375 58.4686 108.488 57.5767 107.391 57.5734C106.294 57.5702 105.402 58.457 105.398 59.5541C105.395 60.6512 106.282 61.5432 107.379 61.5464Z" fill="#263238"/>
<path d="M100.258 61.5254C101.355 61.5287 102.247 60.6419 102.25 59.5448C102.254 58.4476 101.367 57.5557 100.27 57.5524C99.1726 57.5492 98.2806 58.436 98.2774 59.5331C98.2742 60.6302 99.161 61.5222 100.258 61.5254Z" fill="#263238"/>
<path d="M93.1428 61.5047C94.24 61.5079 95.1319 60.6211 95.1352 59.524C95.1384 58.4269 94.2516 57.5349 93.1545 57.5317C92.0574 57.5285 91.1654 58.4153 91.1622 59.5124C91.1589 60.6095 92.0457 61.5015 93.1428 61.5047Z" fill="#263238"/>
<path d="M279.72 61.2734C279.396 64.2956 278.238 67.1681 276.377 69.5706C274.515 71.9731 272.022 73.811 269.176 74.8791C266.331 75.9473 263.244 76.2037 260.261 75.6198C257.279 75.0359 254.517 73.6347 252.284 71.5724L244.071 72.7519L248.197 65.6692C247.269 63.3576 246.88 60.8652 247.059 58.381C247.238 55.8967 247.981 53.4859 249.23 51.3311C250.479 49.1764 252.203 47.3344 254.27 45.9447C256.337 44.555 258.693 43.6541 261.16 43.3104C263.626 42.9666 266.139 43.189 268.507 43.9607C270.875 44.7324 273.037 46.033 274.828 47.7642C276.618 49.4953 277.991 51.6114 278.843 53.952C279.694 56.2926 280.001 58.7964 279.741 61.2735L279.72 61.2734Z" fill="white"/>
<path d="M279.72 61.2733C279.391 64.2965 278.238 67.1711 276.385 69.5827C275.922 70.1796 275.424 70.7485 274.893 71.2863C274.344 71.8087 273.764 72.2967 273.154 72.7475C271.944 73.6624 270.609 74.4 269.191 74.9379C267.774 75.4883 266.287 75.8378 264.773 75.976C264.015 76.043 263.252 76.0548 262.492 76.0114C261.731 75.9908 260.972 75.9095 260.223 75.7683C257.2 75.204 254.395 73.8092 252.12 71.74L252.315 71.7984L244.113 73.0356L243.519 73.1233L243.82 72.5986L247.924 65.5001L247.923 65.7839C246.968 63.4295 246.566 60.8872 246.748 58.3529C246.93 55.8186 247.692 53.36 248.975 51.1667C250.259 48.9821 252.022 47.1169 254.13 45.7109C256.236 44.3257 258.627 43.435 261.125 43.1056C263.624 42.7761 266.164 43.0165 268.557 43.8087C270.92 44.6232 273.071 45.9565 274.852 47.7108C276.637 49.4553 278.003 51.5825 278.846 53.9319C279.69 56.2813 279.989 58.7916 279.72 61.2733ZM279.72 61.2733C279.99 58.8036 279.689 56.3049 278.84 53.97C277.991 51.635 276.618 49.5261 274.825 47.8057C273.033 46.0853 270.87 44.7994 268.502 44.0471C266.134 43.2948 263.625 43.0962 261.169 43.4665C258.735 43.8248 256.415 44.7348 254.387 46.1269C252.378 47.5273 250.698 49.3479 249.463 51.4624C248.239 53.5837 247.513 55.9555 247.34 58.3985C247.179 60.8364 247.565 63.2797 248.47 65.549L248.533 65.6964L248.454 65.8275L244.302 72.8996L244.009 72.4625L252.227 71.3356L252.342 71.336L252.421 71.415C254.609 73.4716 257.324 74.8805 260.266 75.4846C260.998 75.6339 261.741 75.7256 262.488 75.7591C263.235 75.8139 263.985 75.8161 264.732 75.7657C266.23 75.6532 267.706 75.3339 269.118 74.8168C270.536 74.3093 271.872 73.5941 273.081 72.6947C274.313 71.819 275.403 70.7586 276.312 69.551C278.193 67.1606 279.373 64.2949 279.72 61.2733Z" fill="#263238"/>
<path d="M270.536 62.024C271.634 62.0272 272.525 61.1404 272.529 60.0433C272.532 58.9462 271.645 58.0542 270.548 58.051C269.451 58.0478 268.559 58.9346 268.556 60.0317C268.552 61.1288 269.439 62.0208 270.536 62.024Z" fill="#263238"/>
<path d="M263.421 62.003C264.518 62.0062 265.41 61.1194 265.413 60.0223C265.416 58.9252 264.529 58.0332 263.432 58.03C262.335 58.0268 261.443 58.9136 261.44 60.0107C261.437 61.1078 262.324 61.9998 263.421 62.003Z" fill="#263238"/>
<path d="M258.298 60.0014C258.298 60.3945 258.181 60.7788 257.962 61.1055C257.744 61.4322 257.433 61.6868 257.07 61.8369C256.706 61.987 256.307 62.0259 255.921 61.9487C255.536 61.8715 255.182 61.6817 254.904 61.4033C254.627 61.1249 254.438 60.7704 254.362 60.3846C254.286 59.9989 254.326 59.5994 254.478 59.2365C254.629 58.8736 254.884 58.5638 255.212 58.3463C255.539 58.1287 255.924 58.0132 256.317 58.0144C256.843 58.0159 257.347 58.2259 257.718 58.5984C258.089 58.9709 258.298 59.4755 258.298 60.0014Z" fill="#263238"/>
<path d="M89.0368 177.023L85.521 177.013L85.5143 179.31L89.0301 179.32L89.0368 177.023Z" fill="#455A64"/>
<path d="M93.5988 176.884L90.083 176.874L90.0763 179.17L93.5921 179.18L93.5988 176.884Z" fill="#455A64"/>
<path d="M98.1603 176.745L94.6445 176.735L94.6378 179.031L98.1536 179.041L98.1603 176.745Z" fill="#455A64"/>
<path d="M102.717 176.606L99.2017 176.596L99.1949 178.893L102.711 178.903L102.717 176.606Z" fill="#455A64"/>
<path d="M107.279 176.467L103.763 176.457L103.756 178.753L107.272 178.764L107.279 176.467Z" fill="#455A64"/>
<path d="M111.841 176.333L108.325 176.323L108.318 178.619L111.834 178.63L111.841 176.333Z" fill="#455A64"/>
<path d="M116.398 176.194L112.882 176.184L112.875 178.48L116.391 178.49L116.398 176.194Z" fill="#455A64"/>
<path d="M120.96 176.055L117.444 176.045L117.437 178.341L120.953 178.352L120.96 176.055Z" fill="#455A64"/>
<path d="M125.516 175.916L122 175.906L121.994 178.202L125.51 178.212L125.516 175.916Z" fill="#455A64"/>
<path d="M126.364 180.748L84.6486 180.626L84.6568 177.83L126.376 176.791L126.364 180.748Z" fill="#37474F"/>
<path d="M167.114 169.853L98.2494 169.651L109.351 118.413L178.216 118.615L167.114 169.853Z" fill="#455A64"/>
<path d="M169.662 169.86L100.793 169.659L111.895 118.421L180.764 118.622L169.662 169.86Z" fill="#37474F"/>
<path d="M146.739 141.189C146.524 142.355 145.916 143.413 145.016 144.185C144.115 144.957 142.977 145.397 141.792 145.431C141.257 145.446 140.725 145.34 140.237 145.12C139.749 144.9 139.317 144.573 138.974 144.162C138.631 143.751 138.385 143.268 138.256 142.749C138.126 142.23 138.116 141.688 138.225 141.164C138.438 139.997 139.044 138.938 139.944 138.165C140.844 137.392 141.981 136.951 143.167 136.916C143.703 136.9 144.236 137.006 144.725 137.226C145.214 137.446 145.647 137.774 145.991 138.185C146.335 138.596 146.581 139.08 146.71 139.601C146.84 140.121 146.85 140.664 146.739 141.189Z" fill="#263238"/>
<path d="M150.148 183.193L116.278 183.094L116.285 180.461L150.159 179.467L150.148 183.193Z" fill="#455A64"/>
<path d="M159.355 183.215L141.166 183.162L130.298 154.399L148.487 154.452L159.355 183.215Z" fill="#455A64"/>
<path d="M162.345 183.224L144.162 183.171L133.294 154.408L151.477 154.461L162.345 183.224Z" fill="#263238"/>
<path d="M83.3422 183.697L48.4366 183.594C45.4568 183.586 49.791 175.111 60.679 171.89C71.5669 168.669 86.7937 180.522 83.3422 183.697Z" fill="#37474F"/>
<path d="M69.6779 183.657C69.7042 182.69 69.8662 181.731 70.1592 180.81C70.4422 179.878 70.8384 178.984 71.3389 178.149C71.8408 177.308 72.4686 176.55 73.2007 175.9C73.9266 175.255 74.7607 174.743 75.6646 174.388C75.2906 174.692 74.8642 174.911 74.5217 175.241L73.9948 175.697L73.4993 176.221C72.8517 176.895 72.2836 177.641 71.8058 178.444C71.3201 179.248 70.9028 180.09 70.5582 180.963C70.2051 181.84 69.911 182.74 69.6779 183.657Z" fill="#263238"/>
<path d="M73.811 175.591C75.8862 176.255 77.8486 177.23 79.6307 178.483C80.5327 179.11 81.3485 179.853 82.0575 180.692C82.8012 181.527 83.2521 182.582 83.3415 183.696C83.0551 182.668 82.5033 181.733 81.7413 180.985C80.9989 180.225 80.1862 179.536 79.3141 178.929C78.4488 178.301 77.5413 177.736 76.618 177.181C75.6947 176.627 74.766 176.104 73.811 175.591Z" fill="#263238"/>
<path d="M250.297 177.495L246.781 177.485L246.775 179.782L250.29 179.792L250.297 177.495Z" fill="#455A64"/>
<path d="M254.859 177.356L251.343 177.345L251.337 179.642L254.852 179.652L254.859 177.356Z" fill="#455A64"/>
<path d="M259.421 177.217L255.905 177.207L255.898 179.503L259.414 179.513L259.421 177.217Z" fill="#455A64"/>
<path d="M263.978 177.078L260.462 177.068L260.455 179.364L263.971 179.374L263.978 177.078Z" fill="#455A64"/>
<path d="M268.539 176.939L265.023 176.929L265.017 179.225L268.533 179.236L268.539 176.939Z" fill="#455A64"/>
<path d="M273.101 176.805L269.585 176.795L269.579 179.091L273.095 179.102L273.101 176.805Z" fill="#455A64"/>
<path d="M277.658 176.666L274.142 176.656L274.135 178.952L277.651 178.963L277.658 176.666Z" fill="#455A64"/>
<path d="M282.22 176.527L278.704 176.517L278.697 178.813L282.213 178.824L282.22 176.527Z" fill="#455A64"/>
<path d="M286.782 176.388L283.266 176.378L283.259 178.674L286.775 178.685L286.782 176.388Z" fill="#455A64"/>
<path d="M287.63 181.22L245.914 181.098L245.922 178.302L287.641 177.262L287.63 181.22Z" fill="#37474F"/>
<path d="M328.374 170.325L259.51 170.123L270.612 118.885L339.476 119.087L328.374 170.325Z" fill="#455A64"/>
<path d="M330.923 170.332L262.058 170.13L273.16 118.893L342.025 119.094L330.923 170.332Z" fill="#37474F"/>
<path d="M307.999 141.66C307.785 142.826 307.177 143.883 306.278 144.655C305.379 145.427 304.242 145.867 303.057 145.903C302.522 145.919 301.99 145.813 301.501 145.593C301.012 145.374 300.58 145.046 300.236 144.636C299.892 144.225 299.646 143.742 299.516 143.222C299.386 142.702 299.376 142.16 299.486 141.636C299.699 140.469 300.306 139.411 301.205 138.638C302.105 137.865 303.242 137.423 304.428 137.388C304.964 137.372 305.496 137.478 305.985 137.697C306.474 137.917 306.907 138.245 307.251 138.657C307.595 139.068 307.841 139.552 307.971 140.072C308.1 140.593 308.11 141.136 307.999 141.66Z" fill="#263238"/>
<path d="M311.408 183.665L277.538 183.566L277.546 180.933L311.419 179.939L311.408 183.665Z" fill="#455A64"/>
<path d="M320.615 183.687L302.427 183.634L291.559 154.871L309.747 154.924L320.615 183.687Z" fill="#455A64"/>
<path d="M323.611 183.696L305.422 183.643L294.554 154.88L312.743 154.933L323.611 183.696Z" fill="#263238"/>
<path d="M244.618 184.169L209.697 184.066C206.717 184.058 211.051 175.583 221.939 172.362C232.827 169.141 248.054 180.994 244.618 184.169Z" fill="#37474F"/>
<path d="M230.912 184.128C230.94 183.162 231.102 182.204 231.393 181.281C231.678 180.35 232.074 179.457 232.573 178.62C233.078 177.782 233.706 177.024 234.435 176.371C235.16 175.726 235.995 175.215 236.898 174.86C236.524 175.163 236.098 175.383 235.756 175.713L235.229 176.169L234.733 176.693C234.082 177.365 233.512 178.111 233.034 178.916C232.549 179.719 232.131 180.562 231.787 181.435C231.435 182.312 231.143 183.212 230.912 184.128Z" fill="#263238"/>
<path d="M235.071 176.063C237.147 176.727 239.109 177.702 240.891 178.955C241.793 179.583 242.611 180.326 243.323 181.164C244.065 181.993 244.519 183.04 244.618 184.148C244.329 183.119 243.776 182.184 243.012 181.436C242.27 180.676 241.457 179.987 240.585 179.38C239.725 178.752 238.812 178.187 237.889 177.632C236.965 177.078 236.032 176.576 235.071 176.063Z" fill="#263238"/>
</svg>
