<svg width="375" height="301" viewBox="0 0 375 301" fill="none" xmlns="http://www.w3.org/2000/svg">
<path d="M347.82 129.811H320.151V163.416H313.03V144.39H277.841V174.514H273.184V103.816H242.604V123.226H226.929V147.366H222.185V132.18H194.381V177.499H186.251V140.653H160.824V112.681H143.533V96.7505H123.538V167.417H116.817V137.925H83.8682V180.139H79.3155V145.686H45.9025V114.641H27.1797V259.223H347.82V129.811Z" fill="#EBEBEB"/>
<path d="M339.746 140.461H344.427V134.036H339.746V140.461Z" fill="white"/>
<path d="M331.633 140.461H336.313V134.036H331.633V140.461Z" fill="white"/>
<path d="M323.512 140.461H328.192V134.036H323.512V140.461Z" fill="white"/>
<path d="M339.746 150.126H344.427V143.701H339.746V150.126Z" fill="white"/>
<path d="M331.633 150.126H336.313V143.701H331.633V150.126Z" fill="white"/>
<path d="M323.512 150.126H328.192V143.701H323.512V150.126Z" fill="white"/>
<path d="M339.746 159.792H344.427V153.367H339.746V159.792Z" fill="white"/>
<path d="M331.633 159.792H336.313V153.367H331.633V159.792Z" fill="white"/>
<path d="M323.512 159.792H328.192V153.367H323.512V159.792Z" fill="white"/>
<path d="M339.746 169.465H344.427V163.04H339.746V169.465Z" fill="white"/>
<path d="M331.633 169.465H336.313V163.04H331.633V169.465Z" fill="white"/>
<path d="M323.512 169.465H328.192V163.04H323.512V169.465Z" fill="white"/>
<path d="M177.666 150.614H182.347V145.254H177.666V150.614Z" fill="white"/>
<path d="M169.553 150.614H174.233V145.254H169.553V150.614Z" fill="white"/>
<path d="M161.432 150.614H166.112V145.254H161.432V150.614Z" fill="white"/>
<path d="M177.666 158.672H182.347V153.311H177.666V158.672Z" fill="white"/>
<path d="M169.553 158.672H174.233V153.311H169.553V158.672Z" fill="white"/>
<path d="M161.432 158.672H166.112V153.311H161.432V158.672Z" fill="white"/>
<path d="M177.666 166.737H182.347V161.376H177.666V166.737Z" fill="white"/>
<path d="M169.553 166.737H174.233V161.376H169.553V166.737Z" fill="white"/>
<path d="M161.432 166.737H166.112V161.376H161.432V166.737Z" fill="white"/>
<path d="M177.666 174.802H182.347V169.441H177.666V174.802Z" fill="white"/>
<path d="M169.553 174.802H174.233V169.441H169.553V174.802Z" fill="white"/>
<path d="M161.432 174.802H166.112V169.441H161.432V174.802Z" fill="white"/>
<path d="M177.666 183.067H182.347V177.707H177.666V183.067Z" fill="white"/>
<path d="M169.553 183.067H174.233V177.707H169.553V183.067Z" fill="white"/>
<path d="M161.432 183.067H166.112V177.707H161.432V183.067Z" fill="white"/>
<path d="M177.666 191.333H182.347V185.972H177.666V191.333Z" fill="white"/>
<path d="M169.553 191.333H174.233V185.972H169.553V191.333Z" fill="white"/>
<path d="M161.432 191.333H166.112V185.972H161.432V191.333Z" fill="white"/>
<path d="M177.666 199.59H182.347V194.229H177.666V199.59Z" fill="white"/>
<path d="M169.553 199.59H174.233V194.229H169.553V199.59Z" fill="white"/>
<path d="M161.432 199.59H166.112V194.229H161.432V199.59Z" fill="white"/>
<path d="M177.666 207.855H182.347V202.494H177.666V207.855Z" fill="white"/>
<path d="M169.553 207.855H174.233V202.494H169.553V207.855Z" fill="white"/>
<path d="M161.432 207.855H166.112V202.494H161.432V207.855Z" fill="white"/>
<path d="M282.082 152.527H309.03V148.51H282.082V152.527Z" fill="white"/>
<path d="M282.082 160.328H309.03V156.311H282.082V160.328Z" fill="white"/>
<path d="M282.082 168.121H309.03V164.105H282.082V168.121Z" fill="white"/>
<path d="M282.082 175.914H309.03V171.898H282.082V175.914Z" fill="white"/>
<path d="M282.082 183.715H309.03V179.699H282.082V183.715Z" fill="white"/>
<path d="M282.082 191.509H309.03V187.492H282.082V191.509Z" fill="white"/>
<path d="M282.082 199.31H309.03V195.293H282.082V199.31Z" fill="white"/>
<path d="M282.082 207.095H309.03V203.078H282.082V207.095Z" fill="white"/>
<path d="M88.0445 145.686H112.824V141.669H88.0445V145.686Z" fill="white"/>
<path d="M88.0445 153.487H112.824V149.47H88.0445V153.487Z" fill="white"/>
<path d="M88.0445 161.288H112.824V157.271H88.0445V161.288Z" fill="white"/>
<path d="M88.0445 169.081H112.824V165.065H88.0445V169.081Z" fill="white"/>
<path d="M88.0445 176.874H112.824V172.858H88.0445V176.874Z" fill="white"/>
<path d="M88.0445 184.676H112.824V180.659H88.0445V184.676Z" fill="white"/>
<path d="M88.0445 192.469H112.824V188.452H88.0445V192.469Z" fill="white"/>
<path d="M88.0445 200.27H112.824V196.253H88.0445V200.27Z" fill="white"/>
<path d="M88.0445 207.671H112.824V203.654H88.0445V207.671Z" fill="white"/>
<path d="M88.0445 215.08H112.824V211.064H88.0445V215.08Z" fill="white"/>
<path d="M88.0445 222.489H112.824V218.473H88.0445V222.489Z" fill="white"/>
<path d="M88.0445 229.89H112.824V225.874H88.0445V229.89Z" fill="white"/>
<path d="M88.0445 237.299H112.824V233.283H88.0445V237.299Z" fill="white"/>
<path d="M47.9912 155.103H74.1631V151.087H47.9912V155.103Z" fill="white"/>
<path d="M47.9912 162.904H74.1631V158.888H47.9912V162.904Z" fill="white"/>
<path d="M47.9912 170.705H74.1631V166.689H47.9912V170.705Z" fill="white"/>
<path d="M47.9912 178.499H74.1631V174.482H47.9912V178.499Z" fill="white"/>
<path d="M47.9912 186.292H74.1631V182.275H47.9912V186.292Z" fill="white"/>
<path d="M47.9912 194.093H74.1631V190.076H47.9912V194.093Z" fill="white"/>
<path d="M47.9912 201.886H74.1631V197.87H47.9912V201.886Z" fill="white"/>
<path d="M47.9912 209.687H74.1631V205.671H47.9912V209.687Z" fill="white"/>
<path d="M47.9912 216.664H74.1631V212.648H47.9912V216.664Z" fill="white"/>
<path d="M47.9912 223.641H74.1631V219.625H47.9912V223.641Z" fill="white"/>
<path d="M47.9912 230.618H74.1631V226.602H47.9912V230.618Z" fill="white"/>
<path d="M205.726 139.701H214.047V135.82H205.726V139.701Z" fill="white"/>
<path d="M205.726 147.23H214.047V143.349H205.726V147.23Z" fill="white"/>
<path d="M205.726 154.759H214.047V150.879H205.726V154.759Z" fill="white"/>
<path d="M205.726 162.288H214.047V158.408H205.726V162.288Z" fill="white"/>
<path d="M205.726 169.817H214.047V165.937H205.726V169.817Z" fill="white"/>
<path d="M205.726 177.346H214.047V173.466H205.726V177.346Z" fill="white"/>
<path d="M205.726 184.876H214.047V180.995H205.726V184.876Z" fill="white"/>
<path d="M205.726 192.405H214.047V188.524H205.726V192.405Z" fill="white"/>
<path d="M194.404 139.701H202.726V135.82H194.404V139.701Z" fill="white"/>
<path d="M194.404 147.23H202.726V143.349H194.404V147.23Z" fill="white"/>
<path d="M194.404 154.759H202.726V150.879H194.404V154.759Z" fill="white"/>
<path d="M194.404 162.288H202.726V158.408H194.404V162.288Z" fill="white"/>
<path d="M194.404 169.817H202.726V165.937H194.404V169.817Z" fill="white"/>
<path d="M194.404 177.346H202.726V173.466H194.404V177.346Z" fill="white"/>
<path d="M194.404 184.876H202.726V180.995H194.404V184.876Z" fill="white"/>
<path d="M194.404 192.405H202.726V188.524H194.404V192.405Z" fill="white"/>
<path d="M259.871 114.009H268.544V107.888H259.871V114.009Z" fill="white"/>
<path d="M246.949 114.009H255.622V107.888H246.949V114.009Z" fill="white"/>
<path d="M259.871 122.994H268.544V116.873H259.871V122.994Z" fill="white"/>
<path d="M246.949 122.994H255.622V116.873H246.949V122.994Z" fill="white"/>
<path d="M259.871 131.988H268.544V125.867H259.871V131.988Z" fill="white"/>
<path d="M246.949 131.988H255.622V125.867H246.949V131.988Z" fill="white"/>
<path d="M259.871 140.973H268.544V134.852H259.871V140.973Z" fill="white"/>
<path d="M246.949 140.973H255.622V134.852H246.949V140.973Z" fill="white"/>
<path d="M259.871 149.966H268.544V143.846H259.871V149.966Z" fill="white"/>
<path d="M246.949 149.966H255.622V143.846H246.949V149.966Z" fill="white"/>
<path d="M259.871 158.96H268.544V152.839H259.871V158.96Z" fill="white"/>
<path d="M246.949 158.96H255.622V152.839H246.949V158.96Z" fill="white"/>
<path d="M259.871 167.945H268.544V161.824H259.871V167.945Z" fill="white"/>
<path d="M246.949 167.945H255.622V161.824H246.949V167.945Z" fill="white"/>
<path d="M259.871 176.938H268.544V170.818H259.871V176.938Z" fill="white"/>
<path d="M246.949 176.938H255.622V170.818H246.949V176.938Z" fill="white"/>
<path d="M230.922 131.988H239.596V125.867H230.922V131.988Z" fill="white"/>
<path d="M230.922 140.973H239.596V134.852H230.922V140.973Z" fill="white"/>
<path d="M230.922 149.966H239.596V143.846H230.922V149.966Z" fill="white"/>
<path d="M230.922 158.96H239.596V152.839H230.922V158.96Z" fill="white"/>
<path d="M230.922 167.945H239.596V161.824H230.922V167.945Z" fill="white"/>
<path d="M230.922 176.938H239.596V170.818H230.922V176.938Z" fill="white"/>
<path d="M259.871 185.82H268.544V179.699H259.871V185.82Z" fill="white"/>
<path d="M246.949 185.82H255.622V179.699H246.949V185.82Z" fill="white"/>
<path d="M230.922 185.82H239.596V179.699H230.922V185.82Z" fill="white"/>
<path d="M259.871 194.693H268.544V188.572H259.871V194.693Z" fill="white"/>
<path d="M246.949 194.693H255.622V188.572H246.949V194.693Z" fill="white"/>
<path d="M230.922 194.693H239.596V188.572H230.922V194.693Z" fill="white"/>
<path d="M259.871 203.574H268.544V197.454H259.871V203.574Z" fill="white"/>
<path d="M246.949 203.574H255.622V197.454H246.949V203.574Z" fill="white"/>
<path d="M230.922 203.574H239.596V197.454H230.922V203.574Z" fill="white"/>
<path d="M259.871 212.456H268.544V206.335H259.871V212.456Z" fill="white"/>
<path d="M246.949 212.456H255.622V206.335H246.949V212.456Z" fill="white"/>
<path d="M230.922 212.456H239.596V206.335H230.922V212.456Z" fill="white"/>
<path d="M259.871 221.337H268.544V215.216H259.871V221.337Z" fill="white"/>
<path d="M246.949 221.337H255.622V215.216H246.949V221.337Z" fill="white"/>
<path d="M230.922 221.337H239.596V215.216H230.922V221.337Z" fill="white"/>
<path d="M152.615 121.978H157.295V116.617H152.615V121.978Z" fill="white"/>
<path d="M144.501 121.978H149.182V116.617H144.501V121.978Z" fill="white"/>
<path d="M152.615 130.043H157.295V124.683H152.615V130.043Z" fill="white"/>
<path d="M144.501 130.043H149.182V124.683H144.501V130.043Z" fill="white"/>
<path d="M152.615 138.109H157.295V132.748H152.615V138.109Z" fill="white"/>
<path d="M144.501 138.109H149.182V132.748H144.501V138.109Z" fill="white"/>
<path d="M152.615 146.182H157.295V140.821H152.615V146.182Z" fill="white"/>
<path d="M144.501 146.182H149.182V140.821H144.501V146.182Z" fill="white"/>
<path d="M152.615 154.447H157.295V149.086H152.615V154.447Z" fill="white"/>
<path d="M144.501 154.447H149.182V149.086H144.501V154.447Z" fill="white"/>
<path d="M152.615 162.704H157.295V157.343H152.615V162.704Z" fill="white"/>
<path d="M144.501 162.704H149.182V157.343H144.501V162.704Z" fill="white"/>
<path d="M152.615 170.97H157.295V165.609H152.615V170.97Z" fill="white"/>
<path d="M144.501 170.97H149.182V165.609H144.501V170.97Z" fill="white"/>
<path d="M152.615 179.235H157.295V173.874H152.615V179.235Z" fill="white"/>
<path d="M144.501 179.235H149.182V173.874H144.501V179.235Z" fill="white"/>
<path d="M152.615 187.588H157.295V182.227H152.615V187.588Z" fill="white"/>
<path d="M144.501 187.588H149.182V182.227H144.501V187.588Z" fill="white"/>
<path d="M152.615 195.933H157.295V190.572H152.615V195.933Z" fill="white"/>
<path d="M144.501 195.933H149.182V190.572H144.501V195.933Z" fill="white"/>
<path d="M152.615 204.286H157.295V198.926H152.615V204.286Z" fill="white"/>
<path d="M144.501 204.286H149.182V198.926H144.501V204.286Z" fill="white"/>
<path d="M152.615 212.648H157.295V207.287H152.615V212.648Z" fill="white"/>
<path d="M144.501 212.648H149.182V207.287H144.501V212.648Z" fill="white"/>
<path d="M38.2856 123.803H42.9663V117.49H38.2856V123.803Z" fill="white"/>
<path d="M30.1801 123.803H34.8608V117.49H30.1801V123.803Z" fill="white"/>
<path d="M38.2856 133.308H42.9663V126.995H38.2856V133.308Z" fill="white"/>
<path d="M30.1801 133.308H34.8608V126.995H30.1801V133.308Z" fill="white"/>
<path d="M38.2856 142.805H42.9663V136.492H38.2856V142.805Z" fill="white"/>
<path d="M30.1801 142.805H34.8608V136.492H30.1801V142.805Z" fill="white"/>
<path d="M38.2856 152.311H42.9663V145.998H38.2856V152.311Z" fill="white"/>
<path d="M30.1801 152.311H34.8608V145.998H30.1801V152.311Z" fill="white"/>
<path d="M38.2856 162.048H42.9663V155.735H38.2856V162.048Z" fill="white"/>
<path d="M30.1801 162.048H34.8608V155.735H30.1801V162.048Z" fill="white"/>
<path d="M38.2856 171.786H42.9663V165.473H38.2856V171.786Z" fill="white"/>
<path d="M30.1801 171.786H34.8608V165.473H30.1801V171.786Z" fill="white"/>
<path d="M38.2856 181.515H42.9663V175.202H38.2856V181.515Z" fill="white"/>
<path d="M30.1801 181.515H34.8608V175.202H30.1801V181.515Z" fill="white"/>
<path d="M38.2856 191.261H42.9663V184.948H38.2856V191.261Z" fill="white"/>
<path d="M30.1801 191.261H34.8608V184.948H30.1801V191.261Z" fill="white"/>
<path d="M38.2856 201.102H42.9663V194.789H38.2856V201.102Z" fill="white"/>
<path d="M30.1801 201.102H34.8608V194.789H30.1801V201.102Z" fill="white"/>
<path d="M38.2856 210.935H42.9663V204.623H38.2856V210.935Z" fill="white"/>
<path d="M30.1801 210.935H34.8608V204.623H30.1801V210.935Z" fill="white"/>
<path d="M38.2856 220.777H42.9663V214.464H38.2856V220.777Z" fill="white"/>
<path d="M30.1801 220.777H34.8608V214.464H30.1801V220.777Z" fill="white"/>
<path d="M38.2856 230.618H42.9663V224.306H38.2856V230.618Z" fill="white"/>
<path d="M30.1801 230.618H34.8608V224.306H30.1801V230.618Z" fill="white"/>
<path d="M135.251 121.978H139.932V116.617H135.251V121.978Z" fill="white"/>
<path d="M127.139 121.978H131.819V116.617H127.139V121.978Z" fill="white"/>
<path d="M135.251 113.713H139.932V108.352H135.251V113.713Z" fill="white"/>
<path d="M127.139 113.713H131.819V108.352H127.139V113.713Z" fill="white"/>
<path d="M135.251 105.448H139.932V100.087H135.251V105.448Z" fill="white"/>
<path d="M127.139 105.448H131.819V100.087H127.139V105.448Z" fill="white"/>
<path d="M135.251 130.043H139.932V124.683H135.251V130.043Z" fill="white"/>
<path d="M127.139 130.043H131.819V124.683H127.139V130.043Z" fill="white"/>
<path d="M135.251 138.109H139.932V132.748H135.251V138.109Z" fill="white"/>
<path d="M127.139 138.109H131.819V132.748H127.139V138.109Z" fill="white"/>
<path d="M135.251 146.182H139.932V140.821H135.251V146.182Z" fill="white"/>
<path d="M127.139 146.182H131.819V140.821H127.139V146.182Z" fill="white"/>
<path d="M135.251 154.447H139.932V149.086H135.251V154.447Z" fill="white"/>
<path d="M127.139 154.447H131.819V149.086H127.139V154.447Z" fill="white"/>
<path d="M135.251 162.704H139.932V157.343H135.251V162.704Z" fill="white"/>
<path d="M127.139 162.704H131.819V157.343H127.139V162.704Z" fill="white"/>
<path d="M135.251 170.97H139.932V165.609H135.251V170.97Z" fill="white"/>
<path d="M127.139 170.97H131.819V165.609H127.139V170.97Z" fill="white"/>
<path d="M135.251 179.235H139.932V173.874H135.251V179.235Z" fill="white"/>
<path d="M127.139 179.235H131.819V173.874H127.139V179.235Z" fill="white"/>
<path d="M135.251 187.588H139.932V182.227H135.251V187.588Z" fill="white"/>
<path d="M127.139 187.588H131.819V182.227H127.139V187.588Z" fill="white"/>
<path d="M135.251 195.933H139.932V190.572H135.251V195.933Z" fill="white"/>
<path d="M127.139 195.933H131.819V190.572H127.139V195.933Z" fill="white"/>
<path d="M135.251 204.286H139.932V198.926H135.251V204.286Z" fill="white"/>
<path d="M127.139 204.286H131.819V198.926H127.139V204.286Z" fill="white"/>
<path d="M135.251 212.648H139.932V207.287H135.251V212.648Z" fill="white"/>
<path d="M127.139 212.648H131.819V207.287H127.139V212.648Z" fill="white"/>
<path d="M344.411 85.2287H258.262C258.262 85.2287 266.807 61.8972 279.953 61.8972C293.099 61.8972 297.212 78.0036 297.212 78.0036C297.212 78.0036 306.085 69.2503 313.374 69.2503C320.664 69.2503 326.976 80.8121 326.976 80.8121C326.976 80.8121 337.29 74.5951 344.411 85.2287Z" fill="#EBEBEB"/>
<path d="M296.196 39.0858H255.934C255.934 39.0858 264.927 26.0519 272.016 26.0519C279.106 26.0519 281.202 34.7412 281.202 34.7412C281.202 34.7412 286.203 30.6846 290.803 31.4127C295.404 32.1408 296.196 39.0858 296.196 39.0858Z" fill="#EBEBEB"/>
<path d="M109.008 78.2837H30.5962C30.5962 78.2837 41.3338 54.2801 52.8235 52.8079C64.3132 51.3357 69.802 70.6185 69.802 70.6185C69.802 70.6185 77.2112 63.7935 83.036 63.7935C88.8609 63.7935 93.3656 72.7869 93.3656 72.7869C93.3656 72.7869 105.007 66.6259 109.008 78.2837Z" fill="#EBEBEB"/>
<path d="M183.539 18.9388H130.563C130.563 18.9388 139.661 1.56823 149.534 1.3362C159.408 1.10416 164.593 14.4822 164.593 14.4822C164.593 14.4822 179.947 2.13632 183.539 18.9388Z" fill="#EBEBEB"/>
<path d="M219.713 300.805C291.759 300.805 350.164 296.94 350.164 292.172C350.164 287.404 291.759 283.538 219.713 283.538C147.666 283.538 89.2612 287.404 89.2612 292.172C89.2612 296.94 147.666 300.805 219.713 300.805Z" fill="#EBEBEB"/>
<path d="M375 259.223L328.121 259.415L281.25 259.487L187.5 259.615L93.75 259.487L46.879 259.415L0 259.223L46.879 259.023L93.75 258.951L187.5 258.823L281.25 258.951L328.121 259.023L375 259.223Z" fill="#263238"/>
<path d="M181.651 135.468C195.189 149.55 235.859 212.224 239.028 214.096C239.028 214.096 239.028 255.086 216.376 246.901C193.725 238.716 172.962 165.177 168.529 141.733C166.193 129.355 170.593 123.979 181.651 135.468Z" fill="#D3766A"/>
<path d="M178.203 183.923L219.713 179.203C219.713 179.203 193.965 145.046 180.659 132.852C166.785 120.146 159.984 121.93 166.417 145.998C172.882 170.209 178.203 183.923 178.203 183.923Z" fill="#6DDAD3"/>
<path d="M176.25 161.312C175.794 162.457 175.503 163.661 175.386 164.889C176.834 162.887 177.736 160.543 178.003 158.088C177.262 159.07 176.672 160.156 176.25 161.312ZM199.566 162.248C198.424 161.791 197.222 161.5 195.997 161.384C197.995 162.834 200.337 163.736 202.79 164C201.809 163.258 200.722 162.668 199.566 162.248ZM193.381 178.395C192.893 177.266 192.246 176.213 191.461 175.266C191.644 176.481 192 177.664 192.517 178.779C192.99 179.914 193.632 180.972 194.421 181.915C194.242 180.699 193.892 179.513 193.381 178.395ZM169.025 126.387C168.817 125.947 168.609 125.515 168.369 125.083C168.085 125.055 167.798 125.055 167.513 125.083C167.705 125.667 167.921 126.227 168.161 126.787C168.642 127.92 169.286 128.977 170.074 129.923C169.893 128.701 169.54 127.51 169.025 126.387ZM216.865 175.466L216.064 175.786C214.932 176.274 213.874 176.917 212.92 177.699C214.14 177.518 215.328 177.165 216.448 176.65C216.769 176.506 217.081 176.354 217.393 176.186L216.865 175.466ZM184.86 142.493C183.73 142.978 182.674 143.619 181.723 144.398C182.943 144.223 184.132 143.872 185.252 143.357C186.383 142.872 187.439 142.228 188.388 141.445C187.162 141.621 185.968 141.974 184.844 142.493H184.86ZM182.075 142.565C182.028 142.597 181.983 142.632 181.939 142.669H182.083C182.083 142.669 182.059 142.589 182.059 142.565H182.075Z" fill="white"/>
<path d="M180.195 176.458C181.163 176.234 182.179 176.146 183.163 176.01L186.22 175.586C188.276 175.298 190.341 175.042 192.405 174.786C196.533 174.306 200.662 173.802 204.799 173.394C205.935 173.282 207.079 173.17 208.215 173.082C209.351 172.994 210.616 172.994 211.816 172.906C211.888 172.906 211.888 173.01 211.816 173.018C210.8 173.17 209.791 173.402 208.775 173.562C207.759 173.722 206.679 173.866 205.631 173.994C203.574 174.258 201.502 174.498 199.438 174.73C195.373 175.17 191.301 175.634 187.22 175.994L183.812 176.282C182.619 176.386 181.411 176.562 180.211 176.554C180.202 176.551 180.193 176.545 180.187 176.538C180.181 176.53 180.177 176.521 180.175 176.511C180.173 176.501 180.174 176.491 180.178 176.482C180.181 176.473 180.187 176.465 180.195 176.458Z" fill="#263238"/>
<path opacity="0.1" d="M198.342 181.635L178.211 183.923C178.211 183.923 172.89 170.209 166.417 145.998C163.689 135.788 163.345 129.587 164.913 126.795L198.342 181.635Z" fill="black"/>
<path d="M189.716 269.296H126.579C126.059 267.264 125.555 265.296 125.051 263.295C124.475 261.031 123.907 258.823 123.363 256.67C123.243 256.19 123.115 255.71 122.994 255.238C122.578 253.59 122.17 251.99 121.77 250.437C121.53 249.485 121.29 248.549 121.058 247.621C120.826 246.693 120.578 245.749 120.346 244.845C120.282 244.605 120.226 244.364 120.162 244.132L119.97 243.332L119.73 242.396C119.642 242.068 119.562 241.748 119.482 241.428C119.322 240.82 119.17 240.22 119.026 239.636C118.802 238.772 118.586 237.924 118.378 237.099C118.29 236.739 118.194 236.379 118.106 236.027C117.954 235.451 117.81 234.891 117.674 234.339C117.578 233.971 117.49 233.611 117.402 233.259C117.028 231.808 116.682 230.448 116.361 229.178C116.273 228.842 116.193 228.514 116.105 228.194C115.969 227.642 115.833 227.114 115.705 226.594C115.615 226.274 115.535 225.962 115.465 225.658C115.185 224.57 114.929 223.577 114.713 222.705C114.649 222.473 114.593 222.249 114.537 222.033C114.393 221.457 114.257 220.945 114.145 220.489C114.097 220.305 114.057 220.129 114.009 219.969L113.881 219.465C113.881 219.353 113.825 219.241 113.801 219.145L113.689 218.713C113.689 218.643 113.673 218.579 113.641 218.521L113.497 217.953H174.954C174.954 217.953 176.979 224.93 180.219 236.179C180.875 238.468 181.587 240.98 182.347 243.564C184.5 251.069 187.012 259.823 189.716 269.296Z" fill="#37474F"/>
<path d="M136.916 269.296H135.316C132.98 259.625 130.716 249.936 128.523 240.228C127.99 237.865 127.456 235.502 126.923 233.139L126.779 232.475C126.776 232.452 126.782 232.428 126.795 232.409C126.808 232.39 126.828 232.376 126.85 232.371C126.873 232.365 126.896 232.367 126.917 232.378C126.938 232.388 126.954 232.405 126.963 232.427C126.963 232.499 127.003 232.571 127.027 232.643C127.736 235.182 128.443 237.723 129.147 240.268C131.852 249.917 134.441 259.593 136.916 269.296Z" fill="#263238"/>
<path d="M172.962 217.961L170.25 231.563L168.025 242.7L164.241 261.679L163.849 263.623L163.201 266.864L162.696 269.296H126.571C126.059 267.256 125.547 265.296 125.051 263.295C124.475 261.031 123.907 258.823 123.363 256.67C123.243 256.19 123.115 255.71 122.994 255.238C122.578 253.59 122.17 251.99 121.77 250.437C121.53 249.485 121.29 248.549 121.058 247.621C120.826 246.693 120.578 245.749 120.346 244.845C120.282 244.605 120.226 244.364 120.162 244.132L119.97 243.332L119.73 242.396C119.642 242.068 119.562 241.748 119.482 241.428C119.322 240.82 119.17 240.22 119.026 239.636C118.802 238.772 118.586 237.924 118.378 237.099C118.282 236.731 118.194 236.379 118.106 236.027C117.954 235.451 117.81 234.891 117.674 234.339C117.578 233.971 117.49 233.611 117.402 233.259C117.028 231.808 116.682 230.448 116.361 229.178C116.273 228.842 116.193 228.514 116.105 228.194C115.969 227.642 115.833 227.114 115.705 226.594C115.615 226.274 115.535 225.962 115.465 225.658C115.185 224.57 114.929 223.577 114.713 222.705C114.649 222.473 114.593 222.249 114.537 222.033C114.393 221.457 114.257 220.945 114.145 220.489C114.097 220.305 114.057 220.129 114.009 219.969L113.881 219.465C113.881 219.353 113.825 219.241 113.801 219.145L113.689 218.713C113.689 218.643 113.673 218.579 113.641 218.521L113.497 217.953L172.962 217.961Z" fill="#263238"/>
<path d="M172.97 217.937C172.97 218.273 172.714 221.937 172.122 227.538C171.954 229.138 171.754 230.963 171.522 232.883C171.162 235.915 170.722 239.284 170.161 242.796C169.217 248.965 167.985 255.694 166.385 262.271C165.817 264.672 165.193 266.984 164.529 269.28H85.1968C86.1329 257.19 86.989 246.253 87.6691 237.635C88.6213 225.506 89.2694 217.913 89.2694 217.913H161.232L172.97 217.937Z" fill="#37474F"/>
<path d="M172.802 225.226C172.714 228.066 172.594 230.898 172.41 233.723C172.218 236.787 171.938 239.844 171.537 242.9C171.537 243.012 171.537 243.124 171.497 243.236C171.124 246.101 170.695 248.957 170.209 251.806C169.753 254.462 169.409 257.326 168.241 259.807C167.797 260.758 167.166 261.61 166.385 262.311C165.67 262.965 164.795 263.418 163.848 263.623C163.693 263.662 163.535 263.689 163.376 263.703H163.24C163.269 263.72 163.293 263.745 163.309 263.775C163.324 263.804 163.331 263.838 163.328 263.871C163.328 264.824 163.328 265.792 163.216 266.736C163.216 266.776 163.216 266.816 163.216 266.856C163.12 267.656 162.968 268.496 162.816 269.312H161.456V269.264C161.696 268.368 161.896 267.464 162.12 266.56C162.344 265.656 162.664 264.736 162.88 263.799C162.892 263.764 162.914 263.734 162.944 263.711C162.081 263.753 161.225 263.529 160.493 263.07C159.761 262.611 159.186 261.938 158.848 261.143C158.506 259.926 158.484 258.642 158.784 257.414C159.032 255.814 159.272 254.166 159.52 252.542C159.984 249.557 160.584 246.605 161.12 243.636L161.36 242.284C162.424 236.243 163.536 230.202 164.872 224.217C164.921 223.969 164.977 223.721 165.033 223.473C165.089 223.225 165.337 223.353 165.321 223.513C165.281 223.913 165.241 224.313 165.193 224.722C164.958 227.021 164.691 229.309 164.392 231.587C164.008 234.267 163.744 236.963 163.368 239.644C163.24 240.556 163.112 241.468 162.976 242.38C162.36 246.789 161.72 251.181 160.968 255.59C160.616 257.63 159.368 261.287 162.28 261.919C162.953 262.068 163.657 261.981 164.272 261.671C165.569 260.89 166.539 259.664 167.001 258.223C167.721 255.821 168.243 253.364 168.561 250.877C169.041 248.21 169.468 245.519 169.841 242.804C170.321 239.438 170.823 236.075 171.345 232.715C171.607 231.002 171.874 229.29 172.146 227.578L172.53 225.178C172.538 225.01 172.802 225.058 172.802 225.226Z" fill="#263238"/>
<path d="M102.599 246.317C105.903 246.282 109.19 245.839 112.385 244.997C113.857 244.621 115.313 244.148 116.761 243.676C118.196 243.28 119.539 242.606 120.714 241.692C122.938 239.772 123.97 236.755 124.938 234.067C125.989 231.04 126.842 227.948 127.491 224.81C127.491 224.658 127.747 224.714 127.755 224.858C127.832 228.406 127.381 231.947 126.419 235.363C125.619 238.268 124.546 241.5 122.202 243.532C119.858 245.565 116.393 246.429 113.233 246.813C109.689 247.225 106.106 247.177 102.575 246.669C102.528 246.666 102.485 246.644 102.454 246.609C102.423 246.574 102.408 246.527 102.411 246.481C102.414 246.434 102.436 246.391 102.471 246.36C102.506 246.329 102.552 246.314 102.599 246.317Z" fill="#263238"/>
<path d="M97.0865 224.906C96.9105 229.344 96.7238 233.787 96.5264 238.236C96.073 248.589 95.5743 258.943 95.0302 269.296H93.542C94.2248 258.921 94.9422 248.552 95.6943 238.188C96.0197 233.755 96.3557 229.325 96.7025 224.898C96.7035 224.847 96.7248 224.798 96.7615 224.763C96.7983 224.728 96.8476 224.708 96.8985 224.71C96.9494 224.711 96.9978 224.732 97.0331 224.769C97.0684 224.805 97.0876 224.855 97.0865 224.906Z" fill="#263238"/>
<path d="M186.628 250.797L79.0034 242.636C79.0034 242.636 100.655 156.823 143.405 125.275C154.335 117.217 166.296 122.386 171.681 128.411C185.363 143.757 186.948 250.453 186.628 250.797Z" fill="#6DDAD3"/>
<path d="M148.382 129.179C147.93 130.323 147.64 131.524 147.518 132.748C148.255 131.771 148.847 130.693 149.278 129.547C149.73 128.403 150.02 127.203 150.142 125.979C149.408 126.958 148.816 128.035 148.382 129.179ZM136.7 175.474C136.24 176.618 135.952 177.823 135.844 179.051C137.285 177.047 138.184 174.704 138.452 172.25C137.718 173.236 137.128 174.321 136.7 175.474ZM98.2464 195.325C97.7911 196.471 97.5002 197.675 97.3823 198.902C98.8304 196.9 99.7322 194.556 99.9987 192.101C99.2703 193.091 98.6807 194.175 98.2464 195.325ZM129.283 224.57C128.819 225.709 128.527 226.912 128.419 228.138C129.86 226.134 130.759 223.791 131.027 221.337C130.294 222.325 129.706 223.414 129.283 224.57ZM176.25 161.296C175.794 162.441 175.503 163.645 175.386 164.873C176.834 162.871 177.736 160.527 178.002 158.072C177.26 159.059 176.67 160.151 176.25 161.312V161.296ZM157.095 219.505C156.63 220.645 156.336 221.847 156.223 223.073C156.959 222.097 157.549 221.019 157.975 219.873C158.431 218.73 158.722 217.529 158.839 216.304C158.106 217.281 157.519 218.359 157.095 219.505ZM118.313 159.12C117.857 160.262 117.566 161.464 117.449 162.688C118.9 160.689 119.799 158.344 120.058 155.887C119.321 156.873 118.733 157.963 118.313 159.12ZM161.312 143.757C160.171 143.297 158.969 143.005 157.743 142.893C158.721 143.624 159.799 144.212 160.944 144.638C162.087 145.1 163.292 145.391 164.52 145.502C163.541 144.769 162.46 144.181 161.312 143.757ZM173.506 182.331C172.364 181.872 171.162 181.581 169.937 181.467C170.913 182.201 171.991 182.789 173.138 183.211C174.279 183.673 175.481 183.967 176.706 184.083C175.729 183.358 174.65 182.778 173.506 182.363V182.331ZM176.778 228.434C175.636 227.978 174.434 227.687 173.21 227.57C174.185 228.307 175.264 228.897 176.41 229.322C177.553 229.777 178.754 230.067 179.979 230.186C178.997 229.466 177.92 228.887 176.778 228.466V228.434ZM100.167 224.642C99.0246 224.184 97.8229 223.893 96.5982 223.777C98.5955 225.227 100.937 226.129 103.391 226.394C102.404 225.669 101.318 225.09 100.167 224.674V224.642ZM127.859 195.037C126.717 194.578 125.515 194.285 124.29 194.165C125.268 194.901 126.346 195.494 127.491 195.925C128.635 196.377 129.836 196.668 131.059 196.789C130.08 196.064 129.003 195.482 127.859 195.061V195.037ZM169.025 126.363C168.913 126.123 168.801 125.891 168.681 125.659C168.289 125.363 167.881 125.075 167.441 124.795C167.639 125.465 167.879 126.123 168.161 126.763C168.641 127.896 169.286 128.953 170.073 129.899C169.891 128.685 169.538 127.503 169.025 126.387V126.363ZM137.572 151.247C137.09 150.114 136.446 149.058 135.66 148.11C136.045 150.551 137.066 152.847 138.62 154.767C138.444 153.549 138.091 152.363 137.572 151.247ZM165.344 245.925C164.862 244.794 164.221 243.738 163.44 242.788C163.617 244.005 163.968 245.191 164.48 246.309C164.936 247.361 165.525 248.35 166.233 249.253H166.361C166.176 248.102 165.834 246.982 165.344 245.925ZM155.127 190.164C154.64 189.034 153.996 187.978 153.215 187.028C153.612 189.463 154.629 191.755 156.167 193.685C155.99 192.468 155.64 191.282 155.127 190.164ZM81.82 232.683C81.772 232.851 81.724 233.019 81.668 233.179C81.772 233.291 81.868 233.411 81.964 233.523C81.932 233.248 81.8839 232.976 81.82 232.707V232.683ZM113.825 211.336C113.339 210.207 112.695 209.154 111.912 208.207C112.299 210.645 113.32 212.938 114.873 214.856C114.682 213.646 114.321 212.469 113.801 211.36L113.825 211.336ZM120.69 242.14C120.204 241.009 119.56 239.953 118.778 239.004C119.174 241.443 120.193 243.739 121.738 245.669C121.55 244.458 121.189 243.28 120.666 242.172L120.69 242.14ZM174.514 205.079C173.384 205.566 172.328 206.21 171.377 206.991C172.595 206.811 173.78 206.458 174.898 205.943C176.033 205.46 177.092 204.816 178.042 204.03C176.812 204.213 175.616 204.575 174.49 205.103L174.514 205.079ZM89.6212 209.751L89.2131 210.855C90.076 210.439 90.8826 209.915 91.6135 209.295C90.9266 209.385 90.2508 209.546 89.5971 209.775L89.6212 209.751ZM144.493 236.411C143.362 236.893 142.306 237.534 141.357 238.316C142.576 238.137 143.764 237.787 144.885 237.275C146.016 236.785 147.071 236.139 148.022 235.355C146.791 235.537 145.593 235.901 144.469 236.435L144.493 236.411ZM95.422 243.548L94.8699 243.812L96.7502 243.956C97.5361 243.56 98.2721 243.071 98.9426 242.5C97.7162 242.688 96.5227 243.049 95.398 243.572L95.422 243.548ZM114.273 177.755C113.146 178.247 112.091 178.89 111.136 179.667C113.575 179.273 115.871 178.256 117.801 176.714C116.572 176.895 115.375 177.253 114.249 177.779L114.273 177.755ZM141.861 208.399C140.73 208.887 139.674 209.534 138.724 210.319C141.165 209.927 143.462 208.907 145.389 207.359C144.161 207.543 142.964 207.901 141.837 208.423L141.861 208.399ZM156.263 166.273C155.135 166.763 154.079 167.407 153.127 168.185C155.565 167.798 157.86 166.781 159.784 165.233C158.549 165.414 157.347 165.772 156.215 166.297L156.263 166.273Z" fill="white"/>
<path d="M165.585 146.342C159.376 145.422 153.071 132.892 151.983 124.347C151.911 123.754 161.584 105.296 163.096 101.447C163.409 100.647 184.98 116.937 184.98 116.937C184.98 116.937 179.379 124.075 176.763 130.82C176.578 131.38 171.586 147.222 165.585 146.342Z" fill="#D3766A"/>
<path d="M185.012 116.937C185.012 116.937 179.411 124.075 176.786 130.812C176.738 130.948 176.418 131.94 175.89 133.356C164.801 127.755 160.28 117.754 158.456 111.153C160.552 106.952 162.504 103.007 163.128 101.447C163.44 100.655 185.012 116.937 185.012 116.937Z" fill="#263238"/>
<path d="M168.081 71.4667C161.768 78.7718 155.455 105.12 159.063 113.217C164.304 124.947 178.266 131.996 189.564 124.499C200.55 117.225 208.167 82.7404 203.63 74.8352C196.957 63.1854 177.394 60.6811 168.081 71.4667Z" fill="#D3766A"/>
<path d="M184.948 92.8699C184.147 92.9339 183.347 92.8699 182.547 92.8699C181.698 92.9855 180.834 92.8167 180.091 92.3898C179.884 92.2097 179.741 91.9663 179.686 91.6973C179.631 91.4282 179.667 91.1485 179.787 90.9016C180.099 90.4504 180.527 90.0908 181.024 89.8601C181.522 89.6294 182.073 89.536 182.619 89.5894C183.741 89.5234 184.848 89.877 185.724 90.5815C185.909 90.7561 186.04 90.9802 186.102 91.2273C186.164 91.4744 186.153 91.7339 186.071 91.9751C185.989 92.2162 185.84 92.4288 185.641 92.5874C185.441 92.746 185.201 92.8441 184.948 92.8699Z" fill="#263238"/>
<path d="M184.243 96.7344C184.243 96.6624 184.083 96.7904 184.067 96.8705C183.771 98.6707 183.123 100.687 181.387 100.959C181.331 100.959 181.315 101.055 181.387 101.063C183.411 101.175 184.243 98.4947 184.243 96.7344Z" fill="#263238"/>
<path d="M183.011 94.5421C180.171 93.742 178.795 99.4948 181.411 100.223C184.027 100.951 185.388 95.2062 183.011 94.5421Z" fill="#263238"/>
<path d="M194.565 98.9508C194.565 98.8868 194.685 99.0708 194.669 99.1428C194.189 100.903 193.933 103.007 195.397 103.944C195.445 103.944 195.397 104.064 195.357 104.04C193.461 103.335 193.829 100.551 194.565 98.9508Z" fill="#263238"/>
<path d="M196.598 97.4785C199.51 97.9426 198.366 103.727 195.669 103.295C192.973 102.863 194.157 97.0865 196.598 97.4785Z" fill="#263238"/>
<path d="M199.55 94.6301C198.815 94.2885 198.099 93.9065 197.406 93.4859C196.592 93.1855 195.903 92.6223 195.445 91.8857C195.345 91.6282 195.333 91.3448 195.411 91.0798C195.49 90.8149 195.653 90.5833 195.877 90.4215C196.862 89.7814 197.998 90.0774 199.006 90.5735C200.034 91.0417 200.852 91.874 201.302 92.9099C201.397 93.1535 201.418 93.4195 201.363 93.6749C201.308 93.9304 201.179 94.1642 200.993 94.3472C200.806 94.5303 200.57 94.6547 200.314 94.705C200.057 94.7552 199.792 94.7292 199.55 94.6301Z" fill="#263238"/>
<path d="M178.29 112.137C178.61 112.657 178.898 113.329 179.531 113.537C180.198 113.681 180.888 113.681 181.555 113.537C181.568 113.536 181.582 113.539 181.594 113.546C181.605 113.553 181.614 113.563 181.62 113.575C181.625 113.588 181.626 113.602 181.623 113.615C181.62 113.628 181.613 113.64 181.603 113.649C181.266 113.937 180.858 114.128 180.421 114.203C179.984 114.277 179.536 114.233 179.122 114.073C178.782 113.893 178.502 113.616 178.32 113.277C178.137 112.938 178.06 112.552 178.098 112.169C178.098 112.065 178.242 112.057 178.29 112.137Z" fill="#263238"/>
<path d="M181.427 107.264C181.713 108.074 182.162 108.817 182.747 109.446C183.332 110.075 184.04 110.577 184.828 110.921C185.512 111.229 186.237 111.44 186.98 111.545C187.119 111.576 187.262 111.592 187.404 111.593C187.54 111.601 187.676 111.601 187.812 111.593C187.911 111.599 188.009 111.571 188.091 111.515C188.172 111.458 188.232 111.375 188.26 111.281C188.264 111.217 188.264 111.153 188.26 111.089V110.929C188.62 109.568 188.989 107.456 188.989 107.456C189.429 107.824 191.701 109.584 191.837 108.856C192.901 102.855 194.077 96.1824 193.869 89.9814C193.869 89.9369 193.852 89.8941 193.82 89.8626C193.789 89.8311 193.746 89.8134 193.701 89.8134C193.657 89.8134 193.614 89.8311 193.582 89.8626C193.551 89.8941 193.533 89.9369 193.533 89.9814C192.285 95.7103 192.053 101.623 190.885 107.4C190.102 106.757 189.232 106.229 188.3 105.832C188.092 105.832 187.668 109.928 187.452 110.521C187.454 110.542 187.454 110.563 187.452 110.585C185.052 110.328 183.516 109.216 181.651 107.144C181.531 107.008 181.355 107.096 181.427 107.264Z" fill="#263238"/>
<path d="M186.34 110.657C185.354 111.452 184.18 111.981 182.931 112.193C182.248 112.288 181.551 112.168 180.939 111.849C179.611 111.137 179.883 109.824 180.411 108.768C180.698 108.212 181.05 107.691 181.459 107.216C182.677 108.855 184.387 110.061 186.34 110.657Z" fill="#263238"/>
<path d="M182.931 112.193C182.248 112.288 181.551 112.168 180.939 111.849C179.611 111.137 179.883 109.824 180.411 108.768C181.899 109.288 183.155 110.689 182.931 112.193Z" fill="#FF97B8"/>
<path d="M206.047 85.0927C194.845 89.7814 183.515 76.8115 183.515 76.8115C182.232 78.7799 180.347 80.281 178.141 81.0913C175.935 81.9016 173.526 81.9776 171.274 81.3081C171.274 81.3081 165.897 97.5266 161.512 96.5504C154.847 95.1262 157.511 72.0347 160.528 68.0181C163.544 64.0015 169.465 64.0175 169.465 64.0175C169.465 64.0175 170.593 60.649 175.378 58.3527C180.659 55.8083 195.381 63.7855 195.381 63.7855C196.717 61.8691 198.485 60.2932 200.542 59.1848C201.038 58.9058 201.586 58.7304 202.153 58.6694C202.719 58.6084 203.292 58.6629 203.836 58.8297C204.381 58.9966 204.886 59.2722 205.321 59.6399C205.756 60.0076 206.112 60.4598 206.367 60.9691C205.274 62.0205 204.434 63.3064 203.91 64.7297C202.11 69.4344 206.087 70.2585 206.975 65.8338C207.361 64.1917 207.145 62.4657 206.367 60.9691C208.927 58.4887 212.328 58.2167 213.952 60.169C216.936 63.7455 215.368 81.2041 206.047 85.0927Z" fill="#263238"/>
<path d="M178.571 105.64C177.192 105.198 175.966 104.378 175.031 103.273C174.096 102.168 173.489 100.823 173.281 99.3906C173.073 97.9582 173.272 96.4962 173.854 95.171C174.436 93.8458 175.379 92.7107 176.574 91.895C177.77 91.0792 179.17 90.6156 180.617 90.5568C182.063 90.4981 183.497 90.8466 184.754 91.5628C186.012 92.2789 187.044 93.3338 187.731 94.6074C188.419 95.8811 188.735 97.3222 188.644 98.7667C188.568 99.9398 188.227 101.08 187.644 102.101C187.062 103.123 186.255 103.998 185.284 104.66C184.313 105.323 183.203 105.755 182.04 105.925C180.877 106.095 179.69 105.997 178.571 105.64ZM182.987 91.9177C182.468 91.7497 181.931 91.6449 181.387 91.6057C179.682 91.4846 177.994 92.0189 176.669 93.0994C175.344 94.1799 174.482 95.7253 174.257 97.4202C174.032 99.1151 174.463 100.832 175.461 102.22C176.459 103.608 177.949 104.563 179.627 104.891C181.305 105.218 183.045 104.893 184.491 103.981C185.938 103.069 186.982 101.64 187.41 99.9851C187.839 98.33 187.62 96.5737 186.798 95.0745C185.976 93.5754 184.613 92.4463 182.987 91.9177Z" fill="#FFC727"/>
<path d="M195.621 108.872C192.853 107.832 191.412 104.072 192.421 100.143C192.85 98.2634 193.861 96.5669 195.309 95.2942C195.894 94.7044 196.622 94.2766 197.422 94.0525C198.222 93.8284 199.066 93.8157 199.873 94.0157C200.679 94.2156 201.42 94.6214 202.022 95.1933C202.625 95.7652 203.068 96.4837 203.31 97.2785C203.988 99.0838 204.086 101.056 203.59 102.919C202.566 107.048 199.23 109.792 196.149 109.024C195.969 108.99 195.792 108.939 195.621 108.872ZM199.95 95.1502L199.574 95.0382C198.927 94.9076 198.259 94.9347 197.625 95.1171C196.991 95.2996 196.411 95.632 195.933 96.0863C194.655 97.2206 193.763 98.7254 193.381 100.391C192.493 103.976 193.813 107.4 196.349 108.024C198.885 108.648 201.654 106.248 202.542 102.671C202.987 101.02 202.903 99.2713 202.302 97.6706C202.109 97.1089 201.799 96.5943 201.394 96.16C200.989 95.7258 200.497 95.3817 199.95 95.1502Z" fill="#FFC727"/>
<path d="M188.22 99.5989L187.724 98.6947C189.06 97.9506 191.973 97.1825 193.437 99.4948L192.557 100.039C191.253 97.9666 188.34 99.5269 188.22 99.5989Z" fill="#FFC727"/>
<path d="M154.071 94.8782L153.271 94.2381C153.575 93.862 156.271 90.5575 158.6 90.6375C160.784 90.7175 174.114 94.6381 174.682 94.8382L174.386 95.8303C170.562 94.6941 160.256 91.7257 158.568 91.6697C157.016 91.6137 154.799 93.966 154.071 94.8782Z" fill="#FFC727"/>
<path d="M164.369 95.0462C164.369 95.0462 162.216 84.7406 157.768 85.1807C153.319 85.6208 152.567 98.8788 156.128 102.263C156.553 102.729 157.068 103.103 157.641 103.364C158.215 103.625 158.836 103.767 159.466 103.782C160.096 103.797 160.723 103.685 161.308 103.451C161.894 103.217 162.426 102.868 162.873 102.423L164.369 95.0462Z" fill="#D3766A"/>
<path d="M157.647 88.9893C157.583 88.9493 157.527 89.0373 157.575 89.0933C160.032 91.5577 160.408 94.9742 160.288 98.2867C159.872 96.8145 158.927 95.6943 157.007 96.1184C156.911 96.1184 156.935 96.2864 157.007 96.3104C157.6 96.3651 158.16 96.6035 158.611 96.9923C159.061 97.381 159.379 97.9006 159.52 98.4787C159.754 99.4435 159.886 100.431 159.912 101.423C159.912 101.751 160.472 101.815 160.504 101.423C160.5 101.397 160.5 101.37 160.504 101.343C162.216 97.6466 161.544 91.1016 157.647 88.9893Z" fill="#263238"/>
<path d="M219.225 167.377C221.249 162.048 268.184 171.698 266.312 179.867C259.439 209.791 240.284 236.531 235.443 242.644C229.09 250.645 216.448 248.869 211.84 244.02C205.159 236.987 217.225 172.658 219.225 167.377Z" fill="#D3766A"/>
<path d="M215.92 182.067C214.877 184.935 214.051 187.877 213.448 190.868C212.768 193.829 212.176 196.805 211.696 199.798C210.747 205.851 210.212 211.962 210.095 218.089C210.007 221.513 210.095 224.93 210.095 228.354C210.095 228.434 210.223 228.426 210.223 228.354C210.223 225.322 210.407 222.265 210.655 219.241C210.903 216.216 211.207 213.136 211.599 210.103C212.36 204.142 213.2 198.19 214.28 192.277C214.579 190.618 214.891 188.964 215.216 187.316C215.56 185.604 215.952 183.899 216.176 182.163C216.176 182.035 215.976 181.923 215.92 182.067Z" fill="#263238"/>
<path d="M207.903 83.0364C207.594 87.1111 206.984 91.1574 206.079 95.1422C205.927 95.8223 205.758 96.5184 205.59 97.2065C204.918 99.9429 204.118 102.695 203.19 105.344C202.977 105.984 202.753 106.616 202.518 107.24C199.678 114.913 195.925 121.514 191.7 124.315C190.628 125.034 189.489 125.65 188.3 126.155C182.244 122.623 177.186 117.608 173.603 111.582C170.019 105.556 168.028 98.7173 167.817 91.7097L166.537 91.3576C166.737 91.0456 166.945 90.7255 167.145 90.3895C167.345 90.0534 167.593 89.6294 167.809 89.2293C168.129 78.928 172.29 69.1189 179.475 61.7292C189.532 59.0248 201.574 62.8894 206.639 71.7147C207.871 73.899 208.247 78.0116 207.903 83.0364Z" fill="#D3766A"/>
<path d="M186.82 90.8136C185.97 90.8576 185.118 90.8576 184.268 90.8136C183.284 90.8136 182.499 90.8856 181.659 90.3015C181.433 90.1101 181.278 89.8477 181.22 89.5572C181.162 89.2666 181.204 88.9649 181.339 88.7012C181.955 87.6131 183.156 87.333 184.34 87.309C185.528 87.2387 186.7 87.6122 187.628 88.3572C187.834 88.5396 187.982 88.7783 188.054 89.0437C188.125 89.3092 188.118 89.5899 188.032 89.8511C187.946 90.1123 187.785 90.3426 187.57 90.5137C187.355 90.6847 187.094 90.789 186.82 90.8136Z" fill="#263238"/>
<path d="M186.076 94.9502C186.076 94.8782 185.908 95.0142 185.892 95.0862C185.58 96.9985 184.892 99.1348 183.052 99.4228C182.996 99.4228 182.98 99.5268 183.052 99.5348C185.196 99.6149 186.076 96.7744 186.076 94.9502Z" fill="#263238"/>
<path d="M184.772 92.5898C181.763 91.7497 180.307 97.8306 183.091 98.6067C185.876 99.3828 187.292 93.2939 184.772 92.5898Z" fill="#263238"/>
<path d="M197.013 97.2545C197.013 97.1905 197.141 97.3825 197.117 97.4625C196.605 99.3268 196.317 101.551 197.917 102.583C197.965 102.583 197.917 102.711 197.877 102.687C195.845 101.895 196.229 98.9508 197.013 97.2545Z" fill="#263238"/>
<path d="M199.166 95.6943C202.246 96.1904 201.03 102.319 198.173 101.863C195.317 101.407 196.581 95.2782 199.166 95.6943Z" fill="#263238"/>
<path d="M202.286 92.6778C201.486 92.3338 200.79 91.8777 200.022 91.4697C199.164 91.1548 198.434 90.5674 197.942 89.7974C197.837 89.5257 197.825 89.227 197.907 88.9477C197.99 88.6684 198.162 88.4242 198.398 88.2532C199.446 87.5731 200.646 87.8851 201.71 88.4132C202.789 88.9119 203.644 89.7928 204.111 90.8856C204.201 91.1388 204.218 91.4128 204.158 91.675C204.098 91.9373 203.964 92.1769 203.772 92.3654C203.58 92.554 203.338 92.6836 203.075 92.739C202.812 92.7943 202.538 92.7731 202.286 92.6778Z" fill="#263238"/>
<path d="M179.771 111.225C180.115 111.769 180.419 112.481 181.091 112.705C181.795 112.861 182.524 112.861 183.227 112.705C183.242 112.704 183.255 112.708 183.267 112.715C183.28 112.723 183.289 112.734 183.295 112.746C183.301 112.759 183.303 112.773 183.301 112.787C183.299 112.801 183.293 112.814 183.283 112.825C182.926 113.131 182.493 113.334 182.029 113.413C181.566 113.491 181.089 113.443 180.651 113.273C180.292 113.082 179.997 112.788 179.805 112.429C179.612 112.07 179.531 111.662 179.571 111.257C179.563 111.145 179.715 111.145 179.771 111.225Z" fill="#263238"/>
<path d="M183.099 106.056C183.398 106.916 183.871 107.704 184.489 108.372C185.108 109.04 185.858 109.573 186.692 109.936C187.416 110.263 188.184 110.484 188.972 110.593C189.122 110.626 189.275 110.645 189.428 110.649C189.569 110.657 189.711 110.657 189.852 110.649C189.957 110.655 190.062 110.627 190.149 110.567C190.236 110.508 190.3 110.421 190.332 110.32C190.341 110.257 190.341 110.192 190.332 110.128V109.96C190.716 108.52 191.132 106.28 191.132 106.28C191.596 106.672 194.005 108.536 194.141 107.768C195.269 101.367 196.541 94.3341 196.301 87.7651C196.301 87.7184 196.283 87.6736 196.25 87.6406C196.217 87.6076 196.172 87.5891 196.125 87.5891C196.078 87.5891 196.034 87.6076 196.001 87.6406C195.968 87.6736 195.949 87.7184 195.949 87.7651C194.621 93.83 194.349 100.095 193.141 106.168C192.284 105.506 191.339 104.967 190.332 104.568C190.116 104.568 189.66 108.904 189.436 109.536C189.44 109.558 189.44 109.579 189.436 109.6C186.932 109.328 185.268 108.16 183.299 105.952C183.203 105.792 183.019 105.88 183.099 106.056Z" fill="#263238"/>
<path d="M188.3 109.656C187.255 110.492 186.012 111.043 184.691 111.257C183.969 111.36 183.232 111.231 182.587 110.889C181.171 110.136 181.467 108.744 182.027 107.632C182.329 107.041 182.699 106.488 183.131 105.984C184.417 107.729 186.229 109.016 188.3 109.656Z" fill="#263238"/>
<path d="M184.684 111.281C183.961 111.384 183.224 111.255 182.579 110.913C181.163 110.16 181.459 108.768 182.019 107.656C183.587 108.208 184.924 109.68 184.684 111.281Z" fill="#FF97B8"/>
<path d="M209.167 82.5803C208.743 82.7563 208.319 82.9084 207.903 83.0364C196.445 86.5889 185.3 73.803 185.3 73.803C183.946 75.8945 181.953 77.4921 179.617 78.3574C177.28 79.2226 174.727 79.309 172.338 78.6037C171.095 82.265 169.573 85.8253 167.785 89.2533C168 82.4496 169.892 75.8042 173.292 69.9071C176.692 64.0099 181.496 59.0434 187.276 55.4483C190.926 56.729 194.477 58.2746 197.902 60.073C199.32 58.0433 201.194 56.3745 203.374 55.2002C203.9 54.9043 204.48 54.718 205.079 54.6527C205.678 54.5873 206.285 54.6443 206.861 54.8201C207.438 54.9958 207.973 55.2868 208.434 55.6753C208.895 56.0639 209.272 56.5419 209.543 57.0805C208.389 58.203 207.5 59.57 206.943 61.0811C205.039 66.0579 209.247 66.93 210.183 62.2493C210.597 60.508 210.37 58.676 209.543 57.0885C212.256 54.4721 215.856 54.1841 217.545 56.2884C220.697 59.9849 219.049 78.4597 209.167 82.5803Z" fill="#263238"/>
<path d="M187.796 90.2615C186.464 89.1518 184.813 88.4959 183.083 88.3892C182.563 88.3554 182.04 88.3742 181.523 88.4452C180.226 88.6128 178.989 89.0891 177.914 89.8339C176.839 90.5787 175.958 91.5704 175.346 92.7258C175.169 93.049 175.019 93.3861 174.898 93.734C174.62 94.4731 174.456 95.25 174.41 96.0383C174.298 97.854 174.793 99.6553 175.817 101.159C176.842 102.662 178.336 103.783 180.067 104.344C180.716 104.548 181.388 104.674 182.067 104.72H182.579C184.541 104.723 186.439 104.024 187.929 102.748C189.418 101.473 190.402 99.7052 190.7 97.7666C190.7 97.5346 190.756 97.3025 190.772 97.0625C190.788 96.8225 190.772 96.7104 190.772 96.5424C190.77 95.3408 190.502 94.1547 189.987 93.0689C189.473 91.9831 188.724 91.0244 187.796 90.2615ZM182.131 103.623C180.411 103.513 178.79 102.78 177.571 101.561C176.352 100.342 175.619 98.7209 175.509 97.0006C175.4 95.2804 175.92 93.579 176.974 92.2149C178.028 90.8508 179.543 89.9174 181.235 89.5894C181.823 89.4755 182.422 89.4379 183.019 89.4774C183.607 89.5157 184.187 89.6258 184.748 89.8054C185.462 90.0351 186.135 90.3782 186.74 90.8216C187.983 91.722 188.901 93.0022 189.353 94.4694C189.806 95.9365 189.77 97.511 189.25 98.9556C188.73 100.4 187.754 101.637 186.47 102.479C185.186 103.321 183.663 103.722 182.131 103.623Z" fill="#6DDAD3"/>
<path d="M206.223 95.4862L206.079 95.1422C205.589 94.0172 204.746 93.0821 203.678 92.4778C203.334 92.2861 202.965 92.1408 202.582 92.0457C202.025 91.9101 201.447 91.8775 200.878 91.9497C199.718 92.112 198.63 92.6098 197.749 93.3819C197.088 93.9455 196.516 94.6065 196.053 95.3422C195.7 95.8874 195.403 96.4663 195.165 97.0705C195.002 97.46 194.868 97.8612 194.765 98.2707C194.736 98.3519 194.712 98.4347 194.693 98.5187C194.219 100.333 194.269 102.245 194.837 104.032C195.074 104.859 195.492 105.624 196.061 106.27C196.63 106.916 197.335 107.428 198.126 107.768C198.294 107.832 198.462 107.88 198.638 107.928C199.3 108.079 199.986 108.095 200.655 107.977C201.324 107.859 201.963 107.608 202.534 107.24C204.572 105.908 206.008 103.832 206.535 101.455C207.057 99.4818 206.948 97.3944 206.223 95.4862ZM205.423 101.191C205.059 102.752 204.282 104.186 203.174 105.344C202.653 105.952 201.98 106.412 201.225 106.679C200.47 106.946 199.657 107.009 198.87 106.864C196.181 106.2 194.781 102.575 195.725 98.7827C196.129 97.0195 197.071 95.4255 198.422 94.2221C198.93 93.7413 199.546 93.3894 200.219 93.1958C200.891 93.0023 201.6 92.9729 202.286 93.1099C202.419 93.1415 202.55 93.1816 202.678 93.2299C203.258 93.4769 203.779 93.8422 204.209 94.3024C204.639 94.7626 204.968 95.3076 205.175 95.9023C205.346 96.3232 205.474 96.7601 205.559 97.2065C205.814 98.5265 205.779 99.8863 205.455 101.191H205.423Z" fill="#6DDAD3"/>
<path d="M190.284 97.9426L189.764 96.9825C191.18 96.1823 194.269 95.3822 195.813 97.8626L194.885 98.4387C193.501 96.2144 190.42 97.8706 190.284 97.9426Z" fill="#6DDAD3"/>
<path d="M175.939 92.9019L175.627 93.95L174.898 93.734C173.098 93.2059 170.442 92.4378 167.793 91.7017L166.513 91.3496C166.713 91.0376 166.921 90.7175 167.121 90.3815L167.769 90.5655C170.97 91.4457 174.066 92.3498 175.346 92.7258L175.939 92.9019Z" fill="#6DDAD3"/>
<g opacity="0.3">
<path opacity="0.3" d="M217.904 130.788C209.933 132.543 201.619 131.896 194.016 128.926C186.412 125.957 179.86 120.8 175.187 114.107C170.515 107.414 167.932 99.4854 167.766 91.3244C167.6 83.1634 169.857 75.1363 174.253 68.2583C178.649 61.3803 184.985 55.9604 192.462 52.6839C199.938 49.4073 208.218 48.4214 216.254 49.8508C224.291 51.2802 231.723 55.0607 237.611 60.7142C243.499 66.3677 247.578 73.6403 249.333 81.6122C250.499 86.9048 250.611 92.3752 249.662 97.711C248.714 103.047 246.723 108.144 243.805 112.71C240.886 117.277 237.097 121.223 232.653 124.325C228.209 127.427 223.197 129.623 217.904 130.788Z" fill="white"/>
<path opacity="0.3" d="M172.833 110.296C178.061 119.839 186.844 126.933 197.274 130.036C207.703 133.139 218.936 132 228.53 126.867L172.833 110.296Z" fill="#EBEBEB"/>
<path opacity="0.3" d="M174.018 68.6663L250.301 91.3656C250.367 88.088 250.045 84.814 249.341 81.6122C248.543 77.939 247.237 74.395 245.46 71.0826L189.148 54.3201C182.961 57.7295 177.751 62.6689 174.018 68.6663Z" fill="#EBEBEB"/>
<path opacity="0.3" d="M168.065 95.3022L240.724 116.905C242.455 114.826 243.98 112.583 245.276 110.208L167.905 87.181C167.682 89.8865 167.736 92.6076 168.065 95.3022Z" fill="#EBEBEB"/>
<path opacity="0.3" d="M171.377 73.659L249.789 96.9985C249.869 96.5024 249.941 96.0063 249.997 95.5103L172.001 72.3068C171.785 72.7469 171.569 73.1949 171.377 73.659Z" fill="#EBEBEB"/>
<path opacity="0.3" d="M202.206 49.7914L237.011 60.145C236.107 59.3049 235.155 58.5447 234.171 57.7446L205.903 49.3434C204.664 49.4292 203.43 49.5788 202.206 49.7914Z" fill="#EBEBEB"/>
</g>
<path d="M223.585 181.805L234.181 179.471L223.919 132.877L213.323 135.21L223.585 181.805Z" fill="#EBEBEB"/>
<path d="M253.846 80.62C251.895 71.7584 247.359 63.6745 240.814 57.3904C234.268 51.1064 226.006 46.9044 217.072 45.3159C208.138 43.7275 198.934 44.8238 190.623 48.4663C182.313 52.1088 175.269 58.1339 170.382 65.7797C165.496 73.4255 162.986 82.3486 163.171 91.4206C163.356 100.493 166.227 109.306 171.42 116.747C176.614 124.187 183.898 129.92 192.35 133.221C200.802 136.522 210.043 137.243 218.905 135.292C230.786 132.672 241.141 125.441 247.693 115.189C254.245 104.937 256.458 92.5032 253.846 80.62ZM217.905 130.788C209.933 132.545 201.619 131.899 194.015 128.931C186.411 125.963 179.857 120.806 175.184 114.114C170.51 107.421 167.926 99.4928 167.759 91.3316C167.591 83.1703 169.848 75.1427 174.243 68.264C178.638 61.3853 184.974 55.9645 192.451 52.6872C199.927 49.4098 208.207 48.4231 216.244 49.852C224.281 51.2808 231.714 55.0609 237.602 60.7142C243.491 66.3675 247.57 73.6401 249.325 81.6122C250.491 86.9042 250.604 92.3741 249.656 97.7095C248.708 103.045 246.718 108.141 243.8 112.708C240.882 117.274 237.094 121.221 232.651 124.323C228.207 127.425 223.197 129.622 217.905 130.788Z" fill="#455A64"/>
<path d="M227.962 214.592L243.988 211.063L234.899 169.753L218.865 173.282L227.962 214.592Z" fill="#263238"/>
<path d="M234.955 85.0767C234.938 85.0298 234.924 84.9816 234.915 84.9327C234.723 84.2446 235.123 85.5968 234.979 85.1487C234.835 84.7006 234.627 84.0686 234.427 83.5485C233.727 81.6923 232.87 79.8989 231.866 78.1877C231.73 77.9476 231.578 77.7076 231.442 77.4676C231.394 77.3875 231.794 78.0276 231.442 77.5236L231.162 77.0915C230.794 76.5394 230.418 75.9953 230.026 75.4913C229.159 74.3204 228.216 73.2084 227.202 72.1628L226.465 71.4267C226.129 71.0986 226.858 71.7867 226.393 71.3627L225.929 70.9386C225.329 70.4185 224.713 69.9144 224.073 69.4344C223.433 68.9543 222.673 68.4262 221.945 67.9701C221.609 67.7621 221.273 67.5621 220.929 67.3701C220.337 67.026 221.185 67.4901 220.745 67.266L220.113 66.946C218.201 66.0055 216.202 65.2551 214.144 64.7057H214.04L213.816 64.6576L212.895 64.4576C212.295 64.3376 211.703 64.2336 211.095 64.1456C209.824 63.9637 208.545 63.8462 207.263 63.7935C206.906 63.7531 206.562 63.6429 206.248 63.4692C205.934 63.2955 205.658 63.0617 205.435 62.7813C204.984 62.2148 204.777 61.4924 204.858 60.7731C204.94 60.0537 205.304 59.3962 205.871 58.9453C206.437 58.4944 207.159 58.287 207.879 58.3687C216.054 58.6216 223.872 61.7788 229.93 67.274C233.955 71.0432 237.102 75.6514 239.147 80.7721C239.616 81.9152 240.006 83.0887 240.316 84.2846C240.426 84.9994 240.249 85.729 239.823 86.3138C239.398 86.8985 238.758 87.2909 238.043 87.4051C237.331 87.5009 236.608 87.3182 236.027 86.8949C235.446 86.4716 235.05 85.8404 234.923 85.1327L234.955 85.0767Z" fill="white"/>
<path d="M236.075 93.1179C236.157 93.644 236.392 94.1342 236.752 94.5263C237.112 94.9185 237.581 95.1949 238.098 95.3205C238.615 95.4462 239.158 95.4154 239.658 95.2321C240.158 95.0488 240.592 94.7213 240.905 94.291C241.219 93.8607 241.397 93.347 241.419 92.8151C241.44 92.2832 241.303 91.7569 241.024 91.3031C240.746 90.8492 240.339 90.4882 239.856 90.2657C239.372 90.0432 238.833 89.9693 238.308 90.0534C237.606 90.1656 236.978 90.5509 236.559 91.1252C236.141 91.6994 235.967 92.4158 236.075 93.1179Z" fill="white"/>
<path d="M263.159 189.22C263.159 189.22 274.617 170.385 260.351 152.415C254.478 145.022 240.62 131.764 212.504 133.612C205.831 134.052 196.637 139.405 207.791 142.645C215.712 144.95 221.433 144.013 225.802 146.19C225.802 146.19 214.912 154.391 215.616 161.056C215.928 164.032 216.16 170.537 217.881 176.73C217.881 176.73 220.137 178.331 221.969 178.059C221.969 178.059 226.906 192.301 244.661 196.677L263.159 189.22Z" fill="#D3766A"/>
<path d="M254.326 149.998C249.733 148.166 239.924 144.454 230.843 144.198C220.753 143.917 201.238 146.102 201.118 153.551C201.022 159.016 208.543 158.832 208.543 158.832C208.543 158.832 200.67 161.432 201.67 166.385C202.574 170.898 208.383 170.385 208.383 170.385C208.383 170.385 203.879 172.786 205.591 176.962C207.647 181.987 216.744 176.162 223.193 179.427C224.682 180.195 254.326 149.998 254.326 149.998Z" fill="#D3766A"/>
<path d="M232.307 154.903C227.706 153.895 216.657 154.279 208.639 158.656C208.455 158.752 208.431 158.944 208.639 158.888C216.343 156.641 224.29 155.335 232.307 154.999C232.379 154.999 232.379 154.959 232.307 154.903Z" fill="#263238"/>
<path d="M231.747 165.081C227.682 164.617 216.312 165.521 208.343 170.233C208.159 170.337 208.151 170.529 208.343 170.465C215.925 167.823 223.781 166.049 231.763 165.177C231.775 165.175 231.787 165.167 231.794 165.157C231.802 165.146 231.805 165.133 231.803 165.121C231.801 165.108 231.793 165.097 231.783 165.089C231.772 165.082 231.759 165.079 231.747 165.081Z" fill="#263238"/>
<path d="M248.125 197.902C244.052 196.935 240.12 195.448 236.427 193.477C232.708 191.465 229.417 188.747 226.738 185.476C225.937 184.476 225.137 183.435 224.441 182.371C223.745 181.307 222.977 180.099 222.153 179.043C222.089 178.963 221.937 179.043 221.985 179.115C222.912 181.336 224.053 183.461 225.393 185.46C226.594 187.329 228.03 189.036 229.666 190.54C232.895 193.413 236.72 195.534 240.868 196.749C243.223 197.405 245.633 197.842 248.069 198.054C248.189 198.086 248.237 197.926 248.125 197.902Z" fill="#263238"/>
<path d="M131.332 137.629C110.72 165.305 76.3234 237.435 71.2666 248.045C67.8341 255.246 105.464 274.209 107.056 268.976C109.104 262.271 142.749 173.762 147.462 141.493C150.038 123.802 138.461 128.051 131.332 137.629Z" fill="#D3766A"/>
<path d="M108.072 265.376C107.2 271.897 102.767 285.035 99.4709 287.043C96.1744 289.051 78.8518 288.643 70.1225 288.643C61.3932 288.643 59.721 286.203 59.825 283.202C59.929 280.202 78.2837 279.626 78.2837 279.626C78.2837 279.626 53.8161 286.603 47.6632 287.779C41.5103 288.955 27.3401 292.5 25.2598 287.403C24.3397 285.099 28.2203 282.77 28.2203 282.77C28.2203 282.77 22.2754 284.506 21.3232 281.554C20.2511 278.186 24.9798 276.337 24.9798 276.337C24.9798 276.337 21.2592 277.081 21.1712 274.337C21.0112 268.176 44.2787 265.168 44.2787 265.168C44.2787 265.168 26.468 273.841 25.8759 268.832C25.0758 261.911 61.5932 254.318 65.3938 251.302C68.1591 248.996 70.7455 246.485 73.131 243.788L108.072 265.376Z" fill="#D3766A"/>
<path d="M59.9531 284.69C59.8914 284.265 59.9318 283.832 60.0709 283.426C60.2101 283.019 60.444 282.652 60.7533 282.354C61.3807 281.779 62.1001 281.314 62.8816 280.978C64.4958 280.292 66.1698 279.756 67.8823 279.378C71.3228 278.506 74.8514 277.889 78.3639 276.977C74.7431 276.923 71.13 277.326 67.6103 278.177C65.8118 278.59 64.0801 279.253 62.4655 280.146C61.6296 280.605 60.897 281.232 60.3132 281.986C60.0262 282.368 59.8423 282.818 59.7792 283.291C59.7162 283.765 59.7761 284.247 59.9531 284.69Z" fill="#263238"/>
<path d="M28.2759 282.738C30.7963 282.122 33.2766 281.418 35.749 280.698C38.2214 279.978 40.6857 279.226 43.1501 278.482L50.5192 276.177C52.9756 275.377 55.4319 274.641 57.9123 273.897C55.3373 274.18 52.7845 274.637 50.2712 275.265C47.7428 275.841 45.2624 276.561 42.79 277.313C40.3177 278.066 37.8693 278.914 35.453 279.81C33.0366 280.706 30.5962 281.65 28.2759 282.738Z" fill="#263238"/>
<path d="M51.9759 267.776C49.6025 267.925 47.2436 268.251 44.9189 268.752C42.5861 269.216 40.2809 269.809 38.0138 270.528C35.7413 271.233 33.5107 272.067 31.3329 273.025C29.1472 273.959 27.032 275.05 25.0039 276.289C27.2522 275.489 29.4446 274.649 31.6769 273.889C33.9092 273.129 36.1336 272.377 38.3819 271.689C40.6302 271 42.8786 270.32 45.1429 269.656C47.4073 268.992 49.6796 268.416 51.9759 267.776Z" fill="#263238"/>
<path d="M48.3755 261.951C44.5528 262.259 40.7869 263.066 37.1738 264.351C33.5254 265.56 30.0523 267.244 26.8442 269.36C30.4608 268.072 33.9813 266.712 37.5738 265.512C41.1664 264.311 44.7269 263.127 48.3755 261.951Z" fill="#263238"/>
<path d="M140.093 185.068L98.3267 183.915C98.3267 183.915 121.09 147.686 133.284 134.396C146.014 120.554 152.943 121.746 148.598 146.27C144.222 170.962 140.093 185.068 140.093 185.068Z" fill="#6DDAD3"/>
<path d="M114.249 177.779C113.122 178.271 112.067 178.915 111.113 179.691C113.552 179.297 115.847 178.28 117.778 176.738C116.558 176.913 115.369 177.264 114.249 177.779ZM137.573 151.247C137.09 150.114 136.446 149.058 135.66 148.11C136.045 150.551 137.066 152.847 138.621 154.767C138.445 153.549 138.092 152.363 137.573 151.247ZM118.314 159.12C117.858 160.262 117.567 161.464 117.45 162.688C118.9 160.689 119.799 158.344 120.058 155.887C119.321 156.873 118.734 157.963 118.314 159.12ZM136.717 175.474C136.257 176.618 135.968 177.823 135.86 179.051C137.302 177.047 138.2 174.704 138.469 172.25C137.729 173.235 137.133 174.321 136.701 175.474H136.717ZM148.958 127.907C148.758 128.323 148.574 128.747 148.398 129.179C147.947 130.323 147.656 131.524 147.534 132.748C148.271 131.771 148.864 130.693 149.294 129.547C149.334 129.443 149.367 129.347 149.399 129.243C149.284 128.786 149.132 128.339 148.942 127.907H148.958Z" fill="white"/>
<path d="M137.477 177.803C136.484 177.658 135.468 177.659 134.476 177.61L131.396 177.442C129.326 177.341 127.248 177.258 125.163 177.194C121.002 177.066 116.85 176.922 112.697 176.866C111.553 176.866 110.409 176.866 109.264 176.866C108.12 176.866 106.864 176.986 105.664 176.994C105.592 176.994 105.6 177.106 105.664 177.106C106.688 177.17 107.712 177.322 108.744 177.386C109.776 177.45 110.849 177.514 111.905 177.554C113.985 177.634 116.065 177.707 118.146 177.755C122.234 177.851 126.331 177.963 130.42 177.971H133.892C135.084 177.971 136.292 178.035 137.493 177.931C137.525 177.907 137.541 177.811 137.477 177.803Z" fill="#263238"/>
<path d="M148.19 157.904C148.19 157.824 148.094 157.776 148.054 157.856C147.279 159.283 146.616 160.767 146.07 162.296C146.214 161.568 146.382 160.84 146.518 160.104C146.974 157.752 147.39 155.383 147.854 153.031C147.849 153.017 147.84 153.004 147.828 152.996C147.815 152.987 147.801 152.982 147.786 152.982C147.771 152.982 147.756 152.987 147.744 152.996C147.732 153.004 147.723 153.017 147.718 153.031C146.638 157.079 145.382 161.088 144.421 165.169C143.461 169.249 142.493 173.33 141.597 177.426C141.109 179.691 140.669 182.515 140.173 184.772C138.965 184.916 137.412 184.772 136.108 184.94C135.996 184.94 136.028 185.14 136.108 185.14C137.484 185.18 139.125 185.492 140.573 185.404C140.757 185.404 144.261 170.849 145.718 163.88C146.614 161.896 147.446 159.912 148.19 157.904Z" fill="#263238"/>
<path d="M177.899 135.276C177.315 137.188 176.651 139.077 175.891 140.925C175.256 142.59 174.477 144.197 173.562 145.726C171.834 148.454 169.178 150.71 165.809 150.702C162.609 150.702 159.68 148.846 157.632 146.478C155.392 143.893 153.903 140.653 152.567 137.533C151.767 135.604 150.967 133.636 150.327 131.644C149.999 130.635 149.655 129.627 149.367 128.603C149.079 127.579 148.831 126.547 148.478 125.547C148.478 125.467 148.302 125.475 148.326 125.547C148.919 127.851 150.639 135.148 151.327 137.004C152.591 140.405 154.015 143.917 156.296 146.782C158.456 149.486 161.392 151.535 164.905 151.871C168.417 152.207 171.426 150.358 173.362 147.574C174.501 145.82 175.389 143.916 176.003 141.917C176.747 139.725 177.371 137.477 177.939 135.228C177.971 135.26 177.899 135.252 177.899 135.276Z" fill="#263238"/>
<path d="M309.006 290.579H251.629L249.069 240.14H309.006V290.579Z" fill="#DBDBDB"/>
<path d="M309.006 240.14L329.617 214.336L346.019 240.14L343.459 290.579H309.006V240.14Z" fill="#C7C7C7"/>
<path d="M269.096 206.143H330.345L352.436 242.18H345.323L330.345 217.232L313.071 245.157H244.012L269.096 206.143Z" fill="#A6A6A6"/>
<path d="M276.193 217.544H263.023L255.998 225.962H271.2L276.193 217.544Z" fill="#C7C7C7"/>
<path d="M266.215 224.522V234.771H258.886V224.522L262.551 219.937L266.215 224.522Z" fill="#DBDBDB"/>
<path d="M266.215 224.514H271.976L266.215 234.771V224.514Z" fill="#C7C7C7"/>
<path d="M264.447 224.682H260.279V231.715H264.447V224.682Z" fill="#FBFAFF"/>
<path d="M262.135 225.17H260.791V227.434H262.135V225.17Z" fill="#EBEBEB"/>
<path d="M263.927 225.17H262.583V227.434H263.927V225.17Z" fill="#EBEBEB"/>
<path d="M262.135 227.842H260.791V231.195H262.135V227.842Z" fill="#EBEBEB"/>
<path d="M263.927 227.842H262.583V231.195H263.927V227.842Z" fill="#EBEBEB"/>
<path d="M308.438 217.544H295.268L288.675 225.962H303.413L308.438 217.544Z" fill="#C7C7C7"/>
<path d="M298.46 224.522V234.771H291.131V224.522L294.795 219.937L298.46 224.522Z" fill="#DBDBDB"/>
<path d="M298.46 224.514H304.229L298.46 234.771V224.514Z" fill="#C7C7C7"/>
<path d="M296.692 224.682H292.523V231.715H296.692V224.682Z" fill="#FBFAFF"/>
<path d="M294.379 225.17H293.035V227.434H294.379V225.17Z" fill="#EBEBEB"/>
<path d="M296.18 225.17H294.835V227.434H296.18V225.17Z" fill="#EBEBEB"/>
<path d="M294.379 227.842H293.035V231.195H294.379V227.842Z" fill="#EBEBEB"/>
<path d="M296.18 227.842H294.835V231.195H296.18V227.842Z" fill="#EBEBEB"/>
<path d="M319.359 204.687H312.03V214.336H319.359V204.687Z" fill="#DBDBDB"/>
<path d="M319.359 204.687H325.12V206.239L319.359 214.336V204.687Z" fill="#C7C7C7"/>
<path d="M319.359 201.406H311.206V204.687H319.359V201.406Z" fill="#C7C7C7"/>
<path d="M325.752 201.406H319.359V204.687H325.752V201.406Z" fill="#A6A6A6"/>
<path d="M266.768 249.285H257.694V264.608H266.768V249.285Z" fill="#FBFAFF"/>
<path d="M261.735 250.349H258.814V255.286H261.735V250.349Z" fill="#EBEBEB"/>
<path d="M265.648 250.349H262.727V255.286H265.648V250.349Z" fill="#EBEBEB"/>
<path d="M261.735 256.174H258.814V263.487H261.735V256.174Z" fill="#EBEBEB"/>
<path d="M265.648 256.174H262.727V263.487H265.648V256.174Z" fill="#EBEBEB"/>
<path d="M300.469 249.285H291.396V264.608H300.469V249.285Z" fill="#FBFAFF"/>
<path d="M295.436 250.349H292.515V255.286H295.436V250.349Z" fill="#EBEBEB"/>
<path d="M299.348 250.349H296.428V255.286H299.348V250.349Z" fill="#EBEBEB"/>
<path d="M295.436 256.174H292.515V263.487H295.436V256.174Z" fill="#EBEBEB"/>
<path d="M299.348 256.174H296.428V263.487H299.348V256.174Z" fill="#EBEBEB"/>
<path d="M266.768 270.576H257.694V285.899H266.768V270.576Z" fill="#FBFAFF"/>
<path d="M261.735 271.641H258.814V276.577H261.735V271.641Z" fill="#EBEBEB"/>
<path d="M265.648 271.641H262.727V276.577H265.648V271.641Z" fill="#EBEBEB"/>
<path d="M261.735 277.465H258.814V284.779H261.735V277.465Z" fill="#EBEBEB"/>
<path d="M265.648 277.465H262.727V284.779H265.648V277.465Z" fill="#EBEBEB"/>
<path d="M300.469 270.576H291.396V285.899H300.469V270.576Z" fill="#FBFAFF"/>
<path d="M295.436 271.641H292.515V276.577H295.436V271.641Z" fill="#EBEBEB"/>
<path d="M299.348 271.641H296.428V276.577H299.348V271.641Z" fill="#EBEBEB"/>
<path d="M295.436 277.465H292.515V284.779H295.436V277.465Z" fill="#EBEBEB"/>
<path d="M299.348 277.465H296.428V284.779H299.348V277.465Z" fill="#EBEBEB"/>
<path d="M283.57 249.285H274.497V264.608H283.57V249.285Z" fill="#FBFAFF"/>
<path d="M278.538 250.349H275.617V255.286H278.538V250.349Z" fill="#EBEBEB"/>
<path d="M282.458 250.349H279.537V255.286H282.458V250.349Z" fill="#EBEBEB"/>
<path d="M278.538 256.174H275.617V263.487H278.538V256.174Z" fill="#EBEBEB"/>
<path d="M282.458 256.174H279.537V263.487H282.458V256.174Z" fill="#EBEBEB"/>
<path d="M283.57 270.68H274.497V286.003H283.57V270.68Z" fill="#FBFAFF"/>
<path d="M278.538 271.737H275.617V276.673H278.538V271.737Z" fill="#EBEBEB"/>
<path d="M282.458 271.737H279.537V276.673H282.458V271.737Z" fill="#EBEBEB"/>
<path d="M278.538 277.569H275.617V284.883H278.538V277.569Z" fill="#EBEBEB"/>
<path d="M282.458 277.569H279.537V284.883H282.458V277.569Z" fill="#EBEBEB"/>
<path d="M325.312 264.608H334.386V249.285H325.312V264.608Z" fill="#FBFAFF"/>
<path d="M333.265 250.349H330.345V255.286H333.265V250.349Z" fill="#EBEBEB"/>
<path d="M329.345 250.349H326.425V255.286H329.345V250.349Z" fill="#EBEBEB"/>
<path d="M333.265 256.174H330.345V263.487H333.265V256.174Z" fill="#EBEBEB"/>
<path d="M329.345 256.174H326.425V263.487H329.345V256.174Z" fill="#EBEBEB"/>
<path d="M325.312 240.924H334.386V227.954H325.312V240.924Z" fill="#FBFAFF"/>
<path d="M333.265 229.01H330.345V233.947H333.265V229.01Z" fill="#EBEBEB"/>
<path d="M329.345 229.01H326.425V233.947H329.345V229.01Z" fill="#EBEBEB"/>
<path d="M333.265 234.891H330.345V239.828H333.265V234.891Z" fill="#EBEBEB"/>
<path d="M329.345 234.891H326.425V239.828H329.345V234.891Z" fill="#EBEBEB"/>
<path d="M324.021 290.673L335.022 290.725L335.117 270.746L324.115 270.694L324.021 290.673Z" fill="#FBFAFF"/>
<path d="M328.416 272.078L328.402 275.07L330.77 275.081L330.784 272.089L328.416 272.078Z" fill="#EBEBEB"/>
<path d="M325.321 272.062L325.307 275.054L327.675 275.065L327.69 272.073L325.321 272.062Z" fill="#EBEBEB"/>
<path d="M327.042 285.935L332.042 285.958L332.046 285.238L327.045 285.215L327.042 285.935Z" fill="#EBEBEB"/>
<path d="M329.897 270.552V273.545H332.265V270.552H329.897Z" fill="#EBEBEB"/>
<path d="M328.408 275.856L328.394 278.849L330.762 278.86L330.776 275.867L328.408 275.856Z" fill="#EBEBEB"/>
<path d="M325.289 275.832L325.274 278.824L327.643 278.836L327.657 275.843L325.289 275.832Z" fill="#EBEBEB"/>
<path d="M331.511 275.872L331.497 278.865L333.865 278.876L333.879 275.883L331.511 275.872Z" fill="#EBEBEB"/>
<path d="M328.392 279.643L328.377 282.635L330.746 282.646L330.76 279.654L328.392 279.643Z" fill="#EBEBEB"/>
<path d="M325.281 279.626L325.267 282.619L327.635 282.63L327.649 279.638L325.281 279.626Z" fill="#EBEBEB"/>
<path d="M331.495 279.659L331.481 282.651L333.849 282.662L333.863 279.67L331.495 279.659Z" fill="#EBEBEB"/>
<path d="M151.094 290.715H100.127L97.8462 266.016H151.094V290.715Z" fill="#DBDBDB"/>
<path d="M151.079 265.984L169.385 243.068L183.964 265.984L181.683 290.683H151.079V265.984Z" fill="#C7C7C7"/>
<path d="M115.337 235.819H170.697L191.204 270.472H185.611L169.945 244.388L154.895 270.472H93.5576L115.337 235.819Z" fill="#A6A6A6"/>
<path d="M113.697 275.185H105.631V286.707H113.697V275.185Z" fill="#FBFAFF"/>
<path d="M109.216 276.129H106.624V280.514H109.216V276.129Z" fill="#DBDBDB"/>
<path d="M112.696 276.129H110.104V280.514H112.696V276.129Z" fill="#DBDBDB"/>
<path d="M109.216 281.346H106.624V285.731H109.216V281.346Z" fill="#DBDBDB"/>
<path d="M112.696 281.346H110.104V285.731H112.696V281.346Z" fill="#DBDBDB"/>
<path d="M143.317 275.185H135.252V286.707H143.317V275.185Z" fill="#FBFAFF"/>
<path d="M138.837 276.129H136.244V280.514H138.837V276.129Z" fill="#DBDBDB"/>
<path d="M142.317 276.129H139.725V280.514H142.317V276.129Z" fill="#DBDBDB"/>
<path d="M138.837 281.346H136.244V285.731H138.837V281.346Z" fill="#DBDBDB"/>
<path d="M142.317 281.346H139.725V285.731H142.317V281.346Z" fill="#DBDBDB"/>
<path d="M128.555 274.569H119.666V290.715H128.555V274.569Z" fill="#FBFAFF"/>
<path d="M125.066 275.681H123.154V278.098H125.066V275.681Z" fill="#DBDBDB"/>
<path d="M127.579 275.681H125.667V278.098H127.579V275.681Z" fill="#DBDBDB"/>
<path d="M126.13 286.283H122.09V286.867H126.13V286.283Z" fill="#DBDBDB"/>
<path d="M122.554 275.681H120.642V278.098H122.554V275.681Z" fill="#DBDBDB"/>
<path d="M125.066 278.738H123.154V281.154H125.066V278.738Z" fill="#DBDBDB"/>
<path d="M127.579 278.738H125.667V281.154H127.579V278.738Z" fill="#DBDBDB"/>
<path d="M122.554 278.738H120.642V281.154H122.554V278.738Z" fill="#DBDBDB"/>
<path d="M125.066 281.794H123.154V284.21H125.066V281.794Z" fill="#DBDBDB"/>
<path d="M127.579 281.794H125.667V284.21H127.579V281.794Z" fill="#DBDBDB"/>
<path d="M122.554 281.794H120.642V284.21H122.554V281.794Z" fill="#DBDBDB"/>
<path d="M127.051 234.435H120.538V243.004H127.051V234.435Z" fill="#DBDBDB"/>
<path d="M127.05 234.435H132.171V235.811L127.05 243.004V234.435Z" fill="#C7C7C7"/>
<path d="M127.051 231.515H119.81V234.427H127.051V231.515Z" fill="#C7C7C7"/>
<path d="M132.731 231.515H127.05V234.427H132.731V231.515Z" fill="#A6A6A6"/>
<path d="M171.241 290.723H187.772L189.348 273.689H171.241V290.723Z" fill="#C7C7C7"/>
<path d="M171.241 273.689L163.072 270L163.256 290.723H171.241V273.689Z" fill="#DBDBDB"/>
<path d="M183.899 278.098H176.946V290.715H183.899V278.098Z" fill="#FBFAFF"/>
<path d="M181.171 278.962H179.675V280.85H181.171V278.962Z" fill="#DBDBDB"/>
<path d="M183.131 278.962H181.635V280.85H183.131V278.962Z" fill="#DBDBDB"/>
<path d="M182.003 286.403H178.842V286.859H182.003V286.403Z" fill="#DBDBDB"/>
<path d="M179.21 278.962H177.714V280.85H179.21V278.962Z" fill="#DBDBDB"/>
<path d="M161.824 269.152H185.843L193.604 275.057H170.545L161.824 269.152Z" fill="#A6A6A6"/>
<path d="M170.545 275.057H161.824V269.152L170.545 275.057Z" fill="#C7C7C7"/>
<path d="M165.384 260.519C165.384 261.334 165.626 262.131 166.079 262.809C166.532 263.487 167.176 264.015 167.93 264.327C168.683 264.638 169.512 264.719 170.312 264.56C171.111 264.4 171.845 264.007 172.421 263.43C172.997 262.853 173.389 262.118 173.547 261.318C173.705 260.518 173.623 259.689 173.31 258.936C172.996 258.184 172.467 257.541 171.788 257.089C171.11 256.637 170.312 256.397 169.497 256.398C168.405 256.4 167.359 256.835 166.588 257.608C165.817 258.381 165.384 259.427 165.384 260.519Z" fill="#FBFAFF"/>
<path d="M166.305 260.519C166.305 261.368 166.642 262.182 167.242 262.782C167.842 263.382 168.656 263.719 169.505 263.719C169.775 263.721 170.045 263.686 170.305 263.615C171.051 263.413 171.698 262.948 172.127 262.306C172.556 261.664 172.739 260.889 172.642 260.123C172.544 259.357 172.173 258.652 171.597 258.138C171.02 257.624 170.277 257.336 169.505 257.326C169.235 257.325 168.966 257.36 168.705 257.43C168.333 257.521 167.982 257.684 167.673 257.911C167.253 258.204 166.909 258.594 166.671 259.048C166.433 259.502 166.307 260.006 166.305 260.519Z" fill="#C7C7C7"/>
<path d="M169.057 264.279H169.945V256.694H169.057V264.279Z" fill="#FBFAFF"/>
<path d="M173.297 260.927V260.039H165.712V260.927H173.297Z" fill="#FBFAFF"/>
<path d="M194.796 290.723H169.041L167.28 271.673H194.796V290.723Z" fill="#6DDAD3"/>
<path opacity="0.2" d="M194.796 290.723H169.041L167.28 271.673H194.796V290.723Z" fill="black"/>
<path d="M194.797 271.673L208.919 253.99L220.161 271.673L218.408 290.723H194.797V271.673Z" fill="#6DDAD3"/>
<path d="M196.501 274.001H161.552L182.811 247.269H209.063L224.841 274.001H220.833L209.063 255.686L196.501 274.001Z" fill="#6DDAD3"/>
<path opacity="0.4" d="M196.501 274.001H161.552L182.811 247.269H209.063L224.841 274.001H220.833L209.063 255.686L196.501 274.001Z" fill="black"/>
<path d="M231.77 223.625H224.489V233.211H231.77V223.625Z" fill="#6DDAD3"/>
<path opacity="0.2" d="M231.77 223.625H224.489V233.211H231.77V223.625Z" fill="black"/>
<path d="M237.499 223.625H231.77V233.211H237.499V223.625Z" fill="#6DDAD3"/>
<path d="M231.771 220.361H223.673V223.617H231.771V220.361Z" fill="#6DDAD3"/>
<path opacity="0.5" d="M231.771 220.361H223.673V223.617H231.771V220.361Z" fill="black"/>
<path d="M238.123 220.361H231.77V223.617H238.123V220.361Z" fill="#6DDAD3"/>
<path opacity="0.4" d="M238.123 220.361H231.77V223.617H238.123V220.361Z" fill="black"/>
<path d="M257.358 290.699H200.35L197.797 263.071H257.358V290.699Z" fill="#6DDAD3"/>
<path opacity="0.2" d="M257.358 290.699H200.35L197.797 263.071H257.358V290.699Z" fill="#3A3A3A"/>
<path d="M257.358 263.071L277.833 237.427L294.139 263.071L291.587 290.699H257.358V263.071Z" fill="#6DDAD3"/>
<path d="M277.585 239.052L294.419 265.088H300.3L278.089 229.29H217.448L186.723 268.056H260.79L277.585 239.052Z" fill="#6DDAD3"/>
<path opacity="0.5" d="M277.585 239.052L294.419 265.088H300.3L278.089 229.29H217.448L186.723 268.056H260.79L277.585 239.052Z" fill="black"/>
<path d="M272.512 266.952H281.529V254.062H272.512V266.952Z" fill="#FBFAFF"/>
<path d="M280.418 255.11H277.513V260.015H280.418V255.11Z" fill="#6DDAD3"/>
<path d="M276.529 255.11H273.625V260.015H276.529V255.11Z" fill="#6DDAD3"/>
<path d="M280.418 260.951H277.513V265.856H280.418V260.951Z" fill="#6DDAD3"/>
<path d="M276.529 260.951H273.625V265.856H276.529V260.951Z" fill="#6DDAD3"/>
<path d="M215.52 273.321H206.502V286.211H215.52V273.321Z" fill="#FBFAFF"/>
<path d="M210.519 274.377H207.615V279.282H210.519V274.377Z" fill="#6DDAD3"/>
<path d="M214.416 274.377H211.511V279.282H214.416V274.377Z" fill="#6DDAD3"/>
<path d="M210.519 280.218H207.615V285.123H210.519V280.218Z" fill="#6DDAD3"/>
<path d="M214.416 280.218H211.511V285.123H214.416V280.218Z" fill="#6DDAD3"/>
<path d="M232.09 273.321H223.073V286.211H232.09V273.321Z" fill="#FBFAFF"/>
<path d="M227.082 274.377H224.177V279.282H227.082V274.377Z" fill="#6DDAD3"/>
<path d="M230.978 274.377H228.074V279.282H230.978V274.377Z" fill="#6DDAD3"/>
<path d="M227.082 280.218H224.177V285.123H227.082V280.218Z" fill="#6DDAD3"/>
<path d="M230.978 280.218H228.074V285.123H230.978V280.218Z" fill="#6DDAD3"/>
<path d="M248.653 273.321H239.635V286.211H248.653V273.321Z" fill="#FBFAFF"/>
<path d="M243.652 274.377H240.748V279.282H243.652V274.377Z" fill="#6DDAD3"/>
<path d="M247.541 274.377H244.636V279.282H247.541V274.377Z" fill="#6DDAD3"/>
<path d="M243.652 280.218H240.748V285.123H243.652V280.218Z" fill="#6DDAD3"/>
<path d="M247.541 280.218H244.636V285.123H247.541V280.218Z" fill="#6DDAD3"/>
<path d="M272.048 290.691H281.994V272.633H272.048V290.691Z" fill="#FBFAFF"/>
<path d="M278.097 273.881H275.953V276.585H278.097V273.881Z" fill="#6DDAD3"/>
<path d="M275.289 273.881H273.145V276.585H275.289V273.881Z" fill="#6DDAD3"/>
<path d="M274.761 286.395H279.282V285.739H274.761V286.395Z" fill="#6DDAD3"/>
<path d="M280.898 273.881H278.753V276.585H280.898V273.881Z" fill="#6DDAD3"/>
<path d="M278.097 277.297H275.953V280.002H278.097V277.297Z" fill="#6DDAD3"/>
<path d="M275.289 277.297H273.145V280.002H275.289V277.297Z" fill="#6DDAD3"/>
<path d="M280.898 277.297H278.753V280.002H280.898V277.297Z" fill="#6DDAD3"/>
<path d="M278.097 280.714H275.953V283.418H278.097V280.714Z" fill="#6DDAD3"/>
<path d="M275.289 280.714H273.145V283.418H275.289V280.714Z" fill="#6DDAD3"/>
<path d="M280.898 280.714H278.753V283.418H280.898V280.714Z" fill="#6DDAD3"/>
<path d="M240.923 238.572H227.833L221.104 246.973H235.923L240.923 238.572Z" fill="#6DDAD3"/>
<path opacity="0.4" d="M240.923 238.572H227.833L221.104 246.973H235.923L240.923 238.572Z" fill="black"/>
<path d="M231.01 245.501V255.686H223.721V245.501L227.369 240.948L231.01 245.501Z" fill="#6DDAD3"/>
<path opacity="0.2" d="M231.01 245.501V255.686H223.721V245.501L227.369 240.948L231.01 245.501Z" fill="black"/>
<path d="M231.01 245.501H236.739L231.01 255.686V245.501Z" fill="#6DDAD3"/>
<path d="M229.242 245.661H225.105V252.646H229.242V245.661Z" fill="#FBFAFF"/>
<path d="M226.953 246.141H225.617V248.389H226.953V246.141Z" fill="#6DDAD3"/>
<path d="M228.738 246.141H227.402V248.389H228.738V246.141Z" fill="#6DDAD3"/>
<path d="M226.953 248.805H225.617V252.142H226.953V248.805Z" fill="#6DDAD3"/>
<path d="M228.738 248.805H227.402V252.142H228.738V248.805Z" fill="#6DDAD3"/>
<path d="M316.815 141.293C320.378 144.323 323.03 148.284 324.472 152.734C325.915 157.183 326.093 161.946 324.986 166.491C323.879 171.036 321.53 175.183 318.203 178.471C314.875 181.758 310.699 184.056 306.141 185.108L300.541 196.573L295.108 185.188C291.045 184.317 287.264 182.447 284.106 179.747C281.581 177.599 279.504 174.974 277.993 172.023C276.483 169.072 275.568 165.853 275.302 162.548C274.764 155.875 276.899 149.261 281.238 144.162C285.576 139.062 291.763 135.895 298.436 135.357C305.11 134.819 311.724 136.955 316.823 141.293H316.815Z" fill="white"/>
<path d="M316.815 141.293C320.378 144.324 323.033 148.281 324.488 152.727C324.853 153.833 325.147 154.96 325.368 156.103C325.56 157.252 325.68 158.412 325.728 159.576C325.837 161.91 325.619 164.247 325.08 166.521C324.551 168.8 323.708 170.994 322.576 173.042C322.004 174.062 321.359 175.041 320.648 175.97C319.96 176.918 319.201 177.812 318.375 178.643C315.039 182.003 310.829 184.365 306.222 185.46L306.47 185.268L300.933 196.765L300.533 197.605L300.133 196.765L294.66 185.404L294.996 185.668C290.228 184.634 285.856 182.257 282.397 178.816C278.938 175.376 276.536 171.017 275.476 166.255C274.417 161.493 274.743 156.527 276.417 151.944C278.091 147.362 281.043 143.355 284.922 140.397C288 138.09 291.553 136.499 295.324 135.74C299.093 134.977 302.986 135.081 306.709 136.043C310.432 137.005 313.888 138.8 316.815 141.293ZM316.815 141.293C313.907 138.811 310.469 137.029 306.764 136.086C303.059 135.143 299.187 135.062 295.446 135.852C291.706 136.641 288.196 138.279 285.188 140.638C282.18 142.998 279.754 146.017 278.097 149.462C276.445 152.868 275.591 156.606 275.601 160.392C275.647 164.159 276.51 167.872 278.129 171.274C279.771 174.659 282.159 177.627 285.114 179.955C288.075 182.272 291.517 183.896 295.188 184.708L295.428 184.764L295.524 184.98L300.925 196.381H300.125L305.813 184.956L305.885 184.796H306.054C310.577 183.806 314.733 181.572 318.055 178.347C318.88 177.542 319.643 176.675 320.336 175.754C321.052 174.85 321.701 173.896 322.28 172.898C323.44 170.896 324.313 168.742 324.872 166.497C325.452 164.251 325.7 161.933 325.608 159.616C325.567 158.458 325.457 157.304 325.28 156.159C325.064 155.02 324.778 153.895 324.424 152.791C322.999 148.329 320.365 144.349 316.815 141.293Z" fill="#263238"/>
<path d="M307.318 154.111C307.038 153.826 306.727 153.573 306.39 153.359C305.943 153.07 305.475 152.816 304.989 152.599C303.814 152.066 302.555 151.741 301.269 151.639V158.84L301.933 158.976C303.079 159.249 304.209 159.586 305.317 159.984C306.231 160.305 307.091 160.761 307.87 161.336C308.547 161.857 309.095 162.528 309.47 163.296C309.871 164.185 310.065 165.154 310.038 166.129C310.07 167.211 309.845 168.286 309.382 169.265C308.954 170.124 308.329 170.87 307.558 171.442C306.741 172.037 305.822 172.477 304.845 172.738C303.766 173.035 302.653 173.194 301.533 173.21V176.858H299.733V173.138C298.094 173.039 296.477 172.708 294.932 172.154C293.443 171.618 292.049 170.848 290.803 169.873L292.572 166.545C292.906 166.888 293.279 167.191 293.684 167.449C294.225 167.802 294.792 168.115 295.38 168.385C296.071 168.704 296.785 168.972 297.516 169.185C298.301 169.418 299.104 169.581 299.917 169.673V162.472C299.781 162.432 299.629 162.384 299.485 162.352C299.338 162.322 299.194 162.282 299.052 162.232C297.967 161.952 296.899 161.61 295.852 161.208C295.028 160.901 294.26 160.461 293.58 159.904C292.994 159.421 292.526 158.811 292.211 158.12C291.874 157.335 291.713 156.485 291.739 155.631C291.717 154.595 291.919 153.566 292.331 152.615C292.716 151.746 293.284 150.971 293.996 150.342C294.732 149.69 295.584 149.183 296.508 148.846C297.538 148.471 298.615 148.245 299.709 148.174V144.662H301.509V148.174C302.938 148.247 304.346 148.552 305.677 149.078C306.873 149.544 308.005 150.16 309.046 150.911L307.318 154.111ZM295.86 155.007C295.832 155.429 295.911 155.852 296.09 156.235C296.269 156.619 296.542 156.95 296.884 157.199C297.839 157.8 298.888 158.233 299.989 158.48V151.639C298.864 151.611 297.763 151.96 296.86 152.631C296.527 152.928 296.265 153.295 296.092 153.706C295.919 154.117 295.84 154.562 295.86 155.007ZM305.917 166.537C305.939 166.079 305.837 165.624 305.623 165.219C305.409 164.814 305.091 164.473 304.701 164.233C303.639 163.601 302.491 163.127 301.293 162.824V169.697C302.487 169.756 303.673 169.478 304.717 168.897C305.107 168.644 305.423 168.292 305.634 167.878C305.844 167.463 305.942 167.001 305.917 166.537Z" fill="#6DDAD3"/>
</svg>
